<svg xmlns="http://www.w3.org/2000/svg" id="prefix__building_1_" width="53.795" height="53.795" data-name="building (1)" viewBox="0 0 53.795 53.795">
    <defs>
        <style>
            .prefix__cls-1{fill:#3c3c47}
        </style>
    </defs>
    <g id="prefix__Group_2925" data-name="Group 2925">
        <g id="prefix__Group_2924" data-name="Group 2924">
            <path id="prefix__Path_157" d="M52.058 52.058V13.883H41.649V5.21h2.605V0H9.541v5.21h2.605v8.673H1.737v38.175H0v1.737h53.795v-1.737zm-39.912 0H3.473V15.62h8.673zm-.868-48.585V1.737h31.239v1.736zM32.1 52.058H21.687V40.78H32.1zm7.815 0h-6.081V39.044H19.961v13.014h-6.078V5.21h26.029zm10.41 0h-8.676V15.62h8.673z" class="prefix__cls-1" data-name="Path 157"/>
        </g>
    </g>
    <g id="prefix__Group_2927" data-name="Group 2927" transform="translate(17.356 7.804)">
        <g id="prefix__Group_2926" data-name="Group 2926">
            <path id="prefix__Path_158" d="M163.9 73.7v6.947h6.936V73.7zm5.2 5.21h-3.473v-3.473h3.473z" class="prefix__cls-1" data-name="Path 158" transform="translate(-163.9 -73.7)"/>
        </g>
    </g>
    <g id="prefix__Group_2929" data-name="Group 2929" transform="translate(29.502 7.804)">
        <g id="prefix__Group_2928" data-name="Group 2928">
            <path id="prefix__Path_159" d="M278.6 73.7v6.947h6.936V73.7zm5.21 5.21h-3.473v-3.473h3.473z" class="prefix__cls-1" data-name="Path 159" transform="translate(-278.6 -73.7)"/>
        </g>
    </g>
    <g id="prefix__Group_2931" data-name="Group 2931" transform="translate(17.356 18.225)">
        <g id="prefix__Group_2930" data-name="Group 2930">
            <path id="prefix__Path_160" d="M163.9 172.1v6.936h6.936V172.1zm5.2 5.21h-3.473v-3.473h3.473z" class="prefix__cls-1" data-name="Path 160" transform="translate(-163.9 -172.1)"/>
        </g>
    </g>
    <g id="prefix__Group_2933" data-name="Group 2933" transform="translate(29.502 18.225)">
        <g id="prefix__Group_2932" data-name="Group 2932">
            <path id="prefix__Path_161" d="M278.6 172.1v6.936h6.936V172.1zm5.21 5.21h-3.473v-3.473h3.473z" class="prefix__cls-1" data-name="Path 161" transform="translate(-278.6 -172.1)"/>
        </g>
    </g>
    <g id="prefix__Group_2935" data-name="Group 2935" transform="translate(17.356 28.634)">
        <g id="prefix__Group_2934" data-name="Group 2934">
            <path id="prefix__Path_162" d="M163.9 270.4v6.936h6.936V270.4zm5.2 5.21h-3.473v-3.473h3.473z" class="prefix__cls-1" data-name="Path 162" transform="translate(-163.9 -270.4)"/>
        </g>
    </g>
    <g id="prefix__Group_2937" data-name="Group 2937" transform="translate(29.502 28.634)">
        <g id="prefix__Group_2936" data-name="Group 2936">
            <path id="prefix__Path_163" d="M278.6 270.4v6.936h6.936V270.4zm5.21 5.21h-3.473v-3.473h3.473z" class="prefix__cls-1" data-name="Path 163" transform="translate(-278.6 -270.4)"/>
        </g>
    </g>
    <g id="prefix__Group_2939" data-name="Group 2939" transform="translate(6.936 20.819)">
        <g id="prefix__Group_2938" data-name="Group 2938">
            <path id="prefix__Rectangle_402" d="M0 0H1.737V5.21H0z" class="prefix__cls-1" data-name="Rectangle 402"/>
        </g>
    </g>
    <g id="prefix__Group_2941" data-name="Group 2941" transform="translate(6.936 31.239)">
        <g id="prefix__Group_2940" data-name="Group 2940">
            <path id="prefix__Rectangle_403" d="M0 0H1.737V5.21H0z" class="prefix__cls-1" data-name="Rectangle 403"/>
        </g>
    </g>
    <g id="prefix__Group_2943" data-name="Group 2943" transform="translate(6.936 41.649)">
        <g id="prefix__Group_2942" data-name="Group 2942">
            <path id="prefix__Rectangle_404" d="M0 0H1.737V5.21H0z" class="prefix__cls-1" data-name="Rectangle 404"/>
        </g>
    </g>
    <g id="prefix__Group_2945" data-name="Group 2945" transform="translate(45.122 20.819)">
        <g id="prefix__Group_2944" data-name="Group 2944">
            <path id="prefix__Rectangle_405" d="M0 0H1.737V5.21H0z" class="prefix__cls-1" data-name="Rectangle 405"/>
        </g>
    </g>
    <g id="prefix__Group_2947" data-name="Group 2947" transform="translate(45.122 31.239)">
        <g id="prefix__Group_2946" data-name="Group 2946">
            <path id="prefix__Rectangle_406" d="M0 0H1.737V5.21H0z" class="prefix__cls-1" data-name="Rectangle 406"/>
        </g>
    </g>
    <g id="prefix__Group_2949" data-name="Group 2949" transform="translate(45.122 41.649)">
        <g id="prefix__Group_2948" data-name="Group 2948">
            <path id="prefix__Rectangle_407" d="M0 0H1.737V5.21H0z" class="prefix__cls-1" data-name="Rectangle 407"/>
        </g>
    </g>
</svg>
