<svg xmlns="http://www.w3.org/2000/svg" width="158.891" height="139.914" viewBox="0 0 158.891 139.914"><defs><style>.a,.d,.f,.i,.l{fill:#fff;}.a,.f,.i,.q,.r,.t,.u{stroke:#000;}.a,.s,.t,.u{stroke-linecap:round;}.a,.f,.i,.q,.r,.s,.t,.u{stroke-miterlimit:10;}.a,.i,.q,.u{stroke-width:0.25px;}.b{fill:#de3744;}.c{fill:#fcfcfc;}.e{fill:#181d21;}.f,.t{stroke-width:0.5px;}.g{fill:#355a63;}.h{fill:#21282d;}.j{fill:#376982;}.k{fill:#332f2f;}.l{fill-rule:evenodd;}.m{fill:#9ad9e8;}.n{fill:#859093;}.o{fill:#8bcad8;}.p{fill:#69acb7;}.q,.r,.s,.t,.u{fill:none;}.s{stroke:#de3744;}.u{stroke-dasharray:3 1;}</style></defs><g transform="translate(-11.809 -5.386)"><path class="a" d="M119.89,8.83l.8,4.3,1.2-1.3,7.9-4.7-.4-1Z"/><path class="b" d="M298,83.93c.7-.8-1.5-23.4,0-32.8,1.3-8.1.2-1.9.2-1.9s6.2-4.4,9.7-4.1h23.7s2.3-.3,2.2,1.3l5.9,37.5Z" transform="translate(-237.87)"/><path class="c" d="M311.17,31.43a14.149,14.149,0,0,0-.2,2.9l1.6,1.8c0,.2-.1.3-.3.5s-1.6.6-1.9.8-.7.9-.4,1.2a1.43,1.43,0,0,0,1.2.6,6.629,6.629,0,0,0,.9,1.9,3.26,3.26,0,0,0,1.7,1.3,1.7,1.7,0,0,0,1,0s.7.5-.1,2.6l2.6,2,.3.1,2.1-.6,3.4-1.5s-1.4-6.2-1.2-7.3a7.24,7.24,0,0,0,1.9-1.1,3.86,3.86,0,0,0,.8-2,2.43,2.43,0,0,0-1.4-2.1,15.561,15.561,0,0,1-3.5-2.7Z" transform="translate(-237.87)"/><path d="M311,31.93a5.719,5.719,0,0,0-.1,2.6c0,.1.2.1.1,0a7.579,7.579,0,0,1,.1-2.6c.1-.1-.1-.1-.1,0Z" transform="translate(-237.87)"/><path d="M310.27,33.53a1.84,1.84,0,0,1,1.6-.2c.1,0,.1.1.2.1s.1.1,0,.2h0a.37.37,0,0,1-.3.1h-.9c-.3,0-.6,0-.6-.2Z" transform="translate(-237.87)"/><path d="M314.37,33.63a1.21,1.21,0,0,1,.5-.5,1.7,1.7,0,0,1,1.4.2c.1.1.2.2.2.3s-.2.2-.3.2a5.7,5.7,0,0,0-1.3-.1c-.1,0-.2,0-.2.1-.2,0-.3,0-.3-.2Z" transform="translate(-237.87)"/><path d="M312.37,36.33c-.5.8-1.5.6-2.2,1.2a1.16,1.16,0,0,0-.4,1c.4,1.2,2.5.7,3.3.3.1-.1,0-.2-.1-.2a2.83,2.83,0,0,1-1.8.4,1.16,1.16,0,0,1-1-.4.82.82,0,0,1,.1-1.2c.1-.1.2-.1.3-.2.7-.4,1.5-.3,2-1,0,.1-.1,0-.2.1Z" transform="translate(-237.87)"/><path d="M311.17,39.43c.5,1.5,1.2,2.9,2.9,3.2s3-.8,4.1-1.8c.1-.1,0-.2-.1-.1a5.1,5.1,0,0,1-3.8,1.8c-1.7-.1-2.5-1.6-3-3.1,0-.1-.2-.1-.1,0Z" transform="translate(-237.87)"/><path d="M314.77,42.63a4.27,4.27,0,0,1-.1,2.5c0,.1.1.2.1,0a3.36,3.36,0,0,0,.1-2.6C314.87,42.43,314.77,42.53,314.77,42.63Z" transform="translate(-237.87)"/><path d="M323,32.63a2.27,2.27,0,0,1,1.4,2.9h0a3.4,3.4,0,0,1-2.7,2.2c-.1,0-.1.2,0,.2a3.52,3.52,0,0,0,3-2.7,2.19,2.19,0,0,0-1.7-2.6Z" transform="translate(-237.87)"/><path d="M321.87,37.73a29.329,29.329,0,0,0,1.2,7.3c0,.1.2.1.1,0a30.919,30.919,0,0,1-1.2-7.3C322.07,37.63,321.87,37.63,321.87,37.73Z" transform="translate(-237.87)"/><path d="M77.49,49.03l1.2,1.8-2.8,16.5,1.2,2.5,1.8-2.4.6-16.4,1.5-1.8-1.5-2Z"/><path d="M314.67,45.23h0C314.57,45.13,314.57,45.23,314.67,45.23Z" transform="translate(-237.87)"/><path d="M312.17,82.13a149.751,149.751,0,0,1,.6-21.2c.3-3.6.8-7.1,1.3-10.7a18.656,18.656,0,0,1,.4-2.5c0-.3.4-2.5.3-2.5a1.33,1.33,0,0,1,.6.5c.4.3.8.6,1.1.8l.9.6c.3.2.7-.1,1-.2a41.4,41.4,0,0,0,4.9-1.9c.1,0,0-.2-.1-.2a36.466,36.466,0,0,1-3.5,1.4c-.6.2-1.1.3-1.7.5-.4.1-.4.2-.7,0-.8-.6-1.7-1.2-2.5-1.8a.1.1,0,0,0-.1.1,196.3,196.3,0,0,0-2.7,28.6c0,2.8,0,5.6.1,8.3-.1.3.1.3.1.2Z" transform="translate(-237.87)"/><path d="M321.87,35.73c.4-.3.9-.6,1.3-.9.1-.1,0-.2-.1-.2-.5.3-.9.6-1.4.9C321.67,35.63,321.77,35.83,321.87,35.73Z" transform="translate(-237.87)"/><path d="M322.47,34a1.2,1.2,0,0,1,.6,1.6c0,.1,0,.1-.1.1s.1.2.1.1a1.46,1.46,0,0,0-.5-2h-.1C322.47,33.93,322.37,34,322.47,34Z" transform="translate(-237.87)"/><path class="d" d="M316.27,39.43a1.83,1.83,0,0,1-1.2,1.8,1.76,1.76,0,0,1-2-.8v-.1c1-.3,2.1-.6,3.2-.9" transform="translate(-237.87)"/><path d="M316.17,39.43a1.53,1.53,0,0,1-1.5,1.7,1.35,1.35,0,0,1-1.2-.5c-.4-.4-.2-.3.2-.5l.9-.2,1.6-.5c.2.1.2-.1,0,0-.9.2-2,.5-3.1.8a.1.1,0,0,0-.1.1c.1.7,1.1,1.1,1.7,1a1.86,1.86,0,0,0,1.6-1.9c.1-.1-.1-.1-.1,0Z" transform="translate(-237.87)"/><path d="M318.17,40.63s.7.2.6.5a1.6,1.6,0,0,1-.9,1.3,8.75,8.75,0,0,1-1.6.2c-.4.1-.8.1-.9.5s-.6,1.8-.6,1.8.5-1.7.1-2.3a11.22,11.22,0,0,0,3.3-2Z" transform="translate(-237.87)"/><ellipse class="d" cx="1" cy="1.8" rx="1" ry="1.8" transform="translate(77.187 35.825) rotate(-87.71)"/><path d="M313.67,34.93c0,.9,1.1,1.2,1.8,1.2s1.9-.1,1.9-1c.2-1.5-3.4-1.7-3.7-.2,0,.1.1.1.1,0,.2-1.3,3.6-1.2,3.5.2s-3.4,1.2-3.5-.2C313.87,34.83,313.77,34.83,313.67,34.93Z" transform="translate(-237.87)"/><ellipse class="d" cx="1.8" cy="1" rx="1.8" ry="1" transform="matrix(1, -0.01, 0.01, 1, 71.463, 35.06)"/><path d="M309.37,35.43c.1.8,1.2,1,1.8,1s1.8-.2,1.8-1c.1-1.5-3.4-1.5-3.6,0h.1c.1-1.3,3.4-1.3,3.4,0s-3.3,1.3-3.4,0C309.57,35.33,309.37,35.33,309.37,35.43Z" transform="translate(-237.87)"/><path class="e" d="M309.57,35.13c1.9-1,2.2,1.2,2.2,1.2C309.07,36.53,309.57,35.13,309.57,35.13Z" transform="translate(-237.87)"/><path class="e" d="M313.77,34.73c1.9-1,2.2,1.3,2.2,1.3C313.17,36,313.77,34.73,313.77,34.73Z" transform="translate(-237.87)"/><path class="f" d="M99.69,84.43l6.6,40.9-34.5-2.3,2.3-38.3Z"/><path d="M319.87,30.83a5.06,5.06,0,0,0,1.9,5.1s-.4-4,1-3.2l1.4.8.2-2.8s.1-4-.5-4.1a16.52,16.52,0,0,1-2.1-.7s-5.1-2.5-8.9-.3-2.9,3.3-4.6,3.2a2.8,2.8,0,0,0-2.4,1s3.2,2.5,4.6,2.7a17.35,17.35,0,0,0,5.1-.5C316.47,31.63,319.07,31.43,319.87,30.83Z" transform="translate(-237.87)"/><rect class="g" width="64.9" height="5.6" transform="translate(91.39 77.03)"/><path class="f" d="M374.47,111.33l.9,24s-14.3,0-14.8-2.4,2.1-32.4,2.1-32.4l7.6-1.1Z" transform="translate(-237.87)"/><path class="b" d="M342.87,82.53s-9.3,23.4,16,19l11.4-1.6,12.4,32.9,11.5-10.9s-13.6-35.3-18.9-36-15.1-3.4-15.1-3.4Z" transform="translate(-237.87)"/><path d="M344.37,51.23s-2.4-.7-3,1.4l1.4,24.4H367l1.6-24.5a3.33,3.33,0,0,0-3-1.5Z" transform="translate(-237.87)"/><path class="h" d="M352.47,29.53s1.1-1,1.5-1.3,3,0,3,0-.5-4.7-4-3.6-5.3.1-6.7,4.5a61.2,61.2,0,0,0-2.4,14.1c-.2,3.4-1.3,5.3-.8,6.8s.9,1,1.2,1.2a.35.35,0,0,0,.5-.1l6.9.3.9-9.6-2.4-5.5c-.3-.8.5-6.4,1.2-5.9C351.87,30.63,352.47,29.53,352.47,29.53Z" transform="translate(-237.87)"/><path class="d" d="M363.77,35.43a7.511,7.511,0,0,1,.5,2.6,5.85,5.85,0,0,0-1.3.2c-.2.1-.5.1-.5.6a.91.91,0,0,0,.3.7,8.793,8.793,0,0,0,1,.6,1.48,1.48,0,0,0,1.1.8,1.42,1.42,0,0,1,.6.2,1.78,1.78,0,0,1-.4,1,4.131,4.131,0,0,1-1.1.7h-.1a6.64,6.64,0,0,1-.6,2,3.55,3.55,0,0,1-2,1.8,4.08,4.08,0,0,1-1.9.1,7.32,7.32,0,0,0-.8,2.5,2.14,2.14,0,0,0,1.2,1.7,6.26,6.26,0,0,1-6.4,1.3l-1.7-.8a30,30,0,0,0,1.3-9.9,1.39,1.39,0,0,1-.9,0,3.74,3.74,0,0,1-1.3-1.5,2.75,2.75,0,0,1,.5-2,4.17,4.17,0,0,0,.8-1.8l6-4.2Z" transform="translate(-237.87)"/><ellipse class="d" cx="1.2" cy="2.1" rx="1.2" ry="2.1" transform="translate(119.466 39.358) rotate(-79.96)"/><path d="M361.67,38.93c-.4,1.5-4.2.9-3.9-.7s4-.8,3.9.7c0,.1.1.1.1,0,.1-1.7-4-2.4-4.2-.7-.1,1,1.3,1.5,1.9,1.6s2.1.1,2.2-.9C361.77,38.93,361.67,38.83,361.67,38.93Z" transform="translate(-237.87)"/><ellipse class="d" cx="1.2" cy="2.1" rx="1.2" ry="2.1" transform="translate(124.2 40.127) rotate(-79.96)"/><path d="M366.37,39.53c-.4,1.5-4.2.9-3.9-.7s4-.8,3.9.7c0,.1.1.1.1,0,.1-1.7-4-2.4-4.2-.7-.1,1,1.3,1.5,1.9,1.6s2.1.1,2.2-.9C366.47,39.53,366.37,39.43,366.37,39.53Z" transform="translate(-237.87)"/><path class="e" d="M363.67,40.23s.8-2.6,2.7-1C366.37,39.23,366.67,40.93,363.67,40.23Z" transform="translate(-237.87)"/><path class="e" d="M359,39.73s.8-2.6,2.7-1C361.77,38.73,362.07,40.43,359,39.73Z" transform="translate(-237.87)"/><path class="h" d="M358,31.93s-1,7.5-4.3,6.3c0,0,.5,2.6,0,3,0,0-.2-2.6-.5-2.7s-1.2-.9-1.6-.6-1.5-6,1.2-7.5c0,0,1.5-1.6,2.2-1.7s9.6-.1,9.5,4c0,0,.3,2.5-.6,3.1s-3-2.2-3-2.2,0,.3-.5.3a4.75,4.75,0,0,1-2.4-2Z" transform="translate(-237.87)"/><path d="M363.67,35.33a11.223,11.223,0,0,1,.8,2.6c0,.1.1.1.1,0a11.218,11.218,0,0,0-.8-2.6C363.77,35.23,363.57,35.23,363.67,35.33Z" transform="translate(-237.87)"/><path class="h" d="M364,42.53a4,4,0,0,1-1.7,3.5,3.9,3.9,0,0,1-3.9.2.1.1,0,0,0-.1.1,4,4,0,0,0,4.1-.2,4.33,4.33,0,0,0,1.8-3.7c-.1,0-.2,0-.2.1Z" transform="translate(-237.87)"/><path class="h" d="M363.67,40.23a1.56,1.56,0,0,0,.8.6c.4.1,1-.1,1,.7a1.51,1.51,0,0,1-1.1,1.2,1.62,1.62,0,0,1-1.8-.7c0-.1-.1,0-.1.1a1.63,1.63,0,0,0,2.3.5c.2-.1.3-.3.5-.4s.6-1,.4-1.3c0-.1-.1-.1-.2-.1-.3-.1-.6,0-.9-.1a4.049,4.049,0,0,1-.9-.5c0-.2-.1-.1,0,0Z" transform="translate(-237.87)"/><path class="d" d="M361.47,43.33a1.76,1.76,0,0,1-1,.9,1.25,1.25,0,0,1-1.3-.4,1.21,1.21,0,0,1-.2-1.4h0c.8.3,1.6.5,2.5.9" transform="translate(-237.87)"/><path d="M361.37,43.33a1.42,1.42,0,0,1-1.3.9,1.24,1.24,0,0,1-1.3-1.2v-.2c0-.4,0-.4.3-.3l.7.2a6.391,6.391,0,0,0,1.6.6c.1,0,.1-.1,0,0a8.381,8.381,0,0,0-2.5-.9h-.1a1.51,1.51,0,0,0,.7,1.9,1.58,1.58,0,0,0,1.9-1c.1,0,.1-.1,0,0Z" transform="translate(-237.87)"/><path class="h" d="M359.27,46.83a4.68,4.68,0,0,0-.5,2.6c.2,1.3.3.5,1,1.6,0,.1.2,0,.2-.1-.7-1.1-.9-.1-1-1.5a4.19,4.19,0,0,1,.5-2.5C359.37,46.83,359.37,46.73,359.27,46.83Z" transform="translate(-237.87)"/><path class="h" d="M353.77,38.73c-.8-1.5-2.4-1.7-3-.1s1,3.6,2.5,2.9c.1,0,0-.2,0-.1-1.3.6-2.7-1.2-2.4-2.5.4-1.5,2.1-1.3,2.9.2,0-.3-.1-.6-.1-.8Z" transform="translate(-237.87)"/><path class="h" d="M353.07,41.53a20,20,0,0,1-.3,6c-.3,1.3-.8,2.5-1,3.8,0,.1.1.1.1,0,.3-1.3.8-2.5,1.1-3.8a20.191,20.191,0,0,0,.3-6C353.27,41.43,353.07,41.43,353.07,41.53Z" transform="translate(-237.87)"/><path d="M352.27,38.23a1.7,1.7,0,0,0-.5,2.2c0,.1.1,0,.1,0a1.58,1.58,0,0,1,.5-2C352.47,38.33,352.37,38.23,352.27,38.23Z" transform="translate(-237.87)"/><path d="M352,39.53c.2.2.4.3.6.5s.1,0,.1-.1-.4-.3-.6-.5C352,39.43,351.9,39.53,352,39.53Z" transform="translate(-237.87)"/><path class="h" d="M359.77,51a6.92,6.92,0,0,1-8,.2c-.1,0-.1.1,0,.1a6.92,6.92,0,0,0,8-.3C359.87,51.23,359.87,51,359.77,51Z" transform="translate(-237.87)"/><path class="h" d="M358,46c-.1-.1-.3-.2-.4-.3-.3-.1-.5.4-.4.7a.75.75,0,0,0,.8.5c.4,0,.7-.2.8-.1a3.4,3.4,0,0,1,.1,1,5.54,5.54,0,0,1,.5-1.3Z" transform="translate(-237.87)"/><path class="i" d="M339.77,57l-7.9,8.6s-6,6.6,2.3,11.1l11,.3,10.5-1.5,2.2,1.3H365s-.2-7.3-8.2-6.3l-17.6-1.6,6.5-5.9Z" transform="translate(-237.87)"/><path d="M103.39,52.63l-6.1,8.2,6.1,5.4,5.7-4.1Z"/><path class="b" d="M361.37,77l7.7-16.2s0-1.6,2.1-1.2h20.7s1.7-.5.8,1.2-8.3,16.2-8.3,16.2Z" transform="translate(-237.87)"/><path d="M365.37,37c-.1.3-.4.3-.7.2l-1-.1a.37.37,0,0,1-.3-.1.19.19,0,0,1,0-.3c.1-.1.1-.1.2-.1a2.23,2.23,0,0,1,1.8.4Z" transform="translate(-237.87)"/><path d="M360.77,36.83c0,.1-.1.1-.2.1s-.2-.1-.3-.1c-.4-.2-.9,0-1.4,0-.2,0-.4-.1-.4-.2s.1-.3.2-.3a1.6,1.6,0,0,1,1.5-.1.9.9,0,0,1,.6.6Z" transform="translate(-237.87)"/><path d="M386.07,129.33l6,7.1,16.5-14.8s-2.3-6.1-13.2,3.6l-1.7-1.6Z" transform="translate(-237.87)"/><path d="M363.87,136l.9,9.3,22-2.7s1.6-6.3-12.9-4.6l-.5-2.3Z" transform="translate(-237.87)"/><circle class="d" cx="1" cy="1" r="1" transform="translate(125.19 51.73)"/><circle class="d" cx="1" cy="1" r="1" transform="translate(105.79 52.73)"/><circle class="d" cx="1" cy="1" r="1" transform="translate(111.39 55.03)"/><circle class="d" cx="1" cy="1" r="1" transform="translate(103.49 56.03)"/><circle class="d" cx="1" cy="1" r="1" transform="translate(106.99 58.73)"/><circle class="d" cx="1" cy="1" r="1" transform="translate(105.99 64.43)"/><circle class="d" cx="1" cy="1" r="1" transform="translate(112.69 62.43)"/><circle class="d" cx="1" cy="1" r="1" transform="translate(115.69 56.43)"/><circle class="d" cx="1" cy="1" r="1" transform="translate(122.29 55.03)"/><circle class="d" cx="1" cy="1" r="1" transform="translate(118.79 60.03)"/><circle class="d" cx="1" cy="1" r="1" transform="translate(124.39 58.63)"/><circle class="d" cx="1" cy="1" r="1" transform="translate(110.99 65.93)"/><circle class="d" cx="1" cy="1" r="1" transform="translate(116.89 64.93)"/><circle class="d" cx="1" cy="1" r="1" transform="translate(121.49 63.23)"/><circle class="d" cx="1" cy="1" r="1" transform="translate(126.09 64.03)"/><circle class="d" cx="1" cy="1" r="1" transform="translate(122.59 67.53)"/><circle class="d" cx="1" cy="1" r="1" transform="translate(101.09 60.03)"/><path class="j" d="M104.29,65.63l4.5-3.9-4.6,5.2Z"/><path class="k" d="M346.67,61.73l2.2-1.7s2.6-1.3,2.7-.3-.7,2.4-2,3.9-3.5,2.4-3.8,3.3a5.13,5.13,0,0,1-1.5,2.3L342,69V66.8Z" transform="translate(-237.87)"/><circle class="d" cx="1" cy="1" r="1" transform="translate(106.99 64.43)"/><path class="l" d="M378.77,75l-.4-.3a8.131,8.131,0,0,1-1.8-1.9,8.859,8.859,0,0,1-.8-1.7,2.2,2.2,0,0,1-.1-.8c.1-.2.1-.3.3-.4l.3-.3c.1-.1.2-.1.4-.1h0a.45.45,0,0,1,.2-.6.47.47,0,0,1,.6.1.64.64,0,0,1,0,.6.62.62,0,0,1-.7.1v.7a.1.1,0,0,0,.1.1h0l.5.1c.2.1.2.2.1.3l.4.2v-.2c.1-.3.2-.6.3-1,0-.1,0-.1.1-.2s0-.1.1-.1.1,0,.1.1v.5l-.2.5c0,.1-.1.1,0,.2h0l.2.2h.1a3.59,3.59,0,0,0,1-.7,6.232,6.232,0,0,0,.9-1.2l.6-1.2a5.66,5.66,0,0,0,.3-1.8,2.14,2.14,0,0,0-1.2-1.7,2,2,0,0,0-1.3-.2,2.67,2.67,0,0,0-1.4.7,10.59,10.59,0,0,0-1,1.2,7.1,7.1,0,0,0-.8,1.8,3.4,3.4,0,0,0-.1,1v.1l-.4.8-.3-.6a3.65,3.65,0,0,1,0-2.9.76.76,0,0,1,.2-.4l.3-.5a.1.1,0,0,1,.1-.1,2.91,2.91,0,0,1,1.1-1.1,3.94,3.94,0,0,1,3.5-.5,2.87,2.87,0,0,1,1.3.8,4.19,4.19,0,0,1,.9,1.4,3.21,3.21,0,0,1,.2,1.7,5.49,5.49,0,0,1-.5,1.7,4.43,4.43,0,0,1-1.2,1.5,3.88,3.88,0,0,1-3.1.8h-.3a5.853,5.853,0,0,0,.2,1.3,3.36,3.36,0,0,0,1,1.6l.3.3-.1.1Zm-2.2-4.9h0l-.3.5v.1h0a3.33,3.33,0,0,0,1,.6,2.44,2.44,0,0,0,1.2,0h0a1.42,1.42,0,0,1-.6-.2c-.2,0-.3-.1-.5-.1s-.1-.1-.1-.2l-.5-.1c-.1,0-.1-.1-.1-.2Z" transform="translate(-237.87)"/><path d="M365.77,99.93l-20.9.3s-2.5,4,.1,5.2,24.4.3,24.4.3l.3-5.8Z" transform="translate(-237.87)"/><path class="b" d="M335.07,137.33h-73.6s-15.4-12.6-11-35.7,25.8-25.2,25.8-25.2C312.27,98.43,342.07,119.83,335.07,137.33Z" transform="translate(-237.87)"/><path class="d" d="M277.17,68.93h25.4a3,3,0,0,1,3.2,1.6c.9,2.1,8.3,16.2,8.3,16.2l-30.6,26.6s-16.1,3.4-16.3-8.3,7-32.3,7-32.3,1-3.4,3-3.8" transform="translate(-237.87)"/><path class="m" d="M279.87,86.63s.4-4,2-4.1,1.6,4.7.5,6.6-1.5,11.1-1.5,11.1Z" transform="translate(-237.87)"/><path d="M279.87,86s13.7,1.3,23.4-2.1v.8s-12.4,3.7-23.4,1.9Z" transform="translate(-237.87)"/><path d="M279.87,87.83s13.7,1.3,23.4-2.1v.8s-12.4,3.7-23.4,1.9v-.6Z" transform="translate(-237.87)"/><path d="M279.87,89.43s13.7,1.3,23.4-2.1v.8s-12.4,3.7-23.4,1.9v-.6Z" transform="translate(-237.87)"/><path d="M279.87,91.43s13.7,1.3,23.4-2.2V90s-12.4,3.7-23.4,1.9Z" transform="translate(-237.87)"/><path class="n" d="M297.67,96.73l7.6-17.3s0-1.7,2.1-1.3h20.4s1.7-.6.7,1.3-8.2,17.3-8.2,17.3Z" transform="translate(-237.87)"/><path d="M283.27,113.43l26.3-23.5s8.5-2.9,11.2,0,23.3,31.1,23.3,34.1c0,0-12.2,6.1-12.5,5.8s-17.8-24.5-17.8-24.5l-8.7,10.4Z" transform="translate(-237.87)"/><path class="f" d="M80.69,112.43l-6.7,2.9-6.8-9.3,6.9-3Z"/><path class="f" d="M69.39,109.13l-4.3,1.2,3.1,5.5,4.7-2Z"/><path class="i" d="M302.67,108.53l-7.8,5.1,12.5,18.4s6.4-1.5-1.8-13.6l1.8-1.5Z" transform="translate(-237.87)"/><path class="f" d="M288.77,98l4,5.8a.35.35,0,0,0,.5.1h0l6.3-4.7c.1-.1.1-.1.1-.2.2-.8.3-6.1-2.3-4.5-5.2,3.1-2.3.1-.7-1.4.1-.1.2-.4,0-.5a.6.6,0,0,0-.4-.1c-1.3.3-3.7,1.5-7.6,5.1C288.77,97.63,288.67,97.83,288.77,98Z" transform="translate(-237.87)"/><path class="o" d="M288.77,98a26.7,26.7,0,0,0-13.2,3.6,75.84,75.84,0,0,1,13.2-3.6Z" transform="translate(-237.87)"/><path class="p" d="M41.99,86.03l.9,13.2-.9.4Z"/><path class="d" d="M299.37,52.13A13.558,13.558,0,0,1,300,55a3.53,3.53,0,0,0-1.4.3c-.3.2-.5.1-.5.7a.78.78,0,0,0,.3.7,2.38,2.38,0,0,0,1.1.6,1.6,1.6,0,0,0,1.3.9,1.42,1.42,0,0,1,.6.2,1.86,1.86,0,0,1-1.7,1.8h-.1a7.939,7.939,0,0,1-.6,2.2,4.07,4.07,0,0,1-2.2,1.9,3.76,3.76,0,0,1-2.1.1,7.09,7.09,0,0,0-.9,2.8,2.59,2.59,0,0,0,1.3,1.9,6.47,6.47,0,0,1-7,1.4l-1.7-.8c.3-1.5,2.6-6.7,1.5-10.9a1.18,1.18,0,0,1-1-.1,3.53,3.53,0,0,1-1.5-1.7,2.86,2.86,0,0,1,.6-2.2c.5.1,1-1,.8-2l6.6-4.7Z" transform="translate(-237.87)"/><ellipse class="d" cx="1.3" cy="2.3" rx="1.3" ry="2.3" transform="translate(53.186 56.189) rotate(-79.81)"/><path d="M295.77,55.73c-.4,1.7-4.6,1-4.3-.7s4.3-1,4.3.7c0,.1.2.1.2,0,.1-1.9-4.4-2.7-4.6-.8-.2,1.1,1.4,1.6,2.1,1.8s2.3.1,2.5-1C295.87,55.63,295.77,55.63,295.77,55.73Z" transform="translate(-237.87)"/><ellipse class="d" cx="1.3" cy="2.3" rx="1.3" ry="2.3" transform="translate(58.311 56.977) rotate(-79.81)"/><path d="M300.87,56.33c-.4,1.7-4.6.9-4.3-.7s4.4-1,4.3.7c0,.1.2.1.2,0,.1-1.9-4.4-2.7-4.6-.8-.2,1.1,1.4,1.6,2.1,1.8s2.3.1,2.5-1C301,56.23,300.87,56.23,300.87,56.33Z" transform="translate(-237.87)"/><path d="M297.87,57.13s.9-2.9,3-1.1C300.87,55.93,301.27,57.83,297.87,57.13Z" transform="translate(-237.87)"/><path d="M292.87,56.53s.9-2.9,3-1.1C295.77,55.33,296.17,57.23,292.87,56.53Z" transform="translate(-237.87)"/><path d="M289.67,46.63a6.9,6.9,0,0,1,4.4-1.5,16.67,16.67,0,0,1,5,.2,6.29,6.29,0,0,1,3.8,2.3,3.19,3.19,0,0,1-.5,4,6.51,6.51,0,0,1-5.1,1.7,15.16,15.16,0,0,1-5-1.5V52c-.7.9-1.8,1.6-1.8,2.7a4,4,0,0,1-.3,1.5c-.2.4.2,2.4-.3,2.4s-.5-.9-.6-1.3a3.81,3.81,0,0,0-.9-1.3,2.52,2.52,0,0,0-2-.9l-.3-2.2c0-1.6.7-2.7.8-4.3a2.46,2.46,0,0,1,.5-1.5,1.67,1.67,0,0,1,2.2,0" transform="translate(-237.87)"/><path d="M299.27,52.33a7.71,7.71,0,0,1,.7,2.6.1.1,0,0,0,.1.1c.1,0,.1,0,.1-.1h0a9,9,0,0,0-.7-2.7S299.27,52.23,299.27,52.33Z" transform="translate(-237.87)"/><path d="M299.57,60.23a4.07,4.07,0,0,1-1.9,3.5,4.48,4.48,0,0,1-4.2.2.1.1,0,0,0-.1.1,4.89,4.89,0,0,0,4.4-.2,3.84,3.84,0,0,0,1.8-3.6Z" transform="translate(-237.87)"/><path d="M299.47,57.43c.3.3.4.6.7.7s1.1-.1,1,.6A2,2,0,0,1,300,60a1.76,1.76,0,0,1-1.9-.7c-.1-.1-.2,0-.1.1a1.9,1.9,0,0,0,2.6.4l.3-.3c.2-.3.6-1,.4-1.3-.1-.1-.1-.1-.2-.1-.3-.1-.6,0-1-.1s-.5-.4-.7-.7c-.1-.1-.3.2-.3.2Z" transform="translate(-237.87)"/><path class="d" d="M297,60.93a1.67,1.67,0,0,1-1.1.9,1.49,1.49,0,0,1-1.4-.4,1.24,1.24,0,0,1-.3-1.4h0a19.749,19.749,0,0,1,2.6.8" transform="translate(-237.87)"/><path d="M296.87,60.93a1.69,1.69,0,0,1-1.4.9,1.32,1.32,0,0,1-1.4-1.2v-.1c0-.4,0-.4.4-.3s.5.1.8.2a9.83,9.83,0,0,1,1.6.5c.1,0,.1-.1,0,0a9.53,9.53,0,0,0-2.7-.9h-.1a1.51,1.51,0,0,0,.7,1.9h0a1.88,1.88,0,0,0,2.1-1c.1,0,0-.1,0,0Z" transform="translate(-237.87)"/><path d="M294.57,64.43a4.52,4.52,0,0,0-.7,2.8c.1,1.5.4.9,1.1,1.9.1.1.1,0,.1-.1-.7-1-1-.3-1.1-1.8a5.55,5.55,0,0,1,.7-2.8S294.57,64.33,294.57,64.43Z" transform="translate(-237.87)"/><path d="M288.47,56c-.8-1.5-2.6-1.6-3.2-.1s1,3.6,2.6,2.9c.1,0,0-.2,0-.1-1.5.7-2.9-1.2-2.5-2.5.4-1.5,2.3-1.3,3.1.2,0,.1-.1-.8-.1-.8Z" transform="translate(-237.87)"/><path d="M287.87,58.83a17.27,17.27,0,0,1-.3,6.4c-.4,1.4-1,2.6-1.3,4,0,.1.1.1.2,0,.3-1.4.9-2.7,1.3-4.1a16.74,16.74,0,0,0,.3-6.3c-.1-.1-.3-.1-.2,0Z" transform="translate(-237.87)"/><path d="M287.47,55.93a1.73,1.73,0,0,0-.6,2.2c0,.1.2,0,.1,0a1.55,1.55,0,0,1,.5-2C287.67,56.03,287.57,55.93,287.47,55.93Z" transform="translate(-237.87)"/><path d="M287.07,57c.2.2.4.3.6.5h.1v-.1h0c-.2-.2-.4-.3-.6-.5C287.17,56.8,287.07,56.9,287.07,57Z" transform="translate(-237.87)"/><path d="M295.17,69c-2.2,2.2-5.9,2.4-8.8.6-.1,0-.1.1,0,.1,3.3,2.2,7.1,1.4,8.8-.5C295.27,69.2,295.27,69.1,295.17,69Z" transform="translate(-237.87)"/><path d="M293.17,63.83a2.19,2.19,0,0,0-.5-.3c-.3-.1-.6.4-.4.7a.94.94,0,0,0,.9.5c.5-.1.8-.2.9-.1a2.77,2.77,0,0,1,.1.9s.3-1.1.6-1.3Z" transform="translate(-237.87)"/><path class="i" d="M337,131.23l6.1,7.1,16.5-14.8s-2.3-6.1-13.2,3.6l-1.7-1.6Z" transform="translate(-237.87)"/><path class="q" d="M104.29,125.03l1.5,1.3-5.5,4-2.1-2.7Z"/><path class="r" d="M286.37,69.73" transform="translate(-237.87)"/><path class="q" d="M286.37,69.73l-8.6.3a3,3,0,0,0-3.2,1.7,25.837,25.837,0,0,0-1.8,5.4" transform="translate(-237.87)"/><path class="i" d="M56.49,34.93l-.8,3.3-3.1-3.3Z"/><path class="q" d="M305.57,51" transform="translate(-237.87)"/><path class="i" d="M280,39.93H260.9a3.36,3.36,0,0,0-2.9,3.4c-.1,3.1,1.9,4.5,2.9,4.3H280a3.64,3.64,0,0,0,2.9-3.8,3.64,3.64,0,0,0-2.9-3.9Z" transform="translate(-237.87)"/><path class="i" d="M26.19,47.63l.8,3.3,3.1-3.3Z"/><rect class="i" width="17.9" height="12.7" transform="translate(137.363 42.386) rotate(-86.93)"/><circle class="b" cx="0.8" cy="0.8" r="0.8" transform="translate(143.79 25.73)"/><rect width="0.9" height="10.6" transform="translate(139.075 29.191) rotate(-86.93)"/><rect width="0.9" height="10.6" transform="translate(138.966 31.092) rotate(-86.93)"/><rect width="0.9" height="10.6" transform="translate(138.973 33.11) rotate(-86.93)"/><path d="M158.29,43.03l-10.7,1.7-2.1-14.7,10.6-1.7Z"/><ellipse class="d" cx="0.6" cy="0.7" rx="0.6" ry="0.7" transform="translate(150.39 30.13)"/><path class="d" d="M155.19,32.93l-7.5,1.2-.1-.9,7.4-1.2Z"/><path class="d" d="M155.49,34.73l-7.5,1.2-.2-.9,7.6-1.2Z"/><path class="d" d="M152.39,40.13l-3.6.6-.2-.9,3.7-.6Z"/><rect class="i" width="12.7" height="12.7" transform="translate(15.362 71.018) rotate(-76.1)"/><circle cx="0.8" cy="0.8" r="0.8" transform="translate(23.39 61.13)"/><line class="s" x2="8.9" y2="2.5" transform="translate(18.99 62.93)"/><line class="s" x2="8.9" y2="2.5" transform="translate(18.59 64.83)"/><line class="s" x2="5.5" y2="1.6" transform="translate(17.59 68.03)"/><path class="i" d="M296.17,27.73a3.24,3.24,0,0,1,3.1,3.1s-.2,3.9-3.1,4h-20.9s-3.2-.7-2.9-3.8a3.22,3.22,0,0,1,3.1-3.2h18.1l1.1-5.5-9.3-.2s-3.1-1.3-2.8-3.7a3.79,3.79,0,0,1,2.8-3h16.9s2.4,1.3,2.4,3.7a3,3,0,0,1-1.8,3l-6.7.1-1.2,5.5Z" transform="translate(-237.87)"/><line class="t" x2="12.1" transform="translate(48.79 18.23)"/><line class="t" x2="6" transform="translate(48.99 19.53)"/><line class="t" x2="3.5" transform="translate(57.29 19.53)"/><line class="t" x2="13.5" transform="translate(37.89 29.53)"/><line class="t" x2="3.8" transform="translate(37.89 30.83)"/><line class="t" x2="12" transform="translate(44.59 30.83)"/><line class="t" x2="17.8" transform="translate(38.39 32.53)"/><circle class="q" cx="1.1" cy="1.1" r="1.1" transform="translate(30.29 42.73)"/><circle class="q" cx="1.2" cy="1.2" r="1.2" transform="translate(34.79 42.63)"/><circle class="q" cx="1.1" cy="1.1" r="1.1" transform="translate(39.39 42.73)"/><path class="u" d="M330.37,36.43s-4-18.4,11.2-22.1c0,0,6.2.5,3.7,5.5s-10.4-8.3,9-7.3" transform="translate(-237.87)"/><path class="a" d="M115.89,6.53l16.2-1-9.3,10.4-1.1-4.9,7.6-4.3-7.8,3Z"/></g></svg>