<svg xmlns="http://www.w3.org/2000/svg" width="8.319" height="17.852" viewBox="0 0 8.319 17.852">
    <g id="prefix__facebook-logo">
        <path id="prefix__Path_93" d="M131.155 5.849V4.311a3.392 3.392 0 0 1 .032-.536 1.041 1.041 0 0 1 .146-.374.6.6 0 0 1 .368-.255 2.622 2.622 0 0 1 .677-.07h1.538V0h-2.459a4 4 0 0 0-3.066 1.013 4.266 4.266 0 0 0-.93 2.987v1.849h-1.842v3.077h1.842v8.926h3.694V8.926h2.459l.325-3.077z" data-name="Path 93" transform="translate(-125.619)" style="fill:#3c3c47"/>
    </g>
</svg>
