<svg xmlns="http://www.w3.org/2000/svg" id="prefix__Group_2400" width="11.727" height="11.726" data-name="Group 2400" viewBox="0 0 11.727 11.726">
    <g id="prefix__Group_2273" data-name="Group 2273">
        <g id="prefix__Group_2272" data-name="Group 2272">
            <path id="prefix__Path_49" d="M12.419 10.064l-2.373-1.583a.693.693 0 00-.928.151l-.691.889a.3.3 0 01-.379.08l-.132-.073A7.948 7.948 0 015.845 7.9a7.98 7.98 0 01-1.627-2.07l-.072-.13a.3.3 0 01.078-.38l.888-.691a.693.693 0 00.151-.929L3.68 1.326a.689.689 0 00-.929-.209l-.993.6a1.4 1.4 0 00-.638.829c-.357 1.3-.089 3.55 3.222 6.861 2.634 2.633 4.594 3.342 5.942 3.342a3.462 3.462 0 00.918-.12 1.4 1.4 0 00.829-.638l.6-.992a.689.689 0 00-.212-.935z" data-name="Path 49" transform="translate(-1 -1.018)" style="fill:#3c3c47"/>
        </g>
    </g>
</svg>
