<svg xmlns="http://www.w3.org/2000/svg" width="319.913" height="245.436" viewBox="0 0 319.913 245.436">
    <defs>
        <style>
            .prefix__cls-1,.prefix__cls-4{fill:#fff}.prefix__cls-2{fill:#df3744}.prefix__cls-3{fill:#dadcdd}.prefix__cls-4{stroke:#000;stroke-miterlimit:10;stroke-width:.534px}
        </style>
    </defs>
    <g id="prefix__Group_7840" data-name="Group 7840" transform="translate(-822.087 -2127.872)">
        <path id="prefix__XMLID_2903_" d="M0 0H233.471V64.339H0z" class="prefix__cls-1" transform="translate(822.087 2136.217)"/>
        <path id="prefix__XMLID_2600_" d="M540.384 805.135s-1.011 5.757-.622 7.7l4.279 4.668a1.964 1.964 0 0 1-.778 1.167c-.622.389-4.357 1.556-5.057 2.178s-1.867 2.334-1.167 3.112a4.523 4.523 0 0 0 3.267 1.556s1.4 3.968 2.334 5.057c.934 1.012 2.723 3.19 4.746 3.423a9.051 9.051 0 0 0 2.645.078s1.867 1.4-.156 6.924l7.08 5.213.778.156 5.679-1.712 9.336-3.89s-3.812-16.338-3.19-19.294c0 0 4.123-1.556 5.213-2.956 1.011-1.4 2.256-3.5 2.023-5.135s-.934-4.59-3.734-5.6-9.569-7.08-9.569-7.08z" class="prefix__cls-2" transform="translate(519.998 1412.07)"/>
        <ellipse id="prefix__XMLID_2416_" cx="48.079" cy="13.77" rx="48.079" ry="13.77" transform="rotate(8.615 -14964.332 7985.954)"/>
        <path id="prefix__XMLID_2599_" d="M544.487 940.694s-.778 19.527-.156 22.484c0 0 5.679 3.968 16.26 2.023 0 0-.233-20.694.934-25.44 1.244-4.747-17.038.933-17.038.933z" class="prefix__cls-1" transform="translate(518.384 1381.617)"/>
        <path id="prefix__XMLID_2602_" d="M627.127 896.964c-.545-2.023-4.357-9.491-4.357-9.491s-4.9-7.858-8.247-11.9a115.812 115.812 0 0 0-10.892-11.2 64.732 64.732 0 0 0-10.5-7.157 74.752 74.752 0 0 0-11.592-4.512c-2.023-.545-2.334-.311-2.334-.311s-4.123 14.393-5.057 18.438-5.212 27-5.757 30.5-1.4 14.937-2.256 20.383c-.934 5.835-.934 29.486-.934 29.486s2.411 1.323 9.024 2.412a40.762 40.762 0 0 0 13.848-.622c.156.156.233.311.389.467 0 0-3.112-5.212-3.812-9.336a23.787 23.787 0 0 1 .622-8.869s.389-1.634 2.1-9.491c1.712-7.935 9.258-28.552 9.258-28.552s1.712 1.089 5.212 7.468 2.568 14.081 1.789 18.361a56.936 56.936 0 0 1-3.731 11.502 130.086 130.086 0 0 1-7.079 13.77 32.208 32.208 0 0 1-4.512 5.135 18.363 18.363 0 0 0 4.123 3.5s9.958-9.725 14.859-14.937 12.059-16.1 15.482-21.628a39.044 39.044 0 0 0 4.979-13.926c.775-2.488-.08-7.467-.625-9.49z" class="prefix__cls-2" transform="translate(513.697 1400.606)"/>
        <path id="prefix__XMLID_2448_" d="M444.6 965.509l.467 6.379 3.034-.389a13.3 13.3 0 0 0 8.246 2.178 10.154 10.154 0 0 0 6.924-3.268 1.16 1.16 0 0 0 .856.389 16.139 16.139 0 0 0 2.567-.7s-1.945-5.99-1.167-7.78c0 0-3.345-1.478-5.679-1.322a20.93 20.93 0 0 0-5.135 1.245 20.377 20.377 0 0 0-2.256 0c-.7.156-3.812 1.167-3.812 1.167l-2.879 1.945z" class="prefix__cls-2" transform="translate(540.474 1376.484)"/>
        <path id="prefix__XMLID_2842_" d="M600.99 973.5s-4.512 6.535-5.29 6.924c0 0 2.256 3.034 3.657 3.423l7-6.613c-.077 0-5.289-2.878-5.367-3.734z" class="prefix__cls-1" transform="translate(506.926 1373.706)"/>
        <ellipse id="prefix__XMLID_2381_" cx="48.079" cy="13.77" rx="48.079" ry="13.77" transform="translate(875.456 2340.282)"/>
        <path id="prefix__XMLID_2324_" d="M471.619 750.169H317.034a4.432 4.432 0 0 1-4.434-4.434 4.483 4.483 0 0 1 4.434-4.435h154.585a4.432 4.432 0 0 1 4.434 4.435 4.536 4.536 0 0 1-4.434 4.434z" class="prefix__cls-3" transform="translate(569.78 1425.259)"/>
        <path id="prefix__XMLID_2359_" d="M471.619 789.969H317.034a4.432 4.432 0 0 1-4.434-4.434 4.483 4.483 0 0 1 4.434-4.435h154.585a4.432 4.432 0 0 1 4.434 4.435 4.483 4.483 0 0 1-4.434 4.434z" class="prefix__cls-3" transform="translate(569.78 1416.422)"/>
        <path id="prefix__XMLID_2366_" d="M471.619 829.869H317.034a4.432 4.432 0 0 1-4.434-4.434 4.483 4.483 0 0 1 4.434-4.435h154.585a4.483 4.483 0 0 1 4.434 4.435 4.536 4.536 0 0 1-4.434 4.434z" class="prefix__cls-3" transform="translate(569.78 1407.564)"/>
        <path id="prefix__XMLID_2373_" d="M471.619 869.669H317.034a4.432 4.432 0 0 1-4.434-4.434 4.483 4.483 0 0 1 4.434-4.434h154.585a4.432 4.432 0 0 1 4.434 4.434 4.536 4.536 0 0 1-4.434 4.434z" class="prefix__cls-3" transform="translate(569.78 1398.728)"/>
        <circle id="prefix__XMLID_2080_" cx="10.736" cy="10.736" r="10.736" class="prefix__cls-4" transform="translate(846.671 2161.736)"/>
        <circle id="prefix__XMLID_2335_" cx="10.736" cy="10.736" r="10.736" class="prefix__cls-4" transform="translate(846.671 2191.298)"/>
        <circle id="prefix__XMLID_2341_" cx="10.736" cy="10.736" r="10.736" class="prefix__cls-4" transform="translate(846.671 2220.862)"/>
        <circle id="prefix__XMLID_2347_" cx="10.736" cy="10.736" r="10.736" class="prefix__cls-4" transform="translate(846.671 2250.426)"/>
        <path id="prefix__XMLID_2974_" d="M275.311 742.613l4.9 5.679-1.167-.078L303.4 733.2l-23.339 16.493-.622.467-.622-.622-5.212-5.29z" class="prefix__cls-2" transform="translate(578.439 1427.057)"/>
        <path id="prefix__XMLID_2968_" d="M275.311 780.613l4.9 5.679-1.167-.078L303.4 771.2l-23.339 16.493-.622.467-.622-.622-5.212-5.29z" class="prefix__cls-2" transform="translate(578.439 1418.621)"/>
        <path id="prefix__XMLID_2949_" d="M275.311 818.613l4.9 5.679-1.167-.078L303.4 809.2l-23.339 16.493-.622.467-.622-.622-5.212-5.29z" class="prefix__cls-2" transform="translate(578.439 1410.183)"/>
        <path id="prefix__XMLID_2767_" d="M275.311 856.614l4.9 5.679-1.167-.078L303.4 847.2l-23.339 16.493-.622.467-.622-.622-5.212-5.29z" class="prefix__cls-2" transform="translate(578.439 1401.746)"/>
        <path id="prefix__XMLID_2435_" d="M377.1 878.7s13.3 27.774 14 53.758c.7 18.127.622 19.527.934 20.772s2.8 8.713 9.025 11.2c0 0 0-12.992-1.167-15.637s0-8.947 0-8.947-.856-10.658-1.945-15.871c0 0 7.157 1.245 11.825.622s12.681-2.178 17.816-6.3c8.558-6.146 8.713-9.1 10.892-10.892 2.256-1.79 4.823-3.034 5.135-3.346s.078-1.478-1.167-2.334-4.2-2.412-4.2-2.412-6.068 5.213-8.558 6.613-8.713 4.357-11.592 4.668c-2.956.311-7.546.389-9.88-.233s-6.457-2.879-7.935-5.135a23.975 23.975 0 0 1-2.8-7.78c-.467-2.412-2.1-9.025-4.59-11.436s-4.123-4.512-7.858-5.913a25.561 25.561 0 0 0-7.935-1.397z" class="prefix__cls-2" transform="translate(555.46 1394.753)"/>
        <path id="prefix__XMLID_2597_" d="M536.215 852.9s-12.37-.311-26.607 22.095c-5.057 6.691-12.214 26.062-12.214 26.062s-6.224 14.937-8.324 19.216-5.757 9.958-5.835 10.114-5.212 6.69-7.235 6.924c0 0 .934 7 1.867 8.013 0 0 22.873-4.9 32.131-17.66 0 0-3.19 11.359-5.913 15.482 0 0 5.057 5.835 11.9 7.469s10.5.934 13.459.234c0 0-.622-19.527-.311-27.7s2.023-35.32 3.5-43.178c1.326-7.777 1.638-12.679 3.582-27.071z" class="prefix__cls-2" transform="translate(533.502 1400.482)"/>
        <path id="prefix__XMLID_2452_" d="M459.523 879.1s1.711 2.8.545 8.558c-.467 2.178-2.1 9.8-3.968 11.747l3.812 2.334 2.412-4.046s2.645-.389 3.268-1.634a6.193 6.193 0 0 0 1.634-.311 1.382 1.382 0 0 0 .7-1.167 4.151 4.151 0 0 0-.545-.778l.934-.7.233-.7-.7-1.011.856-.933.233-1.089-1.089-.544.078-.545-.156-1.789-.856-.7-1.556-.156-2.334.467-.311-2.412c-.078-.234-.623-4.591-3.19-4.591z" class="prefix__cls-2" transform="translate(537.92 1394.665)"/>
        <path id="prefix__XMLID_2433_" d="M347.3 881.722s3.345 1.634 6.768 8.48l5.835-2.723s.622 2.412 3.968 3.734l3.112 12.681 3.5 6.613 3.817 7.393 4.045 6.535-4.745-15.094-3.89-9.958-3.267-7.78s2.723-2.179 2.412-4.435c0 0 4.279 1.167 5.679 1.633l-3.5-8.4a4.033 4.033 0 0 1-1.789 1.556 15.906 15.906 0 0 1-5.757 1.089c-3.118.077-12.532-.312-16.188-1.324z" class="prefix__cls-2" transform="translate(562.076 1394.375)"/>
        <path id="prefix__XMLID_66_" d="M246 932.95V698h241.173v66.906" transform="translate(584.567 1434.872)" style="fill:none;stroke:#df3744;stroke-width:10px;stroke-miterlimit:10"/>
        <path id="prefix__XMLID_2440_" d="M359.679 954.7s.778 12.292-.078 15.949-2.412 7.391-3.5 8.48a42.408 42.408 0 0 0 4.59.856c3.19.467 11.436.778 16.8-.622s11.9-3.968 11.9-3.968a25.194 25.194 0 0 1-2.023-4.9c-.156-1.323-.233-3.034-.233-3.034s-10.969-3.734-14-5.213c-2.954-1.558-13.456-7.548-13.456-7.548z" class="prefix__cls-1" transform="translate(560.122 1377.88)"/>
        <path id="prefix__XMLID_2434_" d="M339.861 881.3a16.544 16.544 0 0 0-14.315 10.425c-3.112 7.546-3.968 25.6-3.19 34.465 1.011 11.2-2.023 36.409-3.656 39.443 0 0 11.281 4.123 16.649 3.5 5.679-.467 10.892-3.345 12.759-6.924s3.5-6.768 3.579-11.436-.389-12.992-.389-12.992 6.691 4.668 9.8 6.224c3.112 1.634 13.848 7.157 24.9 8.791s19.916 2.334 28.085 1.634l-.233-6.613s-7.391-.389-9.336-.856-12.136-2.879-15.871-5.212c-3.734-2.412-7.935-5.6-10.425-8.713a96.955 96.955 0 0 1-11.436-17.349c-4.746-8.947-10.269-18.36-12.214-19.605 0 0-4.979-4.59-6.691-5.524-.077 0-3.815-7.391-8.016-9.258z" class="prefix__cls-2" transform="translate(568.426 1394.175)"/>
        <path id="prefix__XMLID_2410_" d="M370.776 827.079a46.732 46.732 0 0 1 2.334 5.446 19.642 19.642 0 0 0-3.11 1.245c-.467.389-.856.467-.934 1.556-.078 1.167-.078 1.167.856 1.634a14.007 14.007 0 0 0 3.034.778s2.256 1.323 3.267 1.167a2.2 2.2 0 0 1 1.478.156 3.6 3.6 0 0 1-.545 2.49 14.367 14.367 0 0 1-2.645 2.1l-.156.156s-.233 3.812-.856 4.823a8.434 8.434 0 0 1-4.59 4.279 12.323 12.323 0 0 1-4.668 1.167 8.886 8.886 0 0 0-.934 5.134c.467 2.568 4.746 8.714 4.746 8.714s-3.19 2.879-15.56 1.478c-8.091-.933-8.247-1.867-8.247-1.867s5.212-15.015 2.023-22.173a3.154 3.154 0 0 1-2.412.311c-1.245-.467-3.112-1.478-3.579-2.723-.545-1.167-.7-3.656.389-4.9s1.245-4.512 1.245-4.512l13.46-12.138z" class="prefix__cls-2" transform="translate(563.729 1407.474)"/>
        <path id="prefix__XMLID_2812_" d="M379.185 828.76a21.039 21.039 0 0 1 2.412 5.6.36.36 0 0 0 .7-.156 22.238 22.238 0 0 0-2.49-5.757c-.233-.389-.856-.078-.622.311z" transform="translate(555.008 1405.948)"/>
        <path id="prefix__XMLID_2805_" d="M379.812 850.217c.7 7.547-7 11.436-13.537 9.569-.467-.155-.622.545-.156.7 6.924 2.023 15.171-2.256 14.393-10.269 0-.389-.778-.389-.7 0z" transform="translate(557.96 1401.14)"/>
        <path id="prefix__XMLID_2797_" d="M376.978 836.41c.389-3.968 3.5-9.881 8.247-6.924 4.2 2.567 2.723 8.091.467 11.436-.233.389.389.778.622.389 2.49-3.812 3.812-10.58-1.556-12.837-5.135-2.1-8.169 3.812-8.558 8.013 0 .389.778.389.778-.078z" transform="translate(555.66 1406.002)"/>
        <path id="prefix__XMLID_2788_" d="M381.307 842.714a4.927 4.927 0 0 0 2.49 1.167c.467.078 2.1-.234 2.334.155.311.467-.467 1.867-.778 2.256a4.776 4.776 0 0 1-1.478 1.323 4.172 4.172 0 0 1-4.746-.934c-.311-.311-.856.156-.467.467a4.705 4.705 0 0 0 7.313-.544c.467-.7 1.323-2.49.622-3.268-.156-.233-.467-.233-.7-.311-.622-.078-1.323.156-1.945.078a4.414 4.414 0 0 1-2.1-1.012c-.389-.155-.934.311-.545.623z" transform="translate(555.143 1402.886)"/>
        <path id="prefix__XMLID_2920_" d="M374.034 854.822a4.558 4.558 0 0 1-2.49 2.334 3.662 3.662 0 0 1-3.345-.467 2.8 2.8 0 0 1-.856-3.19h.155c2.178.311 4.279.7 6.38 1.089" class="prefix__cls-1" transform="translate(557.67 1400.348)"/>
        <path id="prefix__XMLID_2781_" d="M373.618 854.556a3.954 3.954 0 0 1-3.345 2.334 2.806 2.806 0 0 1-2.878-2.49c.233-.389.233-.622-.078-.7a3.9 3.9 0 0 1 .934.156c.467.078 1.011.155 1.478.233 1.323.233 2.645.466 3.968.778.467.078.622-.622.156-.7a32.584 32.584 0 0 0-6.692-1.167c-.156 0-.311.078-.311.234a3.26 3.26 0 0 0 2.334 4.2 4.5 4.5 0 0 0 4.979-2.567c.311-.389-.311-.7-.545-.311z" transform="translate(557.775 1400.458)"/>
        <path id="prefix__XMLID_2770_" d="M364.017 832.284c8.324-2.645 12.136 10.114 4.9 13.615-8.247 4.045-12.914-10.814-4.434-13.848.467-.156.233-.856-.156-.7a7.9 7.9 0 0 0-4.824 9.8c1.089 4.124 4.979 7.235 9.258 5.6 8.636-3.345 4.512-18.2-4.823-15.17-.544.156-.389.856.078.7z" transform="translate(559.441 1405.304)"/>
        <path id="prefix__XMLID_2769_" d="M370.685 863.54a9.457 9.457 0 0 0-.934 5.99c.622 3.112 2.8 5.757 4.746 8.091.311.389.778-.156.467-.467-3.345-3.968-5.991-8.091-3.657-13.226.233-.467-.389-.856-.622-.389z" transform="translate(557.13 1398.165)"/>
        <path id="prefix__XMLID_2765_" d="M327.02 812.052c.311.078.622.156.856.233a19.309 19.309 0 0 1 12.214-11.514l-.078-.311c-1.245-3.034-2.8-6.068-5.6-7.858a9.875 9.875 0 0 0-11.125.7 10.793 10.793 0 0 0-3.656 10.658 10.972 10.972 0 0 0 7.391 8.091" transform="translate(568.275 1414.177)"/>
        <path id="prefix__XMLID_2764_" d="M361.2 803.995c7.235-.311 13.848 4.59 14.937 11.825.622 3.968-1.089 8.635-5.757 8.635-3.579 0-7.624-2.1-10.736-3.812-.389-.233-.778.389-.389.622 3.423 1.867 8.246 4.435 12.214 3.812 3.656-.622 5.524-4.279 5.446-7.7-.155-8.324-7.78-14.471-15.793-14.082-.311 0-.311.7.078.7z" transform="translate(559.458 1411.498)"/>
        <path id="prefix__XMLID_2757_" d="M357.521 825.568c-2.956-.778-3.423 2.645-3.423 4.668a31.455 31.455 0 0 0 .7 5.991 6.461 6.461 0 0 1 .233 2.1c-.078 1.011-1.011 2.412-2.023 2.412a3.966 3.966 0 0 1-2.8-1.711.367.367 0 0 0-.622.389c1.089 2.023 4.512 3.034 5.757.7.856-1.556.311-3.345 0-4.979s-1.712-9.8 2.023-8.791c.389 0 .545-.7.156-.778z" transform="translate(561.58 1406.573)"/>
        <path id="prefix__XMLID_2756_" d="M347.852 842.189a4.651 4.651 0 0 0-8.4 1.323c-1.089 3.656 3.112 8.558 6.924 6.457a.367.367 0 0 0-.389-.622c-3.268 1.867-6.846-2.645-5.913-5.679a3.9 3.9 0 0 1 7.08-1.089c.311.311.934 0 .7-.389z" transform="translate(563.858 1403.335)"/>
        <path id="prefix__XMLID_2749_" d="M347.365 852.582c.622 4.512 1.089 9.18.156 13.692-.622 2.879-1.634 5.6-2.023 8.48-.078.467.622.622.7.155.467-3.112 1.634-6.068 2.178-9.1.856-4.434.389-9.024-.233-13.381-.156-.467-.778-.234-.778.156z" transform="translate(562.478 1400.644)"/>
        <path id="prefix__XMLID_2742_" d="M354.765 803.2a27.175 27.175 0 0 0-20.15 10.658c-4.9 6.69-2.879 16.493 3.112 21.783.311.311.856-.234.467-.467a17.15 17.15 0 0 1-5.368-9.569 14.289 14.289 0 0 1 3.034-12.292 26.4 26.4 0 0 1 18.749-9.336c.622-.078.622-.778.156-.778z" transform="translate(565.503 1411.515)"/>
        <path id="prefix__XMLID_2735_" d="M345.622 842.976a3.943 3.943 0 0 0-1.089 5.29c.233.389.856 0 .622-.389a3.136 3.136 0 0 1 .856-4.357.335.335 0 1 0-.389-.544z" transform="translate(562.821 1402.704)"/>
        <path id="prefix__XMLID_2728_" d="M344.954 846.607c.545.311 1.011.7 1.556 1.011.389.233.7-.389.389-.622-.545-.311-1.011-.7-1.556-1.011-.389-.234-.778.389-.389.622z" transform="translate(562.633 1402.028)"/>
        <ellipse id="prefix__XMLID_2154_" cx="4.357" cy="2.412" class="prefix__cls-1" rx="4.357" ry="2.412" transform="rotate(173.085 397.675 1150.752)"/>
        <path id="prefix__XMLID_2721_" d="M386.23 838.517a6.908 6.908 0 0 1-8.247.856c-.156.233-.233.389-.389.622l.078.078a.362.362 0 0 0 .467-.545c-1.867-2.178 1.945-3.034 3.19-3.267 1.789-.311 4.823-.233 4.746 2.334a.35.35 0 0 0 .7 0c.078-3.19-3.579-3.5-5.99-2.956-2.1.389-5.368 1.945-3.19 4.434.155-.156.311-.389.467-.545l-.078-.078c-.389-.233-.778.389-.389.622a7.528 7.528 0 0 0 9.1-1.011.359.359 0 1 0-.467-.544z" transform="translate(555.51 1404.362)"/>
        <path id="prefix__XMLID_2145_" d="M385 836.1s-3.812 1.711-1.167 4.59l2.412-.622 1.323-1.245-.233-1.478-1.167-.934z" transform="translate(554.172 1404.212)"/>
        <path id="prefix__XMLID_2714_" d="M372.33 839.517a6.908 6.908 0 0 1-8.247.856c-.156.233-.233.389-.389.623l.078.078a.362.362 0 0 0 .467-.545c-1.867-2.179 1.945-3.034 3.19-3.268 1.789-.311 4.823-.234 4.746 2.334a.35.35 0 0 0 .7 0c.078-3.19-3.579-3.5-5.99-2.956-2.1.389-5.368 1.945-3.19 4.435.156-.155.311-.389.467-.545l-.078-.078c-.389-.234-.778.389-.389.622a7.528 7.528 0 0 0 9.1-1.011.359.359 0 1 0-.467-.544z" transform="translate(558.596 1404.14)"/>
        <path id="prefix__XMLID_2134_" d="M371.1 837.1s-3.812 1.712-1.167 4.59l2.412-.622 1.322-1.245-.233-1.478-1.167-.934z" transform="translate(557.258 1403.99)"/>
        <path id="prefix__XMLID_2112_" d="M354.08 803.664a14.184 14.184 0 0 1 5.679.389c2.49.856 7.08 3.812 8.48 5.679s2.723 6.691 2.178 9.1c-.545 2.49-2.023 4.979-3.657 5.446a15.509 15.509 0 0 1-7.235-.545c-1.867-.7-5.212-2.723-6.068-2.723-.778 0-1.323-.078-1.867.467-.622.544-1.167 2.489-1.089 4.2s.622 3.423.7 5.757c.156 2.334-.156 3.812-.7 4.279a2.859 2.859 0 0 1-3.5-.311c-1.089-1.089-2.956-3.579-4.823-3.112a5.91 5.91 0 0 0-3.968 2.956 11.056 11.056 0 0 1-3.579-3.812c-1.634-2.723-3.345-9.958-1.634-13.459a27.02 27.02 0 0 1 10.347-11.047 30.114 30.114 0 0 1 10.736-3.264z" transform="translate(565.41 1411.441)"/>
        <path id="prefix__XMLID_2707_" d="M373.523 878.879c.622-.156 1.634-.078 1.945.623s-.856 1.167-1.323 1.4a12.6 12.6 0 0 1-3.345.934c-.467 0-.467.778 0 .7a10.892 10.892 0 0 0 3.034-.778c.856-.311 2.023-.7 2.412-1.556.7-1.634-1.711-2.334-2.8-2.023-.545.156-.389.778.078.7z" transform="translate(556.936 1394.883)"/>
        <path id="prefix__XMLID_2700_" d="M365.269 882.454a57.435 57.435 0 0 1-19.294-1.556c-.467-.078-.622.622-.156.7a56.832 56.832 0 0 0 19.527 1.556c.311 0 .311-.778-.078-.7z" transform="translate(562.468 1394.266)"/>
        <path id="prefix__XMLID_2682_" d="M540.644 807.46a18.827 18.827 0 0 0-.389 6.924c0 .233.467.233.389 0a20.223 20.223 0 0 1 .389-6.846c.078-.233-.311-.311-.389-.078z" transform="translate(519.271 1410.6)"/>
        <path id="prefix__XMLID_2644_" d="M568.894 783.432a3.416 3.416 0 0 1 5.29-.078c.934 1.245.856 2.956.7 4.512-.467 4.9-1.089 9.8-1.789 14.7l-.234.467a5 5 0 0 0-4.59 2.178 17.147 17.147 0 0 0-2.256 4.823c-.467 1.167-1.167 2.49-2.412 2.645a2.466 2.466 0 0 1-2.412-1.945 8.077 8.077 0 0 1 0-3.345c.389-3.034.389-6.224-.934-8.947v-.467c-4.123 1.945-8.324 3.89-12.837 4.2s-9.413-1.322-11.825-5.135c-2.178-3.5-1.712-8.324.545-11.747a17.137 17.137 0 0 1 10.114-6.691 34.763 34.763 0 0 1 12.37-.233c3.734.467 7.858 1.556 9.958 4.668" transform="translate(520.583 1417.124)"/>
        <path id="prefix__XMLID_2642_" d="M538.1 812.861a4.825 4.825 0 0 1 4.357-.544 1.251 1.251 0 0 1 .545.311.471.471 0 0 1 .078.622.9.9 0 0 1-.778.311h-2.568a1.646 1.646 0 0 1-1.634-.7z" transform="translate(519.714 1409.556)"/>
        <path id="prefix__XMLID_2632_" d="M552.8 813.091a1.9 1.9 0 0 1 1.4-1.245 4.306 4.306 0 0 1 3.657.545c.233.156.544.467.466.778s-.544.467-.933.389c-1.167-.078-2.334-.622-3.423-.311a1.827 1.827 0 0 1-.622.156.605.605 0 0 1-.544-.233z" transform="translate(516.451 1409.638)"/>
        <ellipse id="prefix__XMLID_2277_" cx="5.679" cy="2.567" class="prefix__cls-4" rx="5.679" ry="2.567" transform="rotate(.484 -262898.034 125907.309)"/>
        <ellipse id="prefix__XMLID_2276_" cx="2.645" cy="2.256" rx="2.645" ry="2.256" transform="rotate(-3.96 32744.999 -14146.89)"/>
        <ellipse id="prefix__XMLID_2274_" cx="5.679" cy="2.567" class="prefix__cls-4" rx="5.679" ry="2.567" transform="rotate(.484 -262836.528 127408.358)"/>
        <ellipse id="prefix__XMLID_2273_" cx="2.645" cy="2.256" rx="2.645" ry="2.256" transform="rotate(-3.96 32745.664 -14330.679)"/>
        <path id="prefix__XMLID_2675_" d="M543.676 822.672c-1.4 2.1-4.2 1.634-5.991 3.19a2.826 2.826 0 0 0-1.011 2.8c1.089 3.267 6.768 1.945 8.869.856.234-.156 0-.467-.233-.389a8.651 8.651 0 0 1-4.823 1.089 4.344 4.344 0 0 1-2.879-1.011c-1.245-1.323-.389-2.879 1.011-3.579 1.867-1.011 4.045-.856 5.29-2.8.311-.156-.078-.389-.233-.156z" transform="translate(520.051 1407.214)"/>
        <path id="prefix__XMLID_2668_" d="M541.291 833.138c1.4 3.968 3.345 7.78 7.935 8.4 4.357.545 8.247-2.023 11.281-4.823.233-.156-.078-.467-.311-.311-2.8 2.645-6.3 5.057-10.347 4.823-4.746-.311-6.691-4.2-8.169-8.169-.078-.233-.545-.155-.389.078z" transform="translate(519.013 1404.917)"/>
        <path id="prefix__XMLID_2661_" d="M553.886 844.106c.934 2.178.311 4.512-.389 6.691a.2.2 0 1 0 .389.078c.7-2.334 1.323-4.668.311-7-.078-.233-.389 0-.311.233z" transform="translate(516.298 1402.508)"/>
        <path id="prefix__XMLID_2653_" d="M581.638 809.786a5.973 5.973 0 0 1 3.89 7.78c-1.089 3.345-4.2 5.135-7.469 5.679-.233.078-.156.467.078.389 3.812-.622 7.469-3.112 8.091-7.157a6.3 6.3 0 0 0-4.512-7.08.2.2 0 1 0-.078.389z" transform="translate(510.874 1410.142)"/>
        <path id="prefix__XMLID_2638_" d="M578.8 827.35a74.862 74.862 0 0 0 3.267 19.45c.078.233.467.156.389-.078a77.586 77.586 0 0 1-3.19-19.372c0-.233-.467-.233-.467 0z" transform="translate(510.678 1406.192)"/>
        <path id="prefix__XMLID_2639_" d="M555.057 864.423l3.034 4.746-7.391 43.645 3.268 6.69 4.745-6.224 1.634-43.567 3.968-4.59-3.815-5.523z" transform="translate(516.917 1398.995)"/>
        <path id="prefix__XMLID_2631_" d="M553.65 852.889a.2.2 0 0 0 0-.389.2.2 0 0 0 0 .389z" transform="translate(516.301 1400.57)"/>
        <path id="prefix__XMLID_2623_" d="M544.592 950.567a377.283 377.283 0 0 1 1.634-56.248c.934-9.491 2.1-18.9 3.5-28.318.311-2.257.623-4.435 1.012-6.691.078-.7 1.011-6.457.856-6.457.389 0 1.323.934 1.634 1.167 1.011.7 2.023 1.478 3.034 2.178a15.766 15.766 0 0 0 2.334 1.634c.934.389 1.867-.156 2.878-.467a118.086 118.086 0 0 0 13.226-4.979c.234-.078 0-.467-.233-.389-3.112 1.4-6.3 2.723-9.491 3.812-1.556.544-3.034.934-4.59 1.4-1.011.311-1.167.467-1.945-.078-2.256-1.556-4.512-3.19-6.69-4.746a.211.211 0 0 0-.311.156c-4.123 25.128-7.157 50.491-7.546 75.931-.078 7.313 0 14.7.389 22.017-.078.311.389.311.311.078z" transform="translate(518.434 1400.684)"/>
        <path id="prefix__XMLID_2616_" d="M578.7 819.675a29.28 29.28 0 0 1 3.579-2.49c.233-.156 0-.467-.233-.389a23.305 23.305 0 0 0-3.657 2.49c-.155.233.156.544.311.389z" transform="translate(510.779 1408.501)"/>
        <path id="prefix__XMLID_2609_" d="M580.772 814.786a3.261 3.261 0 0 1 1.478 4.668c-.156.233.233.467.389.233a3.755 3.755 0 0 0-1.634-5.29c-.233-.078-.467.311-.233.389z" transform="translate(510.262 1409.032)"/>
        <path id="prefix__XMLID_2654_" d="M556.836 833.2c.311 2.023-1.4 4.123-3.345 4.746a4.661 4.661 0 0 1-5.29-2.1v-.311l8.636-2.334" class="prefix__cls-1" transform="translate(517.472 1404.855)"/>
        <path id="prefix__XMLID_2601_" d="M556.558 833.136c.233 3.89-4.824 6.379-7.546 3.423-1.012-1.011-.545-.933.545-1.245.778-.233 1.556-.389 2.334-.622 1.634-.467 3.345-.933 4.979-1.323.233-.078.156-.467-.078-.389l-8.635 2.334c-.078 0-.155.078-.155.233.155 1.945 3.034 2.956 4.59 2.8a5.066 5.066 0 0 0 4.434-5.135c0-.389-.467-.389-.467-.078z" transform="translate(517.516 1404.92)"/>
        <path id="prefix__XMLID_2040_" d="M563.2 837.3s1.789.389 1.711 1.4a4.429 4.429 0 0 1-2.412 3.5c-1.556.622-3.345.311-4.357.467s-2.023.156-2.412 1.167-1.63 4.666-1.63 4.666 1.245-4.512.155-6.068c0 .002 5.758-1.709 8.945-5.132z" transform="translate(516.162 1403.945)"/>
        <path id="prefix__XMLID_2583_" d="M339.525 881.1a16.837 16.837 0 0 0-12.759 7.157c-3.19 4.668-3.579 10.892-4.123 16.415-1.245 13.537-.389 27.152-1.323 40.688a98 98 0 0 1-4.123 23.184c-.078.234.311.311.389.078 3.812-11.9 4.435-24.351 4.59-36.721.078-6.224.078-12.37.311-18.594s.545-12.759 2.023-18.827c1.789-7.08 7.469-12.681 15.015-13.07.233.078.233-.311 0-.311z" transform="translate(568.762 1394.222)"/>
        <path id="prefix__XMLID_2534_" d="M376.147 878.738a19.774 19.774 0 0 1 15.326 5.991c3.656 3.812 4.746 8.246 5.835 13.226a22.27 22.27 0 0 0 2.1 6.3 12.147 12.147 0 0 0 5.057 4.434 21.438 21.438 0 0 0 15.948 1.4c6.379-1.789 11.825-5.6 16.882-9.8.155-.156-.078-.467-.311-.311-9.491 7.858-23.339 15.326-34.853 6.768-4.2-3.112-4.279-8.791-5.524-13.459a19.956 19.956 0 0 0-20.539-15.093c-.156.156-.156.544.078.544z" transform="translate(555.713 1394.87)"/>
        <path id="prefix__XMLID_2524_" d="M341.65 889.167c8.869 0 16.26 5.991 21.239 12.837 5.446 7.624 8.713 16.571 13.926 24.351 5.679 8.4 12.214 15.793 21.939 19.527 7.546 2.878 15.871 3.656 23.884 3.812a.2.2 0 0 0 0-.389c-13.148-.311-26.762-2.412-36.487-11.981a71.823 71.823 0 0 1-10.114-12.992c-4.823-7.7-8.013-16.338-13.537-23.573-4.979-6.535-12.214-12.059-20.85-12.059-.233.078-.233.467 0 .467z" transform="translate(563.37 1392.532)"/>
        <path id="prefix__XMLID_2515_" d="M336.4 917.832c2.178 13.615 11.67 24.273 23.106 31.275a90.676 90.676 0 0 0 38.821 13.07 129.487 129.487 0 0 0 25.751-.078.2.2 0 0 0 0-.389c-14 1.4-28.474.856-42.089-2.956a87.323 87.323 0 0 1-18.827-8.013 61.679 61.679 0 0 1-16.182-12.37 40.968 40.968 0 0 1-10.191-20.694c-.078-.156-.467-.078-.389.156z" transform="translate(564.499 1386.117)"/>
        <path id="prefix__XMLID_2508_" d="M404.767 931.82c16.182 3.423 32.986-4.745 41.155-18.9.156-.233-.233-.389-.311-.233-8.091 14-24.74 22.172-40.688 18.749-.233 0-.389.389-.156.389z" transform="translate(549.343 1387.223)"/>
        <path id="prefix__XMLID_2499_" d="M407.886 985.429a48.819 48.819 0 0 0-.7-11.67c-.078-.233-.467-.156-.389.078a48.178 48.178 0 0 1 .7 11.592.2.2 0 0 0 .389 0z" transform="translate(548.869 1373.678)"/>
        <path id="prefix__XMLID_2490_" d="M396.39 912.106c4.979 11.047 6.924 23.417 7.7 35.4a.2.2 0 0 0 .389 0c-.778-12.136-2.723-24.506-7.78-35.631-.078-.233-.467 0-.311.233z" transform="translate(551.185 1387.411)"/>
        <path id="prefix__XMLID_2480_" d="M345.772 881.389c3.734 1.789 5.835 5.524 7.858 9.024a.2.2 0 1 0 .311-.233c-2.023-3.5-4.123-7.313-7.935-9.18-.233 0-.467.311-.233.389z" transform="translate(562.437 1394.242)"/>
        <path id="prefix__XMLID_2459_" d="M376.9 878.723a166.334 166.334 0 0 1 14.311 53.677.2.2 0 0 0 .389 0 165.783 165.783 0 0 0-14.315-53.836.21.21 0 0 0-.389.156z" transform="translate(555.508 1394.809)"/>
        <path id="prefix__XMLID_2441_" d="M460.45 879.2c2.723.623 3.034 4.2 3.19 6.457a.2.2 0 0 0 .389 0c-.156-2.412-.545-6.146-3.5-6.769-.233-.156-.389.233-.078.311z" transform="translate(536.993 1394.719)"/>
        <path id="prefix__XMLID_2428_" d="M465.088 887.766c1.634-.778 5.057-.778 4.435 1.789-.389 1.789-3.579 2.567-4.823 1.245-.156-.156-.467.078-.311.311 1.478 1.556 5.135.622 5.6-1.478.545-2.956-3.19-3.112-5.057-2.178-.233.078-.078.389.155.311z" transform="translate(536.089 1392.921)"/>
        <path id="prefix__XMLID_2421_" d="M469.166 889.094a1.51 1.51 0 0 0-1.478.545c-.155.233.156.389.311.233a.888.888 0 0 1 1.011-.389c.233 0 .389-.389.156-.389z" transform="translate(535.357 1392.451)"/>
        <path id="prefix__XMLID_2407_" d="M466.938 890.771a1.9 1.9 0 0 0 .156-1.712c-.233-.467-.934-.545-1.4-.467a2.136 2.136 0 0 0-1.323 2.8c.078.233.467.156.389-.078a2.086 2.086 0 0 1 .545-2.1 1.307 1.307 0 0 1 1.167-.234c.622.311.389 1.167.156 1.556a.2.2 0 1 0 .311.233z" transform="translate(536.106 1392.563)"/>
        <path id="prefix__XMLID_2396_" d="M469.59 891.563c.934.233 1.167.622.778 1.167a3.042 3.042 0 0 1-.622.778 3.3 3.3 0 0 1-1.478.467c-.389.078-.778.233-1.167.311a3.021 3.021 0 0 1-1.167.156q-1.284-1.05-.467-1.867c.156-.233-.156-.389-.311-.233-.545.7-.856 1.789.156 2.334a2.66 2.66 0 0 0 1.556.078 10.932 10.932 0 0 0 2.723-.778 2.41 2.41 0 0 0 1.478-1.867c0-.778-.856-1.089-1.478-1.011-.311.155-.233.545 0 .467z" transform="translate(536.022 1392.003)"/>
        <path id="prefix__XMLID_2386_" d="M469.889 895.067c.545.545.7 1.011.233 1.245a1.694 1.694 0 0 1-.389.234 2.849 2.849 0 0 1-1.4.311c-.389 0-3.034.078-2.178-1.011.155-.233-.156-.389-.311-.233a.871.871 0 0 0 .311 1.323c.856.545 2.178.311 3.112.156a2.1 2.1 0 0 0 1.556-1.092 1.113 1.113 0 0 0-.778-1.4c-.311.078-.389.467-.156.467z" transform="translate(535.8 1391.225)"/>
        <path id="prefix__XMLID_2377_" d="M469.327 898.008c.545.078.856 1.011.389 1.323-.233.233-.7.233-1.011.311a7.128 7.128 0 0 1-1.245-.078.785.785 0 0 1-.389-1.4c.156-.155-.078-.467-.311-.311a1.42 1.42 0 0 0-.311 1.711c.467.545 1.867.545 2.49.467.545-.078 1.167-.311 1.245-.856a1.149 1.149 0 0 0-.856-1.478c-.156-.078-.233.311 0 .311z" transform="translate(535.662 1390.537)"/>
        <path id="prefix__XMLID_2367_" d="M459 879.413c1.712 3.812.389 8.013-.389 11.9-.7 3.345-1.634 6.457-4.123 8.947-.156.156.078.467.311.311 2.645-2.723 3.579-6.068 4.357-9.725.778-3.89 2.023-7.858.233-11.592-.156-.311-.467-.078-.389.156z" transform="translate(538.29 1394.663)"/>
        <path id="prefix__XMLID_2357_" d="M457.6 910.257c1.478-2.023 2.956-4.123 4.279-6.3a3.07 3.07 0 0 1 2.023-1.789A8.01 8.01 0 0 0 466 901c.156-.156-.078-.467-.311-.311a3.929 3.929 0 0 1-3.034 1.167c-.078 0-.156 0-.156.078a55.144 55.144 0 0 1-5.212 8.091c-.156.234.156.467.311.234z" transform="translate(537.666 1389.879)"/>
        <path id="prefix__XMLID_2348_" d="M395.8 970.95c-.078 5.913 4.045 11.748 9.413 14 .233.078.311-.311.078-.389-5.212-2.179-9.258-7.935-9.1-13.615a.2.2 0 0 0-.389 0z" transform="translate(551.308 1374.31)"/>
        <path id="prefix__XMLID_2339_" d="M351.124 954.333c.622 8.635 1.634 18.827-4.668 25.751-7.235 8.013-18.827 4.59-27.618 1.556-.233-.078-.311.311-.078.389 8.713 3.034 20.15 6.38 27.54-1.245 6.846-7 5.835-17.582 5.212-26.451 0-.311-.389-.311-.389 0z" transform="translate(568.444 1378.013)"/>
        <path id="prefix__XMLID_2330_" d="M359.05 981.353a63.954 63.954 0 0 0 29.641-3.268c.233-.078.156-.467-.078-.389a63.745 63.745 0 0 1-29.563 3.267c-.233-.078-.233.311 0 .389z" transform="translate(559.506 1372.777)"/>
        <path id="prefix__XMLID_2321_" d="M356.406 891.957c2.956-1.478 5.913-2.879 8.869-4.357.233-.078 0-.467-.233-.311-2.956 1.478-5.913 2.879-8.869 4.357-.233.078 0 .467.233.311z" transform="translate(560.128 1392.854)"/>
        <path id="prefix__XMLID_2313_" d="M367.85 887.686a45.768 45.768 0 0 1 11.125 2.8c.233.078.311-.311.078-.389a47.284 47.284 0 0 0-11.2-2.8c-.233-.078-.233.311 0 .389z" transform="translate(557.552 1392.846)"/>
        <path id="prefix__XMLID_2305_" d="M363.588 890.215a8.553 8.553 0 0 0 4.123 3.268c.233.078.311-.311.078-.389a8.489 8.489 0 0 1-3.89-3.112c-.156-.156-.467 0-.311.233z" transform="translate(558.469 1392.262)"/>
        <path id="prefix__XMLID_2297_" d="M374.106 889.45a5.15 5.15 0 0 1-2.334 3.812c-.233.156 0 .467.233.311a5.414 5.414 0 0 0 2.567-4.123c-.078-.233-.467-.233-.467 0z" transform="translate(556.664 1392.406)"/>
        <path id="prefix__XMLID_2290_" d="M371.85 894.689a.2.2 0 0 0 0-.389.2.2 0 0 0 0 .389z" transform="translate(556.664 1391.291)"/>
        <path id="prefix__XMLID_2282_" d="M371.79 894.723a255.355 255.355 0 0 1 12.136 33.377c.078.233.467.156.389-.078a252.347 252.347 0 0 0-12.136-33.453c-.156-.234-.545-.078-.389.156z" transform="translate(556.647 1391.256)"/>
        <path id="prefix__XMLID_2268_" d="M368.4 894.537c.934 4.512 2.023 8.947 3.345 13.381.078.233.467.156.389-.078a134.53 134.53 0 0 1-3.345-13.381c0-.233-.389-.156-.389.078z" transform="translate(557.392 1391.286)"/>
        <path id="prefix__XMLID_2261_" d="M355.96 985.568a55.353 55.353 0 0 0 33.375-3.968c.233-.078 0-.467-.233-.311a54.913 54.913 0 0 1-33.064 3.89c-.233-.078-.311.311-.078.389z" transform="translate(560.185 1371.985)"/>
        <path id="prefix__XMLID_2254_" d="M535.387 852.6c-7.546 1.634-14.159 6.068-19.372 11.67-5.757 6.224-9.647 14-13.3 21.628-1.712 3.579-3.579 7.158-4.979 10.892-1.478 3.89-2.8 7.935-4.357 11.825a73.92 73.92 0 0 1-4.9 9.569c-1.167 2.1-2.1 4.279-3.19 6.379-2.956 5.835-7 12.292-13.926 13.615a.2.2 0 0 0 .078.389c5.368-1.011 9.1-5.212 11.9-9.725 2.645-4.357 4.746-9.1 7.313-13.537 4.045-7.158 5.757-15.326 9.18-22.717 3.657-8.013 7.546-16.182 12.681-23.417 5.524-7.78 13.537-14.159 23.028-16.26.156 0 .078-.389-.156-.311z" transform="translate(534.563 1400.551)"/>
        <path id="prefix__XMLID_2239_" d="M472.838 961.5c8.4-1.322 16.649-3.734 23.962-8.091a55.062 55.062 0 0 0 17.738-17.193 82.342 82.342 0 0 0 7.469-14.781c.078-.233-.311-.311-.389-.078-4.279 10.892-10.58 21.161-19.994 28.318-8.4 6.38-18.516 9.8-28.863 11.436-.233 0-.156.389.078.389z" transform="translate(534.253 1385.312)"/>
        <path id="prefix__XMLID_2232_" d="M583.46 852.3c17.038 3.579 30.419 16.026 39.91 30.03 5.29 7.78 10.191 16.649 8.091 26.373-1.867 8.947-7.7 16.882-12.914 24.2-6.224 8.791-14.081 16.338-21.861 23.651-.156.156.078.467.311.311 7.235-6.768 14.393-13.615 20.305-21.472 2.956-3.89 5.679-7.935 8.247-12.059a51.214 51.214 0 0 0 5.912-12.526c2.567-9.336-.934-17.894-5.912-25.751a90.75 90.75 0 0 0-16.882-20.072 57.256 57.256 0 0 0-25.129-12.992c-.234-.156-.311.233-.078.311z" transform="translate(509.675 1400.692)"/>
        <path id="prefix__XMLID_2225_" d="M594.5 893.137c3.89 9.491 13.381 15.56 15.638 25.829 2.412 10.814-1.945 21.628-6.846 31.2-2.178 4.2-4.59 8.869-8.169 12.059-.156.156.078.467.311.311 3.112-2.723 5.213-6.613 7.158-10.191a90.816 90.816 0 0 0 5.99-13.459c1.789-5.057 3.034-10.5 2.568-15.948a28.018 28.018 0 0 0-5.679-14.47c-3.734-5.057-8.325-9.491-10.658-15.4 0-.234-.389-.156-.312.078z" transform="translate(507.195 1391.597)"/>
        <path id="prefix__XMLID_2217_" d="M602.134 909.96A207.043 207.043 0 0 0 590 951.348c-.078.233.311.311.389.078a202.07 202.07 0 0 1 12.136-41.388c.078-.233-.311-.311-.389-.078z" transform="translate(508.194 1387.845)"/>
        <path id="prefix__XMLID_2210_" d="M578.87 852.06a343.61 343.61 0 0 0-13.77 84.722.2.2 0 0 0 .389 0 347.286 347.286 0 0 1 13.77-84.644c.078-.233-.311-.311-.389-.078z" transform="translate(513.72 1400.699)"/>
        <path id="prefix__XMLID_2200_" d="M583.4 852.927a53.8 53.8 0 0 1 5.757 19.294.2.2 0 0 0 .389 0 53.183 53.183 0 0 0-5.835-19.449c-.078-.233-.389 0-.311.156z" transform="translate(509.66 1400.533)"/>
        <path id="prefix__XMLID_2190_" d="M588.352 877.59a23.046 23.046 0 0 1-9.1 3.345.2.2 0 0 0 0 .389 22.612 22.612 0 0 0 9.336-3.423c.156-.078 0-.467-.233-.311z" transform="translate(510.617 1395.008)"/>
        <path id="prefix__XMLID_2182_" d="M579.16 882.5a20.151 20.151 0 0 0 4.746 1.167.2.2 0 0 0 0-.389 16.3 16.3 0 0 1-4.668-1.089c-.233-.155-.311.234-.078.311z" transform="translate(510.629 1393.987)"/>
        <path id="prefix__XMLID_2175_" d="M580.7 883.752a112.952 112.952 0 0 1-15.015 53.369c-.156.233.233.389.311.233a112.5 112.5 0 0 0 15.093-53.525c0-.311-.389-.311-.389-.078z" transform="translate(513.597 1393.67)"/>
        <path id="prefix__XMLID_2166_" d="M550.791 852.682c-3.89 5.135-8.091 10.58-9.491 17.038a.286.286 0 0 0 .078.234 8.77 8.77 0 0 0 4.979 1.556.2.2 0 0 0 0-.389 6.689 6.689 0 0 1-3.657-.856c-1.089-.778-.856-1.4-.467-2.568a30.309 30.309 0 0 1 2.567-5.6 93.145 93.145 0 0 1 6.379-9.258c.155-.156-.233-.311-.389-.156z" transform="translate(519.004 1400.545)"/>
        <path id="prefix__XMLID_2151_" d="M541.06 878.295a6 6 0 0 0 5.524-1.322.237.237 0 0 0 0-.311l-.078-.078a.146.146 0 0 0-.233 0c-.078 0-.078 0-.156.078-.233.078 0 .467.234.311-.311-.156-.545 0-.778.311-.156.078-.389.233-.545.311a6.85 6.85 0 0 1-1.167.389 5.39 5.39 0 0 1-2.723-.078c-.233-.078-.311.311-.078.389z" transform="translate(519.089 1395.235)"/>
        <path id="prefix__XMLID_2132_" d="M540.54 878.46c-3.19 17.582.467 35.865 2.256 53.369a.2.2 0 0 0 .389 0c-1.789-17.5-5.446-35.709-2.256-53.292a.2.2 0 0 0-.389-.078z" transform="translate(519.452 1394.838)"/>
        <path id="prefix__XMLID_2124_" d="M590.071 963.15c-.7 7.935 2.178 15.637 9.414 19.527.233.156.389-.233.233-.311-7.158-3.812-9.88-11.436-9.18-19.216-.078-.233-.467-.233-.467 0z" transform="translate(508.198 1376.042)"/>
        <path id="prefix__XMLID_2118_" d="M517.7 949.158a95.167 95.167 0 0 1-5.913 15.249c-.078.078 0 .156 0 .233 6.38 6.924 16.338 10.269 25.518 7.78.233-.078.156-.467-.078-.389a24.97 24.97 0 0 1-20.15-3.423 23.265 23.265 0 0 1-4.045-3.268c-.856-.856-.7-1.4-.155-2.412.467-.933.933-1.945 1.323-2.956a89.6 89.6 0 0 0 3.89-10.814c.078-.155-.311-.233-.389 0z" transform="translate(525.563 1379.144)"/>
        <path id="prefix__XMLID_2109_" d="M565.1 960.947c.233 4.823-.155 9.569.078 14.393a.167.167 0 0 0 .156.155 41.217 41.217 0 0 0 22.95 1.634.2.2 0 0 0-.078-.389 41.093 41.093 0 0 1-11.125.856c-3.345-.233-7.157-.622-10.269-2.023-.933-.389-1.011-.389-1.245-1.323a12.562 12.562 0 0 1 0-1.712v-3.89c0-2.567.078-5.212 0-7.78-.078-.156-.467-.156-.467.078z" transform="translate(513.72 1376.533)"/>
        <path id="prefix__XMLID_2101_" d="M543.96 963.486a46 46 0 0 0 16.571 2.023.2.2 0 0 0 0-.389 45.588 45.588 0 0 1-16.493-2.022c-.233-.078-.311.311-.078.389z" transform="translate(518.445 1376.016)"/>
        <path id="prefix__XMLID_2092_" d="M544.468 970.786a26.535 26.535 0 0 0 16.26 1.789.2.2 0 0 0-.078-.389 26.123 26.123 0 0 1-15.95-1.786c-.311-.078-.467.311-.233.389z" transform="translate(518.325 1374.397)"/>
        <path id="prefix__XMLID_2082_" d="M451.007 974.59a15.575 15.575 0 0 1 1.478-1.711c.389-.389 1.556-1.712 2.178-1.4.233.156.389-.234.233-.311-.7-.389-1.4.311-1.945.778a16.575 16.575 0 0 0-2.256 2.412c-.078.156.156.389.311.233z" transform="translate(539.123 1374.248)"/>
        <path id="prefix__XMLID_2072_" d="M455.108 971.267a13.791 13.791 0 0 1-2.023 3.812c-.156.156.078.467.311.311a15.149 15.149 0 0 0 2.178-3.968.256.256 0 0 0-.467-.156z" transform="translate(538.601 1374.228)"/>
        <path id="prefix__XMLID_2066_" d="M454.609 973.712a13.279 13.279 0 0 0 1.478-1.478c.389-.467.778-1.945 1.556-1.945a.2.2 0 0 0 0-.389c-.778.078-1.011.622-1.323 1.245a6.823 6.823 0 0 1-1.945 2.256c-.233.156.078.467.233.311z" transform="translate(538.321 1374.505)"/>
        <path id="prefix__XMLID_2059_" d="M457.823 970.05a10.852 10.852 0 0 1-1.634 5.368c-.156.234.233.389.311.234a11.808 11.808 0 0 0 1.712-5.6.2.2 0 0 0-.389 0z" transform="translate(537.908 1374.511)"/>
        <path id="prefix__XMLID_2052_" d="M457.379 975.123a13.308 13.308 0 0 1 1.4-1.556c.467-.467.778-.856 1.478-.622.233.078.311-.311.078-.389a1.192 1.192 0 0 0-1.478.234 12.018 12.018 0 0 0-1.867 2.1c-.156.233.233.467.389.233z" transform="translate(537.731 1373.949)"/>
        <path id="prefix__XMLID_2045_" d="M459.109 976.2a6.783 6.783 0 0 0 1.789-3.268c.078-.234-.311-.311-.389-.078a6.686 6.686 0 0 1-1.634 3.112c-.233.078.078.389.233.234z" transform="translate(537.322 1373.879)"/>
        <path id="prefix__XMLID_2034_" d="M459.106 976.56a9.243 9.243 0 0 1 1.789-1.245c.311-.156 1.167-.778 1.478-.622.233.156.389-.233.233-.311-.467-.233-1.167.234-1.556.467a13.423 13.423 0 0 0-2.178 1.478c-.233.078 0 .389.233.234z" transform="translate(537.326 1373.525)"/>
        <path id="prefix__XMLID_2028_" d="M460.817 976.349a3.833 3.833 0 0 0 1.323-.467 4.109 4.109 0 0 0 .856-1.167c.156-.234-.233-.389-.311-.234a3.508 3.508 0 0 1-.778 1.089 4.627 4.627 0 0 1-1.245.467c-.233-.078-.156.311.156.311z" transform="translate(536.937 1373.502)"/>
        <path id="prefix__XMLID_2021_" d="M471.173 962.95a14.562 14.562 0 0 0 1.167 7.469c.078.233.467 0 .311-.234a14.516 14.516 0 0 1-1.167-7.235c.078-.233-.311-.233-.311 0z" transform="translate(534.595 1376.086)"/>
        <path id="prefix__XMLID_2015_" d="M452.528 963.823c2.178-.778 4.279-1.79 6.457-2.334a11.884 11.884 0 0 1 8.013.934c.233.078.389-.233.233-.311a11.887 11.887 0 0 0-6.924-1.245c-2.723.389-5.29 1.711-7.858 2.645-.311 0-.156.389.078.311z" transform="translate(538.769 1376.536)"/>
        <path id="prefix__XMLID_2008_" d="M452.188 964.715a3.286 3.286 0 0 0 2.645 1.556c1.789.156 4.9-2.256 6.224-.7.156.156.467-.078.311-.311a2.154 2.154 0 0 0-2.412-.622c-2.178.622-4.59 2.49-6.379-.156-.233-.156-.545 0-.389.234z" transform="translate(538.798 1375.72)"/>
        <path id="prefix__XMLID_2002_" d="M446 965.834a13.585 13.585 0 0 1 9.1-3.346.2.2 0 0 0 0-.389 13.993 13.993 0 0 0-9.414 3.5c-.155.156.078.389.311.234z" transform="translate(540.244 1376.237)"/>
        <path id="prefix__XMLID_1996_" d="M463.393 965.728c.233 1.167-1.011 2.412.078 3.345.389.389.934.389 1.4.622.622.156 1.089.545 1.711.7.233.078.311-.311.078-.389a11.023 11.023 0 0 1-1.4-.622c-.467-.233-1.089-.233-1.478-.545-1.011-.856.156-2.178-.078-3.19 0-.311-.389-.156-.311.078z" transform="translate(536.384 1375.488)"/>
        <path id="prefix__XMLID_1990_" d="M467.5 971.537a2.127 2.127 0 0 0 1.4 1.712 3.906 3.906 0 0 0 2.723-.7.2.2 0 1 0-.233-.311 4.523 4.523 0 0 1-1.945.7 1.5 1.5 0 0 1-1.556-1.478c0-.234-.389-.156-.389.078z" transform="translate(535.389 1374.192)"/>
        <path id="prefix__XMLID_1984_" d="M448.882 974.432a13.106 13.106 0 0 0 15.326-.934c.156-.156-.078-.467-.311-.311a12.517 12.517 0 0 1-14.782.933c-.233-.155-.389.234-.233.311z" transform="translate(539.537 1373.784)"/>
        <path id="prefix__XMLID_1978_" d="M475.7 961.833a21.22 21.22 0 0 0 1.945 7.546c.078.233.467 0 .311-.234a19.91 19.91 0 0 1-1.867-7.313c0-.311-.389-.311-.389 0z" transform="translate(533.568 1376.348)"/>
        <path id="prefix__XMLID_2626_" d="M440.6 966.878l.545 6.613 3.267-.311-.389-6.38z" transform="translate(541.362 1375.192)"/>
        <circle id="prefix__XMLID_2489_" cx="2.101" cy="2.101" r="2.101" transform="translate(981.806 2343.548)" style="stroke-width:.5px;stroke-miterlimit:10;stroke:#000;fill:#fff"/>
        <path id="prefix__XMLID_1972_" d="M442.53 969.65c.078.467.078.934.156 1.4 0-.078.156-.156 0 0-.078.078-.156.233-.233.311-.156.156-.311.389-.467.545s.078.467.311.311c.156-.233.311-.389.467-.622a1.4 1.4 0 0 0 .389-.545c0-.156-.078-.467-.078-.622 0-.234-.078-.467-.078-.778-.156-.234-.544-.234-.467 0z" transform="translate(541.065 1374.599)"/>
        <path id="prefix__XMLID_1966_" d="M560.252 859.485c-3.034 2.645-5.835 5.524-9.18 7.78a.2.2 0 1 0 .233.311c3.345-2.256 6.224-5.212 9.258-7.857.156-.156-.078-.389-.311-.234z" transform="translate(516.856 1399.031)"/>
        <path id="prefix__XMLID_1959_" d="M567.7 866.919c.622 1.011 1.245 1.945 1.867 2.956.156.233.467 0 .311-.234-.622-1.011-1.245-1.945-1.867-2.956-.078-.156-.389.078-.311.233z" transform="translate(513.146 1397.431)"/>
        <path id="prefix__XMLID_1951_" d="M570.515 870.057c2.178-1.011 4.279-1.945 6.457-2.956.233-.078 0-.467-.233-.311-2.178 1.011-4.279 1.945-6.457 2.956-.156.078 0 .389.233.311z" transform="translate(512.583 1397.405)"/>
        <path id="prefix__XMLID_2443_" d="M364.912 862.351s-2.334-.622-3.423-.856-2.178 1.945-.778 2.256 1.789-.389 3.034-.311 2.723 0 3.345.467-.311 3.19.311 4.9c.7 1.867 1.011 1.011 1.011 1.011s-.856-2.645-.311-4.123c.545-1.556.778-2.334.778-2.334z" transform="translate(559.246 1398.576)"/>
        <path id="prefix__XMLID_1944_" d="M454.4 915.111a12.751 12.751 0 0 1 4.823-4.279c.7-.311 2.178-.623 2.178-1.634 0-.778-1.089-1.4-1.634-1.867A15.712 15.712 0 0 0 455.41 905c-.233-.078-.311.311-.078.389a13.664 13.664 0 0 1 4.434 2.412c.545.467 1.4 1.167.7 2.023-.311.389-1.245.545-1.712.778a12.365 12.365 0 0 0-4.668 4.279c-.156.233.156.467.311.233z" transform="translate(538.376 1388.917)"/>
        <path id="prefix__XMLID_2436_" d="M459.134 907.9l.622.467-2.567 3.579-.934 1.167-1.556 1.712 2.1-4.979z" class="prefix__cls-2" transform="translate(538.231 1388.27)"/>
        <path id="prefix__XMLID_2449_" d="M396.6 911.9s3.734 2.879 4.59 4.668-1.011 1.634-.856 2.412 1.867 5.757 2.1 7.78a23.456 23.456 0 0 1-.078 4.59s-3.733-16.105-5.756-19.45z" transform="translate(551.13 1387.382)"/>
        <path id="prefix__XMLID_2450_" d="M336.05 917.517s-.467-.934-1.323-.544-1.867.933-.934 3.734 2.645 3.345 3.267 4.59-.389 4.123.934 7.857 8.791 7.313 10.5 8.713 6.379 5.368 6.379 5.368v-1.245s-5.524-4.357-6.146-4.979c-.7-.7-6.846-7.7-8.324-10.425a51.8 51.8 0 0 1-3.734-9.18 13.6 13.6 0 0 1-.619-3.889z" transform="translate(565.158 1386.277)"/>
        <circle id="prefix__XMLID_2523_" cx="1.167" cy="1.167" r="1.167" class="prefix__cls-1" transform="translate(890.86 2355.996)"/>
        <circle id="prefix__XMLID_2454_" cx="1.167" cy="1.167" r="1.167" class="prefix__cls-1" transform="translate(899.418 2354.44)"/>
        <circle id="prefix__XMLID_2455_" cx="1.167" cy="1.167" r="1.167" class="prefix__cls-1" transform="translate(906.42 2356.774)"/>
        <circle id="prefix__XMLID_2460_" cx="1.167" cy="1.167" r="1.167" class="prefix__cls-1" transform="translate(911.866 2349.772)"/>
        <circle id="prefix__XMLID_2461_" cx="1.167" cy="1.167" r="1.167" class="prefix__cls-1" transform="translate(903.308 2345.882)"/>
        <circle id="prefix__XMLID_2462_" cx="1.167" cy="1.167" r="1.167" class="prefix__cls-1" transform="translate(893.194 2343.548)"/>
        <circle id="prefix__XMLID_2463_" cx="1.167" cy="1.167" r="1.167" class="prefix__cls-1" transform="translate(911.866 2338.102)"/>
        <circle id="prefix__XMLID_2464_" cx="1.167" cy="1.167" r="1.167" class="prefix__cls-1" transform="translate(900.196 2333.435)"/>
        <circle id="prefix__XMLID_2465_" cx="1.167" cy="1.167" r="1.167" class="prefix__cls-1" transform="translate(892.416 2324.098)"/>
        <circle id="prefix__XMLID_2469_" cx="1.167" cy="1.167" r="1.167" class="prefix__cls-1" transform="translate(907.198 2327.21)"/>
        <circle id="prefix__XMLID_2470_" cx="1.167" cy="1.167" r="1.167" class="prefix__cls-1" transform="translate(896.306 2312.431)"/>
        <circle id="prefix__XMLID_2471_" cx="1.167" cy="1.167" r="1.167" class="prefix__cls-1" transform="translate(892.416 2299.983)"/>
        <circle id="prefix__XMLID_2472_" cx="1.167" cy="1.167" r="1.167" class="prefix__cls-1" transform="translate(900.974 2295.315)"/>
        <circle id="prefix__XMLID_2475_" cx="1.167" cy="1.167" r="1.167" class="prefix__cls-1" transform="translate(896.306 2285.979)"/>
        <circle id="prefix__XMLID_2536_" cx="1.167" cy="1.167" r="1.167" class="prefix__cls-1" transform="translate(905.642 2284.424)"/>
        <circle id="prefix__XMLID_2538_" cx="1.167" cy="1.167" r="1.167" class="prefix__cls-1" transform="translate(907.976 2277.421)"/>
        <circle id="prefix__XMLID_2539_" cx="1.167" cy="1.167" r="1.167" class="prefix__cls-1" transform="translate(914.2 2290.648)"/>
        <circle id="prefix__XMLID_2540_" cx="1.167" cy="1.167" r="1.167" class="prefix__cls-1" transform="translate(911.866 2299.983)"/>
        <circle id="prefix__XMLID_2541_" cx="1.167" cy="1.167" r="1.167" class="prefix__cls-1" transform="translate(909.532 2312.431)"/>
        <circle id="prefix__XMLID_2544_" cx="1.167" cy="1.167" r="1.167" class="prefix__cls-1" transform="translate(928.981 2306.985)"/>
        <circle id="prefix__XMLID_2545_" cx="1.167" cy="1.167" r="1.167" class="prefix__cls-1" transform="translate(921.202 2301.539)"/>
        <circle id="prefix__XMLID_2547_" cx="1.167" cy="1.167" r="1.167" class="prefix__cls-1" transform="translate(921.202 2315.543)"/>
        <circle id="prefix__XMLID_2548_" cx="1.167" cy="1.167" r="1.167" class="prefix__cls-1" transform="translate(922.757 2327.21)"/>
        <circle id="prefix__XMLID_2550_" cx="1.167" cy="1.167" r="1.167" class="prefix__cls-1" transform="translate(934.427 2320.986)"/>
        <circle id="prefix__XMLID_2551_" cx="1.167" cy="1.167" r="1.167" class="prefix__cls-1" transform="translate(934.427 2334.99)"/>
        <circle id="prefix__XMLID_2552_" cx="1.167" cy="1.167" r="1.167" class="prefix__cls-1" transform="translate(946.875 2333.435)"/>
        <circle id="prefix__XMLID_2554_" cx="1.167" cy="1.167" r="1.167" class="prefix__cls-1" transform="translate(954.654 2341.992)"/>
        <circle id="prefix__XMLID_2556_" cx="1.167" cy="1.167" r="1.167" class="prefix__cls-1" transform="translate(966.324 2341.214)"/>
        <circle id="prefix__XMLID_2575_" cx="1.167" cy="1.167" r="1.167" class="prefix__cls-1" transform="translate(975.66 2345.104)"/>
        <circle id="prefix__XMLID_2576_" cx="1.167" cy="1.167" r="1.167" class="prefix__cls-1" transform="translate(935.983 2275.087)"/>
        <circle id="prefix__XMLID_2577_" cx="1.167" cy="1.167" r="1.167" class="prefix__cls-1" transform="translate(944.541 2281.311)"/>
        <circle id="prefix__XMLID_2578_" cx="1.167" cy="1.167" r="1.167" class="prefix__cls-1" transform="translate(942.207 2292.203)"/>
        <circle id="prefix__XMLID_2579_" cx="1.167" cy="1.167" r="1.167" class="prefix__cls-1" transform="translate(951.542 2298.427)"/>
        <circle id="prefix__XMLID_2581_" cx="1.167" cy="1.167" r="1.167" class="prefix__cls-1" transform="translate(948.431 2309.319)"/>
        <circle id="prefix__XMLID_2582_" cx="1.167" cy="1.167" r="1.167" class="prefix__cls-1" transform="translate(948.431 2322.542)"/>
        <circle id="prefix__XMLID_2585_" cx="1.167" cy="1.167" r="1.167" class="prefix__cls-1" transform="translate(955.432 2310.097)"/>
        <circle id="prefix__XMLID_2586_" cx="1.167" cy="1.167" r="1.167" class="prefix__cls-1" transform="translate(965.546 2306.985)"/>
        <circle id="prefix__XMLID_2587_" cx="1.167" cy="1.167" r="1.167" class="prefix__cls-1" transform="translate(974.882 2311.653)"/>
        <circle id="prefix__XMLID_2588_" cx="1.167" cy="1.167" r="1.167" class="prefix__cls-1" transform="translate(980.328 2304.651)"/>
        <circle id="prefix__XMLID_2589_" cx="1.167" cy="1.167" r="1.167" class="prefix__cls-1" transform="translate(988.885 2301.539)"/>
        <circle id="prefix__XMLID_2596_" cx="1.167" cy="1.167" r="1.167" class="prefix__cls-1" transform="translate(992.775 2295.315)"/>
        <path id="prefix__XMLID_1938_" d="M536.964 866.085c-.7.7-1.4 1.4-2.178 2.1-.155.156.078.467.311.311.7-.7 1.4-1.4 2.178-2.1.078-.233-.156-.467-.311-.311z" class="prefix__cls-1" transform="translate(520.461 1397.568)"/>
        <path id="prefix__XMLID_1932_" d="M536.8 877.028c.233 1.323.389 2.723.622 4.046 0 .233.389.156.389-.078-.233-1.322-.389-2.723-.622-4.045a.2.2 0 1 0-.389.078z" class="prefix__cls-1" transform="translate(520.006 1395.18)"/>
        <path id="prefix__XMLID_1926_" d="M526.6 878.733c.934-.778 1.789-1.556 2.723-2.334.156-.156-.078-.467-.311-.311-.934.778-1.789 1.556-2.723 2.334-.156.156.078.467.311.311z" class="prefix__cls-1" transform="translate(522.349 1395.342)"/>
        <path id="prefix__XMLID_1920_" d="M530.7 887.037a5.7 5.7 0 0 0 2.023 2.8c.233.156.389-.156.233-.311a6.1 6.1 0 0 1-1.867-2.567c-.078-.233-.467-.155-.389.078z" class="prefix__cls-1" transform="translate(521.36 1392.954)"/>
        <path id="prefix__XMLID_1914_" d="M518.813 893.366a11.636 11.636 0 0 0 3.579-2.568c.156-.156-.078-.467-.311-.311a9.7 9.7 0 0 1-3.423 2.49c-.311.155-.078.545.156.389z" class="prefix__cls-1" transform="translate(524.064 1392.147)"/>
        <path id="prefix__XMLID_1908_" d="M527.688 898.406c.778 1.011 1.556 2.1 2.256 3.112a.2.2 0 1 0 .311-.233c-.778-1.011-1.556-2.1-2.256-3.112a.2.2 0 1 0-.311.233z" class="prefix__cls-1" transform="translate(522.035 1390.452)"/>
        <path id="prefix__XMLID_1902_" d="M532.523 907.294a5.464 5.464 0 0 0 2.412-2.178c.156-.233-.234-.389-.311-.233a5.336 5.336 0 0 1-2.256 2.1c-.233.078-.078.389.156.311z" class="prefix__cls-1" transform="translate(521.013 1388.956)"/>
        <path id="prefix__XMLID_1895_" d="M524.5 914.537a4.906 4.906 0 0 0 3.034 3.268c.233.078.311-.311.078-.389a4.275 4.275 0 0 1-2.8-2.956c0-.233-.389-.156-.311.078z" class="prefix__cls-1" transform="translate(522.737 1386.846)"/>
        <path id="prefix__XMLID_1888_" d="M513.313 911.739a8.841 8.841 0 0 0 3.345-3.423c.155-.233-.234-.389-.312-.233a9.168 9.168 0 0 1-3.19 3.268c-.311.155-.078.467.156.389z" class="prefix__cls-1" transform="translate(525.285 1388.245)"/>
        <path id="prefix__XMLID_1881_" d="M508.528 922.064c1.4-.467 2.723-1.011 4.123-1.478.233-.078.156-.467-.078-.389-1.4.467-2.723 1.011-4.123 1.478a.2.2 0 1 0 .078.389z" class="prefix__cls-1" transform="translate(526.336 1385.545)"/>
        <path id="prefix__XMLID_1874_" d="M520.2 924.25a8.089 8.089 0 0 0 2.334 4.823c.156.156.467-.078.311-.311a7.007 7.007 0 0 1-2.256-4.512.2.2 0 0 0-.389 0z" class="prefix__cls-1" transform="translate(523.688 1384.681)"/>
        <path id="prefix__XMLID_1867_" d="M512.686 930.96c-.622 1.4-1.167 2.878-1.789 4.279-.078.233.311.311.389.078.622-1.4 1.167-2.878 1.789-4.279.078-.233-.233-.311-.389-.078z" class="prefix__cls-1" transform="translate(525.756 1383.183)"/>
        <path id="prefix__XMLID_1860_" d="M516.844 941.66c-.156 1.322-.389 2.567-.545 3.89 0 .233.311.389.389.078.156-1.323.389-2.567.545-3.89 0-.233-.389-.311-.389-.078z" class="prefix__cls-1" transform="translate(524.554 1380.806)"/>
        <path id="prefix__XMLID_1854_" d="M499.8 940.511c1.167-1.011 2.334-2.1 3.5-3.112.156-.155-.078-.467-.311-.311-1.167 1.011-2.334 2.1-3.5 3.112-.156.156.156.467.311.311z" class="prefix__cls-1" transform="translate(528.296 1381.8)"/>
        <path id="prefix__XMLID_1848_" d="M505.7 949.737c.311 1.4.622 2.723.934 4.123.078.233.467.156.389-.078-.311-1.4-.622-2.723-.934-4.123a.2.2 0 0 0-.389.078z" class="prefix__cls-1" transform="translate(526.908 1379.03)"/>
        <path id="prefix__XMLID_1842_" d="M492.947 953.677a6.37 6.37 0 0 0 3.579-.778.2.2 0 1 0-.233-.311 6.52 6.52 0 0 1-3.423.778c-.156-.078-.156.311.078.311z" class="prefix__cls-1" transform="translate(529.781 1378.36)"/>
        <path id="prefix__XMLID_1836_" d="M486.023 964.555a20.158 20.158 0 0 0 4.746-2.956c.156-.156-.078-.467-.311-.311a18.929 18.929 0 0 1-4.59 2.879.21.21 0 0 0 .156.389z" class="prefix__cls-1" transform="translate(531.337 1376.427)"/>
        <path id="prefix__XMLID_1830_" d="M534.1 935.555c.934-1.011 1.789-1.945 2.723-2.956.156-.155-.078-.467-.311-.311-.934 1.012-1.789 1.945-2.723 2.956-.156.233.156.467.311.311z" class="prefix__cls-1" transform="translate(520.681 1382.866)"/>
        <path id="prefix__XMLID_1822_" d="M536.3 944.806c.7 1.478 1.478 2.956 2.178 4.435.078.233.467 0 .311-.233-.7-1.478-1.478-2.956-2.178-4.434-.078-.233-.389 0-.311.233z" class="prefix__cls-1" transform="translate(520.117 1380.151)"/>
        <path id="prefix__XMLID_1816_" d="M525.306 949.583a9.249 9.249 0 0 0 4.123-3.967c.156-.234-.234-.389-.311-.234a8.371 8.371 0 0 1-4.045 3.812c-.233.156 0 .466.233.389z" class="prefix__cls-1" transform="translate(522.628 1379.962)"/>
        <path id="prefix__XMLID_1810_" d="M532 956.815a7.334 7.334 0 0 0 2.567 2.956c.233.156.389-.233.233-.311a7.456 7.456 0 0 1-2.49-2.878c-.078-.156-.389 0-.311.233z" class="prefix__cls-1" transform="translate(521.072 1377.478)"/>
        <path id="prefix__XMLID_1804_" d="M533.738 971.25a11.048 11.048 0 0 0 5.524-4.435c.156-.233-.233-.389-.311-.233a10.791 10.791 0 0 1-5.29 4.2c-.233.156-.156.545.078.467z" class="prefix__cls-1" transform="translate(520.731 1375.258)"/>
        <path id="prefix__XMLID_1798_" d="M524.7 962.537a5.815 5.815 0 0 1 .156 3.812c-.078.233.311.311.389.078a6.881 6.881 0 0 0-.156-3.968c-.078-.233-.467-.155-.389.078z" class="prefix__cls-1" transform="translate(522.692 1376.189)"/>
        <path id="prefix__XMLID_1792_" d="M518.2 966.106a13.4 13.4 0 0 0 3.19 4.279c.156.156.467-.078.311-.311a13.744 13.744 0 0 1-3.112-4.2c-.156-.234-.467 0-.389.233z" class="prefix__cls-1" transform="translate(524.136 1375.423)"/>
        <path id="prefix__XMLID_1785_" d="M594.944 860.952c-.156-.155-.389-.311-.545-.467s-.467.078-.311.311a8.537 8.537 0 0 1 1.867 3.267c.078.234.467.156.389-.078a8.643 8.643 0 0 0-1.945-3.5l-.311.311c.155.156.389.311.545.467s.467-.156.311-.311z" class="prefix__cls-1" transform="translate(507.293 1398.809)"/>
        <path id="prefix__XMLID_1779_" d="M596.723 872.077a7.7 7.7 0 0 0 3.967-2.178c.156-.156-.078-.467-.311-.311a7.43 7.43 0 0 1-3.812 2.1c-.233.078-.078.389.156.389z" class="prefix__cls-1" transform="translate(506.759 1396.785)"/>
        <path id="prefix__XMLID_1772_" d="M610.49 868.823a6.675 6.675 0 0 1 1.167 3.812.2.2 0 0 0 .389 0 6.667 6.667 0 0 0-1.245-3.968c-.078-.234-.467-.078-.311.156z" class="prefix__cls-1" transform="translate(503.65 1397.006)"/>
        <path id="prefix__XMLID_1765_" d="M605.967 882.082a11.441 11.441 0 0 0-1.167 4.59.2.2 0 0 0 .389 0 10.375 10.375 0 0 1 1.167-4.357c0-.233-.311-.389-.389-.233z" class="prefix__cls-1" transform="translate(504.905 1394.018)"/>
        <path id="prefix__XMLID_1758_" d="M590.728 884.777a17.519 17.519 0 0 0 4.746-2.178c.233-.156 0-.467-.234-.311a16.375 16.375 0 0 1-4.59 2.1.2.2 0 1 0 .078.389z" class="prefix__cls-1" transform="translate(508.086 1393.969)"/>
        <path id="prefix__XMLID_1751_" d="M602.072 900.4a7.294 7.294 0 0 1 3.034 2.489.2.2 0 1 0 .311-.233 6.921 6.921 0 0 0-3.19-2.567c-.156-.156-.389.234-.156.311z" class="prefix__cls-1" transform="translate(505.533 1390.015)"/>
        <path id="prefix__XMLID_1744_" d="M589.2 894.238c.545 1.789 1.011 3.656 1.556 5.446.078.233.467.156.389-.078-.545-1.789-1.011-3.656-1.556-5.446-.078-.234-.467-.156-.389.078z" class="prefix__cls-1" transform="translate(508.372 1391.354)"/>
        <path id="prefix__XMLID_1736_" d="M594.722 910.577a6.62 6.62 0 0 0 3.578-2.177c.156-.155-.078-.467-.311-.311a5.851 5.851 0 0 1-3.423 2.1c-.233.078-.078.389.156.389z" class="prefix__cls-1" transform="translate(507.203 1388.238)"/>
        <path id="prefix__XMLID_1724_" d="M587.2 915.947a6.72 6.72 0 0 0 1.4 3.812c.156.233.467-.078.311-.311a6.489 6.489 0 0 1-1.322-3.579c0-.156-.389-.156-.389.078z" class="prefix__cls-1" transform="translate(508.813 1386.527)"/>
        <path id="prefix__XMLID_1716_" d="M591.432 927.666a8.479 8.479 0 0 0 4.2-2.567c.156-.156-.078-.467-.311-.311a7.607 7.607 0 0 1-4.045 2.49c-.156.078-.078.466.155.389z" class="prefix__cls-1" transform="translate(507.926 1384.531)"/>
        <path id="prefix__XMLID_1709_" d="M581.653 927.952a6.905 6.905 0 0 1-1.867 5.134c-.156.156.078.467.311.311a6.9 6.9 0 0 0 1.945-5.368c0-.311-.389-.311-.389-.078z" class="prefix__cls-1" transform="translate(510.47 1383.856)"/>
        <path id="prefix__XMLID_1697_" d="M586.441 937.025a5.677 5.677 0 0 1 5.057 1.089c.156.156.467-.156.311-.311a5.884 5.884 0 0 0-5.368-1.167c-.311.078-.233.467 0 .389z" class="prefix__cls-1" transform="translate(509.027 1381.942)"/>
        <path id="prefix__XMLID_1663_" d="M587.908 944.237a5.355 5.355 0 0 1-1.323 4.668c-.156.155.078.467.311.311a5.719 5.719 0 0 0 1.4-5.057c-.078-.233-.467-.155-.389.078z" class="prefix__cls-1" transform="translate(508.961 1380.251)"/>
        <path id="prefix__XMLID_1626_" d="M574 945.737a6.582 6.582 0 0 0 4.045 4.435c.234.078.311-.311.078-.389a6.006 6.006 0 0 1-3.734-4.123c-.078-.233-.467-.156-.389.078z" class="prefix__cls-1" transform="translate(511.746 1379.918)"/>
        <path id="prefix__XMLID_911_" d="M580.63 960.237a6.892 6.892 0 0 1-.233 5.679c-.078.233.233.389.311.233a7.314 7.314 0 0 0 .233-5.99c0-.233-.389-.156-.311.078z" class="prefix__cls-1" transform="translate(510.326 1376.699)"/>
        <path id="prefix__XMLID_823_" d="M584.95 973.629a3.226 3.226 0 0 0 2.8-2.879.2.2 0 0 0-.389 0 2.734 2.734 0 0 1-2.412 2.49.2.2 0 0 0 0 .389z" class="prefix__cls-1" transform="translate(509.351 1374.355)"/>
        <path id="prefix__XMLID_784_" d="M570 957.805a6.666 6.666 0 0 1 .156 4.9c-.078.233.311.311.389.078a7.1 7.1 0 0 0-.156-5.212c-.156-.233-.467 0-.389.233z" class="prefix__cls-1" transform="translate(512.635 1377.264)"/>
        <path id="prefix__XMLID_664_" d="M571.15 973.389a6.217 6.217 0 0 1 3.968 3.423c.078.234.467 0 .311-.233a6.631 6.631 0 0 0-4.2-3.579c-.233 0-.389.311-.078.389z" class="prefix__cls-1" transform="translate(512.415 1373.818)"/>
        <path id="prefix__XMLID_509_" d="M613.147 889.855a7.45 7.45 0 0 0 5.135-2.256c.155-.155-.078-.467-.312-.311a7.312 7.312 0 0 1-4.9 2.178c-.156 0-.156.389.078.389z" class="prefix__cls-1" transform="translate(503.094 1392.859)"/>
        <path id="prefix__XMLID_178_" d="M620.15 882.462a4.947 4.947 0 0 1 4.357 1.945c.156.233.467 0 .311-.234a5.227 5.227 0 0 0-4.668-2.178c-.233.078-.233.467 0 .467z" class="prefix__cls-1" transform="translate(501.536 1394.028)"/>
        <path id="prefix__XMLID_154_" d="M613.2 903.232a15.815 15.815 0 0 1 1.167 5.368.2.2 0 0 0 .389 0 17.114 17.114 0 0 0-1.167-5.524c-.078-.156-.467-.078-.389.155z" class="prefix__cls-1" transform="translate(503.043 1389.36)"/>
        <path id="prefix__XMLID_143_" d="M625.586 903.458a6.83 6.83 0 0 1 3.656-4.357c.233-.078 0-.467-.233-.311a7.249 7.249 0 0 0-3.812 4.59.2.2 0 1 0 .389.078z" class="prefix__cls-1" transform="translate(500.379 1390.303)"/>
        <path id="prefix__XMLID_126_" d="M636.572 911.4a4.858 4.858 0 0 0 4.823.233c.233-.078 0-.467-.233-.311a4.15 4.15 0 0 1-4.435-.233c-.155-.155-.389.156-.155.311z" class="prefix__cls-1" transform="translate(497.873 1387.572)"/>
        <path id="prefix__XMLID_112_" d="M628.6 916.95a11.376 11.376 0 0 1-.7 4.823c-.078.233.311.311.389.078a13.145 13.145 0 0 0 .7-4.9.2.2 0 0 0-.389 0z" class="prefix__cls-1" transform="translate(499.78 1386.301)"/>
        <path id="prefix__XMLID_98_" d="M620.085 920.309a7.9 7.9 0 0 1 2.023 4.979.2.2 0 0 0 .389 0 8.255 8.255 0 0 0-2.179-5.212c-.155-.234-.389.078-.233.233z" class="prefix__cls-1" transform="translate(501.523 1385.586)"/>
        <path id="prefix__XMLID_89_" d="M620.15 939.077a6.663 6.663 0 0 0 5.213-2.178c.155-.156-.078-.467-.312-.311a6.248 6.248 0 0 1-4.9 2.022c-.233 0-.233.389 0 .467z" class="prefix__cls-1" transform="translate(501.536 1381.91)"/>
        <path id="prefix__XMLID_48_" d="M636.8 925.732a9.185 9.185 0 0 1 .389 4.357c-.078.233.311.311.389.078a9.2 9.2 0 0 0-.389-4.59c-.156-.155-.467-.078-.389.156z" class="prefix__cls-1" transform="translate(497.804 1384.364)"/>
        <path id="prefix__XMLID_42_" d="M623.437 950.6c1.945-.778 3.89-1.556 5.835-2.412.233-.078.156-.467-.078-.389-1.945.778-3.89 1.556-5.835 2.412-.233.156-.155.544.078.389z" class="prefix__cls-1" transform="translate(500.816 1379.415)"/>
        <path id="prefix__XMLID_37_" d="M619.542 950.246a9.258 9.258 0 0 1-.545 4.59c-.078.233.311.311.389.078a9.919 9.919 0 0 0 .622-4.746c-.078-.156-.467-.156-.467.078z" class="prefix__cls-1" transform="translate(501.755 1378.91)"/>
        <path id="prefix__XMLID_33_" d="M613.866 962.286a6.619 6.619 0 0 1 2.956 2.334c.156.233.467 0 .311-.234a6.764 6.764 0 0 0-3.19-2.49c-.155-.078-.311.311-.078.389z" class="prefix__cls-1" transform="translate(502.919 1376.286)"/>
        <path id="prefix__XMLID_45_" d="M610.656 968.75a9.694 9.694 0 0 1-1.167 3.579c-.156.234.233.389.311.234a10.863 10.863 0 0 0 1.167-3.812c.078-.233-.311-.233-.311 0z" class="prefix__cls-1" transform="translate(503.872 1374.799)"/>
        <path id="prefix__XMLID_47_" d="M602.288 973.409a13.74 13.74 0 0 0 5.446 3.89c.233.078.311-.311.078-.389a13.146 13.146 0 0 1-5.212-3.734c-.156-.233-.467.078-.311.233z" transform="translate(505.473 1373.797)"/>
        <path id="prefix__XMLID_2927_" d="M532.025 921.044l.389-1.089s1.634-.7 1.634.856v6.457c0 2.1-3.812 2.8-5.524 5.213s-1.4 3.579-2.49 5.212-6.535 5.135-6.535 5.135 7.08-9.647 8.48-12.292c1.321-2.801 4.046-9.492 4.046-9.492z" transform="translate(523.844 1385.629)"/>
        <path id="prefix__XMLID_2935_" d="M594.381 893.1s-1.945 1.634-.7 5.057 4.045 3.812 5.135 6.379-2.178 11.281-2.023 19.216c0 0 4.9-15.171 6.3-17.582.002 0-8.634-11.67-8.712-13.07z" transform="translate(507.466 1391.556)"/>
    </g>
</svg>
