<svg xmlns="http://www.w3.org/2000/svg" width="84.116" height="85.149" viewBox="0 0 84.116 85.149">
    <defs>
        <style>
            .prefix__cls-1{fill:none;stroke:#000;stroke-linecap:round;stroke-linejoin:bevel}.prefix__cls-2{fill:#3b88fd;opacity:.62}
        </style>
    </defs>
    <g id="prefix__Group_7804" data-name="Group 7804" transform="translate(2.2 -1.132)">
        <g id="prefix__Layer_7" transform="translate(8.509 1.4)">
            <path id="prefix__Path_2075" d="M20.9 166.92V149.8h21.321v17.12" class="prefix__cls-1" data-name="Path 2075" transform="translate(-20.9 -82.765)"/>
            <path id="prefix__Path_2076" d="M31.2 175.786V166.3h11.835v9.486" class="prefix__cls-1" data-name="Path 2076" transform="translate(-26.547 -91.812)"/>
            <path id="prefix__Path_2077" d="M28.469 163.375s-1.355-1.491 0-2.575h13.326s1.717 1.084 0 2.936" class="prefix__cls-1" data-name="Path 2077" transform="translate(-24.72 -88.797)"/>
            <path id="prefix__Path_2078" d="M115.6 167.42V150.3h21.321v17.12" class="prefix__cls-1" data-name="Path 2078" transform="translate(-72.823 -83.04)"/>
            <path id="prefix__Path_2079" d="M125.9 176.231V166.7h11.835v9.531" class="prefix__cls-1" data-name="Path 2079" transform="translate(-78.47 -92.031)"/>
            <path id="prefix__Path_2080" d="M123.169 163.875s-1.355-1.491 0-2.575h13.326s1.717 1.084 0 2.936" class="prefix__cls-1" data-name="Path 2080" transform="translate(-76.642 -89.071)"/>
            <path id="prefix__Line_230" d="M0 9.576L0 0" class="prefix__cls-1" data-name="Line 230" transform="translate(21.321 57.368)"/>
            <path id="prefix__Line_231" d="M0 0L0 9.938" class="prefix__cls-1" data-name="Line 231" transform="translate(42.823 57.368)"/>
            <path id="prefix__Line_232" d="M0 0L0 12.513" class="prefix__cls-1" data-name="Line 232" transform="translate(24.393 57.368)"/>
            <path id="prefix__Line_233" d="M0 0L0 9.531" class="prefix__cls-1" data-name="Line 233" transform="translate(24.393 72.094)"/>
            <path id="prefix__Line_234" d="M0 0L0 25.386" class="prefix__cls-1" data-name="Line 234" transform="translate(40.067 57.368)"/>
            <path id="prefix__Path_2081" d="M60.5 122.907V121.1h16.036" class="prefix__cls-1" data-name="Path 2081" transform="translate(-42.612 -67.03)"/>
            <path id="prefix__Path_2082" d="M78.252 121.1h10.932v3.3H60.5" class="prefix__cls-1" data-name="Path 2082" transform="translate(-42.612 -67.03)"/>
            <path id="prefix__Path_2083" d="M23.2 126.224l.136-19.424H84.95v19.288" class="prefix__cls-1" data-name="Path 2083" transform="translate(-22.161 -59.189)"/>
            <path id="prefix__Line_235" d="M0 0L63.873 0" class="prefix__cls-1" data-name="Line 235" transform="translate(.136 50.366)"/>
            <path id="prefix__Line_236" d="M0 0L17.662 0.181" class="prefix__cls-1" data-name="Line 236" transform="translate(.136 54.793)"/>
            <path id="prefix__Line_237" d="M0 0.181L17.436 0" class="prefix__cls-1" data-name="Line 237" transform="translate(46.572 54.793)"/>
            <path id="prefix__Path_2084" d="M28.536 97.863L28.4 90.5h57.413l.09 7.363" class="prefix__cls-1" data-name="Path 2084" transform="translate(-25.012 -50.252)"/>
            <path id="prefix__Path_2085" d="M62 102.836V99.9h2.484" class="prefix__cls-1" data-name="Path 2085" transform="translate(-43.434 -55.406)"/>
            <path id="prefix__Path_2086" d="M117.7 99.9h2.3v2.936" class="prefix__cls-1" data-name="Path 2086" transform="translate(-73.974 -55.406)"/>
            <path id="prefix__Path_2087" d="M65.9 97.213V95h2.033" class="prefix__cls-1" data-name="Path 2087" transform="translate(-45.573 -52.719)"/>
            <path id="prefix__Path_2088" d="M73.7 95h20.643v2.213" class="prefix__cls-1" data-name="Path 2088" transform="translate(-49.849 -52.719)"/>
            <path id="prefix__Path_2089" d="M34.745 85.785L34.7 81.9h51v3.885" class="prefix__cls-1" data-name="Path 2089" transform="translate(-28.466 -45.537)"/>
            <path id="prefix__Path_2090" d="M43.19 74.176L43.1 67.4h43.545l.045 6.776" class="prefix__cls-1" data-name="Path 2090" transform="translate(-33.072 -37.587)"/>
            <path id="prefix__Path_2091" d="M68.5 79.359V77.1h2.123" class="prefix__cls-1" data-name="Path 2091" transform="translate(-46.998 -42.905)"/>
            <path id="prefix__Path_2092" d="M110.2 77.1h1.988v2.259" class="prefix__cls-1" data-name="Path 2092" transform="translate(-69.862 -42.905)"/>
            <path id="prefix__Path_2093" d="M71.5 75.071V73.4h12.6" class="prefix__cls-1" data-name="Path 2093" transform="translate(-48.643 -40.876)"/>
            <path id="prefix__Path_2094" d="M102.7 73.4h4.246v1.671" class="prefix__cls-1" data-name="Path 2094" transform="translate(-65.75 -40.876)"/>
            <path id="prefix__Path_2095" d="M47.9 63.069V59.5h38.667v3.569" class="prefix__cls-1" data-name="Path 2095" transform="translate(-35.704 -33.255)"/>
            <path id="prefix__Path_2096" d="M58.045 53.962L58 49.4h30.626l.045 4.562" class="prefix__cls-1" data-name="Path 2096" transform="translate(-41.241 -27.718)"/>
            <path id="prefix__Path_2097" d="M75.9 57.491V56h1.491" class="prefix__cls-1" data-name="Path 2097" transform="translate(-51.056 -31.336)"/>
            <path id="prefix__Path_2098" d="M105.2 56h1.4v1.491" class="prefix__cls-1" data-name="Path 2098" transform="translate(-67.12 -31.336)"/>
            <path id="prefix__Path_2099" d="M78 54.629V53.5h8.854" class="prefix__cls-1" data-name="Path 2099" transform="translate(-52.207 -29.966)"/>
            <path id="prefix__Path_2100" d="M99.9 53.5h2.981v1.129" class="prefix__cls-1" data-name="Path 2100" transform="translate(-64.214 -29.966)"/>
            <path id="prefix__Path_2101" d="M61.345 43.807L61.3 39.2h27.238v4.607" class="prefix__cls-1" data-name="Path 2101" transform="translate(-43.051 -22.125)"/>
            <path id="prefix__Path_2102" d="M66.7 32.621V27.2h22.721v5.421" class="prefix__cls-1" data-name="Path 2102" transform="translate(-46.011 -15.546)"/>
            <path id="prefix__Path_2103" d="M74.49 35.033L74.4 31.6h16.171v3.433" class="prefix__cls-1" data-name="Path 2103" transform="translate(-50.233 -17.958)"/>
            <path id="prefix__Path_2104" d="M68.981 21.333L68.8 16.5h20.6l.09 4.833" class="prefix__cls-1" data-name="Path 2104" transform="translate(-47.163 -9.679)"/>
            <path id="prefix__Path_2105" d="M81.8 8.221L86.136 1.4l.271.452 4.02 6.369s.813-4.833 1.9 0" class="prefix__cls-1" data-name="Path 2105" transform="translate(-54.291 -1.4)"/>
            <path id="prefix__Path_2106" d="M108.1 14.193c-1.084-4.833-1.9 0-1.9 0" class="prefix__cls-1" data-name="Path 2106" transform="translate(-67.669 -7.236)"/>
            <path id="prefix__Path_2107" d="M113 14.493c-1.084-4.833-1.9 0-1.9 0" class="prefix__cls-1" data-name="Path 2107" transform="translate(-70.355 -7.401)"/>
            <path id="prefix__Path_2108" d="M67.9 13.893s.813-4.833 1.9 0" class="prefix__cls-1" data-name="Path 2108" transform="translate(-46.669 -7.072)"/>
            <path id="prefix__Path_2109" d="M74.942 13.293c-1.084-4.833-1.942 0-1.942 0" class="prefix__cls-1" data-name="Path 2109" transform="translate(-49.466 -6.743)"/>
            <path id="prefix__Path_2110" d="M79.9 13.593c-1.084-4.833-1.9 0-1.9 0" class="prefix__cls-1" data-name="Path 2110" transform="translate(-52.207 -6.907)"/>
            <path id="prefix__Path_2111" d="M119 129.159v6.776h16.713V126.9h-13.1v2.259z" class="prefix__cls-2" data-name="Path 2111" transform="translate(-74.687 -70.21)"/>
            <path id="prefix__Path_2112" d="M43.713 128.159v6.776H27V125.9h13.1v2.259z" class="prefix__cls-2" data-name="Path 2112" transform="translate(-24.245 -69.661)"/>
            <path id="prefix__Rectangle_849" d="M0 0H11.745V4.969H0z" class="prefix__cls-2" data-name="Rectangle 849" transform="translate(47.475 41.332)"/>
            <path id="prefix__Rectangle_850" d="M0 0H11.745V4.969H0z" class="prefix__cls-2" data-name="Rectangle 850" transform="translate(5.014 41.332)"/>
            <path id="prefix__Rectangle_851" d="M0 0H9.486V4.517H0z" class="prefix__cls-2" data-name="Rectangle 851" transform="translate(42.958 30.943)"/>
            <path id="prefix__Rectangle_852" d="M0 0H9.486V4.517H0z" class="prefix__cls-2" data-name="Rectangle 852" transform="translate(10.886 30.943)"/>
            <path id="prefix__Rectangle_853" d="M0 0H5.872V3.162H0z" class="prefix__cls-2" data-name="Rectangle 853" transform="translate(40.7 22.36)"/>
            <path id="prefix__Rectangle_854" d="M0 0H5.872V3.162H0z" class="prefix__cls-2" data-name="Rectangle 854" transform="translate(17.662 22.36)"/>
            <path id="prefix__Rectangle_855" d="M0 0H23.941V2.259H0z" class="prefix__cls-2" data-name="Rectangle 855" transform="translate(19.921 18.294)"/>
            <path id="prefix__Path_2113" d="M127.5 176.983V168.4h10.389v1.355h-9.034v5.872z" class="prefix__cls-2" data-name="Path 2113" transform="translate(-79.347 -92.964)"/>
            <path id="prefix__Path_2114" d="M33 176.483V167.9h10.389v1.355h-9.034v5.872z" class="prefix__cls-2" data-name="Path 2114" transform="translate(-27.534 -92.689)"/>
        </g>
        <path id="prefix__Line_238" d="M0 0L33.427 0" class="prefix__cls-1" data-name="Line 238" transform="translate(-1.7 85.645)"/>
        <path id="prefix__Line_239" d="M0 0L23.037 0" class="prefix__cls-1" data-name="Line 239" transform="translate(35.792 85.645)"/>
        <path id="prefix__Path_2115" d="M139.3 187.9h19.424" class="prefix__cls-1" data-name="Path 2115" transform="translate(-77.308 -102.255)"/>
    </g>
</svg>
