<svg xmlns="http://www.w3.org/2000/svg" id="prefix__Group_7406" width="306.869" height="292.828" data-name="Group 7406" viewBox="0 0 306.869 292.828">
    <defs>
        <style>
            .prefix__cls-1{fill:#df3744}.prefix__cls-2,.prefix__cls-3,.prefix__cls-6{fill:#fff}.prefix__cls-3{fill-rule:evenodd}.prefix__cls-6{font-size:8px;font-family:Helvetica}
        </style>
    </defs>
    <path id="prefix__XMLID_6_" d="M503.2 88.761l28.423-.213s-7.984-2.448-11.6-6.6-4.577-6.068-5.748-11.071A20.651 20.651 0 0 1 514.8 58.1a32.069 32.069 0 0 1 4.791-7.771s2.555-3.726 2.98-5.536.852-5.536-.958-7.558a9.927 9.927 0 0 0-5.216-3.513 7.945 7.945 0 0 0-3.62-.319 22.625 22.625 0 0 0-4.045 2.555c-.639.639-4.684 5.748-5.109 8.516a96.667 96.667 0 0 0-.32 10.113z" class="prefix__cls-1" transform="translate(-244.946 2.044)"/>
    <path id="prefix__XMLID_411_" d="M460.624 60.139a8.771 8.771 0 0 1-5.429 1.81 8.926 8.926 0 0 1-3.513-17.139A105.087 105.087 0 0 0 318.3 11.384a23.354 23.354 0 1 1-34.7 28.21 104.781 104.781 0 0 0-23 65.682 114.5 114.5 0 0 0 1.7 19.162 49.523 49.523 0 1 1 59.3 76.326 105.248 105.248 0 0 0 149.35-95.488 107.627 107.627 0 0 0-10.326-45.137z" class="prefix__cls-1" transform="translate(-260.6 -.1)"/>
    <path id="prefix__XMLID_1164_" d="M370.515 146.232h84.1a.268.268 0 0 0 0-.532h-84.1a.268.268 0 0 0 0 .532z" class="prefix__cls-2" transform="translate(-253.523 9.295)"/>
    <path id="prefix__XMLID_1162_" d="M513.615 59.746a44.646 44.646 0 0 0 30.445-5.216c.319-.213 0-.639-.319-.426a44.121 44.121 0 0 1-30.02 5.11c-.319 0-.532.426-.106.532z" transform="translate(-244.289 3.379)"/>
    <path id="prefix__XMLID_1156_" d="M512.214 33.635c5-.426 10.326 3.087 10.113 8.41-.213 5.536-4.9 9.474-7.345 14.052-3.726 6.919-2.768 15.542 1.384 22.036 3.832 6.068 10.645 10.752 17.99 10.752 7.239-.106 13.945-4.471 15.968-11.5 2.023-6.813 1.064-18.523-6.281-21.929-.32-.106-.532.319-.32.426 7.558 3.619 8.2 16.607 5.323 23.313-3.726 8.516-14.158 11.178-22.249 7.558a23.611 23.611 0 0 1-13.626-20.12 19.993 19.993 0 0 1 3.406-12.242c2.235-3.3 5-6.387 5.961-10.432 1.49-6.281-4.152-11.39-10.326-10.858a.268.268 0 0 0 0 .532z" transform="translate(-244.38 2.026)"/>
    <path id="prefix__XMLID_1150_" d="M535.037 85c-10.539 0-21.078.106-31.723.213a.268.268 0 0 0 0 .532c10.539 0 21.078-.106 31.723-.213a.268.268 0 0 0 0-.532z" transform="translate(-244.954 5.378)"/>
    <path id="prefix__XMLID_1144_" d="M433.346 239.925c-17.032 0-33.958-.106-50.991-.106-8.3 0-16.607-.106-25.016-.106h-6.174a14.191 14.191 0 0 1-2.129 0 2.554 2.554 0 0 0 2.236-.639 15.338 15.338 0 0 0 5.11-5.961c2.768-5.323 2.448-11.71 2.448-17.565-.106-8.623 0-17.352 0-25.975V87.272c0-15.223-.426-30.339-.106-45.562a18.313 18.313 0 0 1 .213-3.407c.639-2.342 2.555-3.3 4.684-4.045 2.768-.958 5.855-.532 8.836-.532h149.032c.426-.319.319-.213-.426.213-1.81 1.6-3.619 2.661-5.11 4.684a17.767 17.767 0 0 0-3.194 7.771c-.532 3.832-.213 7.984-.213 11.816V96c0 1.7.213 2.555-.532 3.832-.639 1.065-1.171 2.129-1.81 3.194-13.519 23.952-27.039 47.8-40.558 71.749-12.029 21.4-24.165 42.794-36.194 64.191-.213.426-.426.745-.639 1.171-.213.319.319.532.426.319 10.752-18.949 21.5-38 32.149-56.952 14.584-25.868 29.168-51.63 43.752-77.5 1.171-2.023 3.087-4.365 3.726-6.6.639-2.023.106-5.11.106-7.345V48.736a.268.268 0 0 0-.532 0v.106a.268.268 0 0 0 .532 0 17.454 17.454 0 0 1 9.474-15.01c.213-.106.106-.532-.106-.532-51.2 0-102.407.106-153.611 0-3.087 0-6.919.213-9.368 2.555-2.235 2.129-1.6 6.6-1.6 9.368.213 11.923.106 23.845.106 35.768v123.166c0 6.6.426 13.307-.106 19.907-.532 6.494-2.874 12.987-9.155 15.861-.319.106-.107.639.213.532 1.171-.532 3.832 0 5.11 0h15.649c7.132 0 14.265 0 21.4.106 14.052 0 28.1.106 42.155.106.639-.212.639-.744.213-.744z" transform="translate(-254.931 2.042)"/>
    <path id="prefix__XMLID_614_" d="M492.194 101.507a29.015 29.015 0 0 0-10.965 9.581 85.14 85.14 0 0 0-7.984 27.465c-.213 15.436.213 13.626.213 13.626s-7.345 3.939-8.3 5l-12.987-22.887-44.923.532-.745 1.384L428.11 175.6l21.61-.213-4.684 3.613s-7.665 6.813-10.007 14.052-5.429 18.523-5.11 42.581c-.426 14.691-.852 26.294-.852 26.294s-2.874 2.661-1.916 4.152c.958 1.6 4.045.532 6.494-1.49a30.291 30.291 0 0 0 3.406-2.981s5-9.9 6.068-14.052 5.748-16.394 5.642-20.12l5.855 21.078s4.364 13.945 4.577 19.374c.426 3.619.639 5.11.639 5.11s-2.129 1.81-1.7 2.874c.426 1.171 1.81 2.236 2.981 1.7a18.18 18.18 0 0 0 5.961-5.323s5.748-30.765 5.961-49.5c.107-10.326.213-14.265.213-14.265a95.337 95.337 0 0 0 13.52-1.384s8.623 8.516 11.284 10.539 10.858 9.048 17.99 10.645 4.045 1.916 14.9 1.171c0 0 9.581-23.845 10.326-31.191s1.81-11.5.532-20.971a42.611 42.611 0 0 0-7.984-19.268s3.194-5.429 3.513-8.942a52.168 52.168 0 0 0-.852-19.374c-2.129-10.007-9.794-22.887-12.455-25.549s-7.558-7.984-14.9-9.368c0 0-8.516 6.6-11.39 7.345-1.171.319-3.087 1.384-4.365 1.065s-1.278-.319-1.171-.745a2.717 2.717 0 0 0-.002-.95z" class="prefix__cls-1" transform="translate(-251.186 6.01)"/>
    <path id="prefix__XMLID_595_" d="M473.226 78.442s.106 3.513.319 4.471a14.266 14.266 0 0 1 2.555-.213c.426.106.745 0 1.171.745s.426.745 0 1.384a9.835 9.835 0 0 1-1.7 1.6s-1.065 1.7-1.81 1.916a1.509 1.509 0 0 0-.958.639 2.4 2.4 0 0 0 1.171 1.49 14.825 14.825 0 0 0 2.448.532h.213a16.256 16.256 0 0 0 2.236 2.981 6.188 6.188 0 0 0 4.471 1.277 9.79 9.79 0 0 0 3.513-.852 6.761 6.761 0 0 1 2.342 3.087c.532 1.81-.213 7.452-.213 7.452s3.087.852 10.858-4.365c5.11-3.406 4.9-4.045 4.9-4.045s-8.623-8.2-8.942-14.052a2.244 2.244 0 0 0 1.7-.639 5 5 0 0 0 1.49-2.981 4.292 4.292 0 0 0-1.916-3.194c-1.171-.426-2.342-2.555-2.342-2.555l-13.2-3.619z" class="prefix__cls-1" transform="translate(-246.908 4.378)"/>
    <path id="prefix__XMLID_1138_" d="M472.9 77.915a17.371 17.371 0 0 0 .319 4.684.273.273 0 0 0 .532-.106 16.318 16.318 0 0 1-.319-4.577.268.268 0 0 0-.532 0z" transform="translate(-246.904 4.905)"/>
    <path id="prefix__XMLID_1132_" d="M476.1 89.725c2.342 5.536 9.049 5.536 13.094 1.81.213-.213-.106-.639-.426-.426-3.832 3.406-10.006 3.513-12.242-1.7-.106-.213-.532 0-.426.319z" transform="translate(-246.696 5.658)"/>
    <path id="prefix__XMLID_1126_" d="M477.874 82.227c-1.7-2.661-5.748-5.536-8.41-2.342-2.768 3.3.426 7.345 3.407 9.049.319.213.532-.319.319-.426-2.342-1.384-4.9-3.939-3.939-7.026 1.49-4.684 6.494-1.6 8.3.958 0 .319.532 0 .319-.213z" transform="translate(-247.191 4.957)"/>
    <path id="prefix__XMLID_1120_" d="M475.269 85.208a3.961 3.961 0 0 1-2.129 2.023c-.213.106-.532.106-.639.426-.213.745 1.064 1.7 1.6 2.023a3.615 3.615 0 0 0 5.11-2.129c.106-.319-.426-.426-.532-.106a3.065 3.065 0 0 1-2.129 2.129c-.851.213-2.874-.106-3.193-1.171-.213-.745.958-.852 1.384-1.277a5.175 5.175 0 0 0 1.171-1.49c-.106-.426-.532-.745-.639-.426z" transform="translate(-246.929 5.384)"/>
    <path id="prefix__XMLID_1185_" d="M481.5 90.094a3.519 3.519 0 0 0 2.449.745 2.469 2.469 0 0 0 2.022-1.49 2.131 2.131 0 0 0-.532-2.448h-.106c-1.277.958-2.661 1.916-3.832 2.981" class="prefix__cls-2" transform="translate(-246.346 5.5)"/>
    <path id="prefix__XMLID_1114_" d="M481.411 90.324a3.366 3.366 0 0 0 4.258-.106 2.413 2.413 0 0 0 0-3.513.2.2 0 0 0-.319 0 21.594 21.594 0 0 0-1.916 1.384c-.745.532-1.384 1.065-2.129 1.7-.213.213.107.639.426.426a27.331 27.331 0 0 1 3.939-2.981h-.319a1.922 1.922 0 0 1-.319 2.981 3.07 3.07 0 0 1-3.408-.215c-.213-.319-.532.106-.213.319z" transform="translate(-246.363 5.482)"/>
    <path id="prefix__XMLID_1108_" d="M481.268 75.8c-7.132 1.277-5 12.242 1.81 11.816 7.452-.426 5.11-12.561-2.023-11.71a.268.268 0 0 0 0 .532c7.239-.745 8.3 11.5 1.171 10.645-5.749-.639-6.813-9.581-.745-10.645.213-.213.106-.745-.213-.639z" transform="translate(-246.647 4.783)"/>
    <path id="prefix__XMLID_1102_" d="M485.7 93.129c3.3 2.661 2.981 6.281 2.129 10.113-.106.319.426.426.532.106.852-4.045 1.171-7.771-2.236-10.645-.319-.213-.639.213-.426.426z" transform="translate(-246.079 5.871)"/>
    <path id="prefix__XMLID_990_" d="M495.768 60.942c-.213.106-.319.319-.532.426a14.687 14.687 0 0 0-12.029-3.513v-.213c-.213-2.448-.213-5 1.065-7.132a7.249 7.249 0 0 1 7.665-3.3A8.084 8.084 0 0 1 498 53.064a8.263 8.263 0 0 1-2.236 7.878" transform="translate(-246.243 2.93)"/>
    <path id="prefix__XMLID_1096_" d="M475.807 61.1c-5.535 2.661-8.623 9.581-5.429 15.223 3.939 6.919 10.113.213 12.881-3.832.213-.319-.319-.532-.426-.319a23.617 23.617 0 0 1-4.471 5.216c-3.513 2.874-7.345.319-8.3-3.726a10.758 10.758 0 0 1 6.174-12.136c.213-.106-.106-.532-.426-.426z" transform="translate(-247.147 3.834)"/>
    <path id="prefix__XMLID_1090_" d="M482.43 71.849c2.236-1.916 4.152 4.471 4.471 5.748.319 1.171.745 2.448 1.916 2.981 1.6.745 3.087-1.171 3.193-2.661a.268.268 0 0 0-.532 0 3.147 3.147 0 0 1-1.384 2.235c-1.49.532-2.342-1.6-2.661-2.661a25.493 25.493 0 0 0-1.916-4.684c-.745-1.277-2.129-2.448-3.513-1.277-.213.106.106.532.426.319z" transform="translate(-246.318 4.478)"/>
    <path id="prefix__XMLID_1083_" d="M491.432 77.593a2.941 2.941 0 0 1 5.323-1.384c1.384 1.81.426 5.429-2.236 5.429a.268.268 0 0 0 0 .532c3.087 0 4.365-4.365 2.555-6.494a3.492 3.492 0 0 0-6.174 1.81c0 .532.532.532.532.106z" transform="translate(-245.74 4.694)"/>
    <path id="prefix__XMLID_1077_" d="M494.1 81.82a30.8 30.8 0 0 0 4.258 8.836c1.49 1.916 3.3 3.513 4.684 5.429a.267.267 0 1 0 .426-.319 55.369 55.369 0 0 0-4.045-4.684c-2.342-2.768-3.619-6.068-4.79-9.474-.106-.213-.639-.106-.532.213z" transform="translate(-245.534 5.152)"/>
    <path id="prefix__XMLID_1069_" d="M476.025 61.533a19.847 19.847 0 0 1 15.968 0c5.748 2.661 7.665 9.474 5.642 15.223-.106.319.426.426.532.106 2.023-5.323.426-12.242-4.684-15.223-5.323-3.087-12.136-2.874-17.671-.532-.426.106-.106.532.213.426z" transform="translate(-246.727 3.721)"/>
    <path id="prefix__XMLID_1061_" d="M492.91 77.033a2.4 2.4 0 0 1 2.129 2.661.268.268 0 0 0 .532 0 3.024 3.024 0 0 0-2.448-3.194c-.319-.106-.532.426-.213.532z" transform="translate(-245.62 4.827)"/>
    <path id="prefix__XMLID_1054_" d="M494.142 77.808a11.636 11.636 0 0 1-.639 1.171c-.213.319.319.532.426.319a11.672 11.672 0 0 1 .639-1.171c.213-.319-.319-.639-.426-.319z" transform="translate(-245.575 4.904)"/>
    <path id="prefix__XMLID_1046_" d="M489.343 100.4c-8.3 3.087-13.732 10.645-16.394 18.736a86.787 86.787 0 0 0-3.939 32.575.268.268 0 0 0 .532 0 90.978 90.978 0 0 1 3.194-29.807c2.555-8.942 7.771-17.565 16.82-21.078.213 0 .106-.532-.213-.426z" transform="translate(-247.163 6.371)"/>
    <path id="prefix__XMLID_1038_" d="M493.5 115.922a52.44 52.44 0 0 0 18.416 29.807c.213.213.639-.213.426-.426a51.21 51.21 0 0 1-18.31-29.594c-.106-.319-.639-.106-.532.213z" transform="translate(-245.573 7.349)"/>
    <path id="prefix__XMLID_1032_" d="M514.421 143a87.711 87.711 0 0 0-34.921 19.8c-.213.213.107.639.426.426a87.41 87.41 0 0 1 34.7-19.694c.213-.106.106-.639-.213-.532z" transform="translate(-246.479 9.12)"/>
    <path id="prefix__XMLID_1026_" d="M479.3 162.124c1.065 4.471 3.194 7.132 7.984 5.961a123.8 123.8 0 0 1 20.758-3.194.268.268 0 0 0 0-.532 109.9 109.9 0 0 0-14.371 1.6c-2.342.426-4.684 1.277-7.026 1.7-4.365.852-5.961-2.023-6.813-5.748-.106-.319-.532-.213-.532.213z" transform="translate(-246.488 10.329)"/>
    <path id="prefix__XMLID_1020_" d="M506.657 169.218c7.771-1.171 15.648-3.513 20.545-10.007s5.323-15.329 4.364-23.1a64.458 64.458 0 0 0-9.155-25.868c-4.577-7.345-10.858-14.052-19.694-15.542-.319-.106-.426.426-.106.532 9.048 1.6 15.329 8.623 19.906 16.074a64.487 64.487 0 0 1 8.623 24.8c.958 7.878.426 16.926-4.684 23.313-4.9 6.068-12.455 8.2-19.8 9.261-.426 0-.319.532 0 .532z" transform="translate(-244.996 6.004)"/>
    <path id="prefix__XMLID_1013_" d="M461.826 154.059a48.921 48.921 0 0 1 13.413-7.026c.319-.106.213-.639-.106-.532a50.46 50.46 0 0 0-13.626 7.132c-.319.213.106.532.319.426z" transform="translate(-247.644 9.345)"/>
    <path id="prefix__Path_612" d="M469.927 168.626c2.661-3.194 6.174-6.281 10.432-6.494a.268.268 0 0 0 0-.532c-4.471.213-8.09 3.3-10.858 6.707-.106.213.213.639.426.319z" data-name="Path 612" transform="translate(-247.122 10.321)"/>
    <path id="prefix__Path_613" d="M471.726 168.407c1.916-2.023 5.961-.852 8.3-.532.958.106 2.555.426 3.087-.745.107-.319-.319-.532-.426-.319-.639 1.384-4.79 0-6.068-.106-1.916-.106-3.832-.213-5.216 1.277-.319.319.106.639.319.426z" data-name="Path 613" transform="translate(-247.005 10.647)"/>
    <path id="prefix__XMLID_978_" d="M474.008 159.229a20.028 20.028 0 0 0 7.452 1.7.268.268 0 0 0 0-.532 21.039 21.039 0 0 1-7.239-1.6c-.213-.213-.532.213-.213.426z" transform="translate(-246.838 10.138)"/>
    <path id="prefix__XMLID_961_" d="M465.927 161.994a28.307 28.307 0 0 1 8.836-2.661c.319 0 .213-.532-.107-.532a29.751 29.751 0 0 0-9.048 2.768c-.319.106 0 .639.319.426z" transform="translate(-247.38 10.141)"/>
    <path id="prefix__XMLID_956_" d="M447.3 171.5c-12.136 6.919-16.5 20.865-17.778 33.852-.745 8.3-.745 16.713-1.065 25.123-.319 8.836-.745 17.565-.958 26.4a.268.268 0 0 0 .532 0c.426-15.862.745-31.723 1.7-47.584.852-14.052 4.577-29.807 17.778-37.365.319-.213.106-.639-.213-.426z" transform="translate(-249.831 10.957)"/>
    <path id="prefix__XMLID_955_" d="M427.715 251.932a.268.268 0 0 0 0-.532.268.268 0 0 0 0 .532z" transform="translate(-249.832 16.115)"/>
    <path id="prefix__XMLID_954_" d="M446.811 219.011A135.293 135.293 0 0 1 435.1 253.4c-.106.319.319.532.426.319a133.615 133.615 0 0 0 11.816-34.491.287.287 0 1 0-.532-.213z" transform="translate(-249.341 14.015)"/>
    <path id="prefix__XMLID_953_" d="M457.073 177.9c-2.342 1.171-4.577 2.448-6.068 4.684a40.969 40.969 0 0 0-4.152 7.665c-2.874 7.452-2.981 15.755-1.916 23.633 2.342 18.31 10.752 35.342 12.349 53.865a.268.268 0 0 0 .532 0c-1.49-16.607-8.3-32.149-11.5-48.436-1.6-8.3-2.342-17.139-.106-25.442a38.023 38.023 0 0 1 4.577-9.9c1.6-2.661 3.832-4.152 6.6-5.535.213-.213-.106-.745-.319-.532z" transform="translate(-248.745 11.37)"/>
    <path id="prefix__XMLID_944_" d="M469.281 201.714A277.511 277.511 0 0 1 463 265.267c-.106.319.426.426.532.106a278.438 278.438 0 0 0 6.28-63.659.268.268 0 0 0-.532 0z" transform="translate(-247.541 12.894)"/>
    <path id="prefix__XMLID_942_" d="M443.215 173.939c18.629 2.448 30.871 17.991 43.22 30.446 10.752 10.965 25.549 23.313 42.049 20.439a.273.273 0 0 0-.106-.532c-18.629 3.194-34.491-12.881-46.2-25.123-10.752-11.39-22.674-23.633-38.962-25.868-.319.106-.319.639 0 .639z" transform="translate(-248.832 11.077)"/>
    <path id="prefix__XMLID_927_" d="M526.514 154.924c15.649 21.5 5.536 48.968-3.513 70.9-.106.319.426.426.532.106 9.048-22.036 19.161-49.607 3.406-71.324-.213-.213-.639 0-.426.319z" transform="translate(-243.669 9.863)"/>
    <path id="prefix__XMLID_918_" d="M467.814 201.917a54.448 54.448 0 0 0 15.01-1.384c.319-.106.213-.639-.107-.532a50.194 50.194 0 0 1-14.9 1.277c-.319.107-.319.639 0 .639z" transform="translate(-247.245 12.797)"/>
    <path id="prefix__XMLID_904_" d="M406.4 134.048c7.239 13.094 14.371 26.187 21.61 39.388 0 .106.106.106.213.106 21.823-.106 43.539-.213 65.362-.426 3.087 0 6.174 0 9.261-.106a.34.34 0 0 0 .319-.319v-2.981a.34.34 0 0 0-.319-.319c-4.684.106-9.368.213-14.052.426l-10.007.319c-1.171 0-3.832.639-5 .106.319.106.107 0-.106-.426a17.216 17.216 0 0 1-1.065-1.916c-1.171-2.129-2.448-4.365-3.619-6.494l-9.9-17.884c-2.236-3.939-4.365-7.878-6.6-11.816 0-.106-.107-.106-.213-.106-15.01.213-29.913.319-44.923.532-.107 0-.213 0-.213.106a8.79 8.79 0 0 1-.745 1.384c-.106.319.319.532.426.319.532-1.064.213-1.064.958-1.277a12.024 12.024 0 0 1 2.768 0c3.407 0 6.706-.106 10.113-.106l24.8-.319c1.81 0 4.577-.639 6.387-.106.532.213-.213-.319.213.106a8.317 8.317 0 0 1 1.171 2.129c3.726 6.6 7.345 13.307 11.071 19.907 2.981 5.429 6.068 10.858 9.048 16.287 0 .106.106.106.213.106 4.9-.106 9.9-.319 14.8-.426l10.007-.319c1.065 0 2.023-.106 3.087-.106.213 0 .639-.106.852 0 .532.213-.107-.319 0 0a7.135 7.135 0 0 1 0 2.129c0 .532 0 .426.213.319-.107.106-.745 0-.852 0-1.49-.106-3.087 0-4.577 0-5.748 0-11.39.106-17.139.106-13.732.107-27.358.213-41.091.213h-6.919a21.774 21.774 0 0 1-3.726 0c-.319-.106-.426-.106-.213.106a3.329 3.329 0 0 1-.532-1.064c-.958-1.81-2.023-3.726-2.981-5.536-5.961-10.965-12.029-21.823-17.991-32.788.108.108-.318.427-.109.746z" transform="translate(-251.196 8.387)"/>
    <path id="prefix__XMLID_896_" d="M406.815 134.271c13.094-.213 26.187-.319 39.281-.532 1.277 0 4.045-.639 5.216-.106-.319-.106 0 .213.213.532.426.958.958 1.81 1.49 2.768 3.726 6.707 7.345 13.52 11.071 20.226 2.874 5.216 5.748 10.539 8.623 15.755a.267.267 0 1 0 .426-.319c-7.239-13.094-14.371-26.294-21.61-39.388 0-.106-.106-.106-.213-.106l-44.6.639c-.213.106-.213.639.107.532z" transform="translate(-251.182 8.483)"/>
    <ellipse id="prefix__XMLID_588_" cx="3.194" cy="1.81" class="prefix__cls-2" rx="3.194" ry="1.81" transform="rotate(-20.274 354.13 -603.536)"/>
    <path id="prefix__XMLID_887_" d="M471.219 86.173a5.755 5.755 0 0 0 6.387-2.448c.213-.319-.319-.532-.426-.319v.106c.213.106.319.106.532.213.639-2.342-2.236-2.235-3.62-1.81-1.7.532-4.045 1.916-2.874 4.045a.267.267 0 1 0 .426-.319c-.852-1.6.958-2.661 2.129-3.087.958-.319 3.939-1.065 3.407 1.065-.107.319.319.426.532.213v-.106c-.107-.106-.32-.213-.426-.319a5.015 5.015 0 0 1-5.749 2.236c-.532-.106-.639.426-.319.532z" transform="translate(-247.03 5.163)"/>
    <path id="prefix__XMLID_18_" d="M472.164 83s3.087-.213 2.342 2.661l-1.81.426-1.277-.319-.319-1.068.426-1.065z" transform="translate(-247.017 5.248)"/>
    <path id="prefix__XMLID_879_" d="M478.219 83.173a5.755 5.755 0 0 0 6.387-2.448c.213-.319-.319-.532-.426-.319v.106c.213.106.319.106.532.213.639-2.342-2.235-2.236-3.619-1.81-1.7.532-4.045 1.916-2.874 4.045.213.319.639 0 .426-.319-.852-1.6.958-2.661 2.129-3.087.958-.319 3.939-1.065 3.407 1.065-.106.319.319.426.532.213v-.106c-.106-.106-.319-.213-.426-.319a5.015 5.015 0 0 1-5.749 2.235c-.532-.106-.639.426-.319.532z" transform="translate(-246.578 4.969)"/>
    <path id="prefix__XMLID_39_" d="M479.165 80s3.087-.213 2.342 2.661l-1.81.426-1.277-.319-.32-1.068.426-1.065z" transform="translate(-246.566 5.054)"/>
    <path id="prefix__XMLID_60_" d="M440.4 176.25s9.262-.106 10.858 6.919c0 0 3.087-3.726 6.068-4.79 0 0-9.474-5-13.945-4.577z" transform="translate(-248.998 11.106)"/>
    <path id="prefix__XMLID_447_" d="M450.9 182.9s6.387 1.916 9.474 4.471 10.539 14.052 12.348 15.223a2.809 2.809 0 0 0 .958.532l10.219-1.6s-9.9-10.432-12.029-12.136c-2.023-1.6-10.432-9.9-14.9-11.39.104.106-5.964 1.6-6.07 4.9z" transform="translate(-248.321 11.379)"/>
    <path id="prefix__XMLID_3_" d="M444.618 202.4a37.989 37.989 0 0 0-1.916 14.158c.319 8.516 1.7 11.816.532 17.245l3.406-13.626s-1.7-9.687-1.81-12.987-.212-4.79-.212-4.79z" transform="translate(-248.852 12.954)"/>
    <path id="prefix__XMLID_26_" d="M500.1 165.7s7.452.958 10.858 1.277a43.459 43.459 0 0 0 12.774-1.277c3.513-.958 4.577-.958 5.109 0 .639.958 1.81 2.874 3.726 2.555s2.023-.852 2.023-.852-3.939-10.858-6.813-13.2c0 0-4.577 5-8.3 7.239-4.477 2.765-14.906 3.829-19.377 4.258z" transform="translate(-245.146 9.844)"/>
    <path id="prefix__XMLID_27_" d="M493.719 116.3a26.321 26.321 0 0 0 .745 11.39c1.81 5.429 3.3 7.452 4.045 7.345s1.064-1.064 1.49-1.171.745 1.7 1.171 3.087 3.832 4.79 4.9 4.577.852-1.065.852-1.065a42.485 42.485 0 0 1-3.726-4.045c-1.171-1.6-7.771-10.752-8.41-16.181-.322-1.276-1.067-3.937-1.067-3.937z" transform="translate(-245.578 7.398)"/>
    <path id="prefix__XMLID_870_" d="M487.962 102.708c-5.961 8.516-9.048 18.31-10.965 28.423-2.023 10.326-3.832 20.971-3.087 31.51a.268.268 0 0 0 .532 0c-.745-10.539 1.065-21.078 3.087-31.3 1.916-10.007 5-19.8 10.965-28.316.213-.319-.319-.639-.532-.319z" transform="translate(-246.847 6.511)"/>
    <path id="prefix__XMLID_609_" d="M488.257 102.871l-4.79 8.3-3.832 10.329-2.874 12.668s-2.342 16.074-2.555 20.013 0 8.516 0 8.516a13.507 13.507 0 0 0 7.026 1.49s6.813-5.642 9.474-6.813l1.81-1.384-1.49-17.352-.213-12.349.426-8.942 1.49-9.368 1.916-6.281a5.444 5.444 0 0 1-1.81.852 17.5 17.5 0 0 1-2.342.532 4.466 4.466 0 0 1-2.236-.211z" class="prefix__cls-2" transform="translate(-246.823 6.455)"/>
    <path id="prefix__XMLID_862_" d="M493.339 101.312c-3.194 8.09-3.939 16.926-3.939 25.655a242.456 242.456 0 0 0 1.81 29.168.268.268 0 0 0 .532 0 226.78 226.78 0 0 1-1.81-28.21c0-8.942.639-18.1 3.939-26.507.106-.319-.426-.426-.532-.106z" transform="translate(-245.836 6.418)"/>
    <path id="prefix__XMLID_584_" d="M476.75 61.091a9.15 9.15 0 0 0-3.619 2.236 17.46 17.46 0 0 0-3.726 6.707c-.319 1.81.426 5.429 1.6 6.813s3.087 2.555 4.258 2.342a10.1 10.1 0 0 0 4.578-2.874c.958-1.171 2.555-3.619 3.087-3.939s.852-.532 1.384-.319a4.991 4.991 0 0 1 2.129 2.448c.532 1.171.745 2.448 1.49 4.045s1.38 2.45 1.912 2.55a2.187 2.187 0 0 0 2.236-1.384c.319-1.171.745-3.407 2.129-3.726a4.352 4.352 0 0 1 3.619.639 9.254 9.254 0 0 0 1.065-3.726c.213-2.342-1.171-7.771-3.513-9.474a21.038 21.038 0 0 0-10.646-3.829 20.283 20.283 0 0 0-7.983 1.491z" transform="translate(-247.131 3.738)"/>
    <path id="prefix__XMLID_1730_" d="M384.123 65.778c-.319 0-.639-.106-.958-.106a13.956 13.956 0 0 1-5-1.7 16.347 16.347 0 0 1-3.087-2.236 4.051 4.051 0 0 1-.958-1.384 3.568 3.568 0 0 1 0-1.065 3.293 3.293 0 0 0 .213-.852c.106-.319.213-.532.639-.532h.106c-.426-.426-.532-.852-.213-1.277a.977.977 0 0 1 1.81.639c-.106.532-.426.745-1.065.852.107.213.319.426.426.639s.213.319.319.532c.106.106.106.106.213.106.319-.106.745-.213 1.064-.319.426-.106.532.106.532.426.319 0 .532-.106.852-.106 0-.106-.106-.213-.106-.319a13.683 13.683 0 0 0-.426-2.023.641.641 0 0 0-.106-.426c0-.106 0-.213.106-.213s.213-.106.319 0a.927.927 0 0 1 .426.958c.106.319.106.639.213.958a.64.64 0 0 0 .106.426.1.1 0 0 0 .106.106c.213 0 .319 0 .426.106a.33.33 0 0 0 .213-.106 5.729 5.729 0 0 0 1.064-2.129 9.183 9.183 0 0 0 .426-2.981 22.246 22.246 0 0 0-.106-2.661 7.549 7.549 0 0 0-1.384-3.726 4.461 4.461 0 0 0-3.832-1.81 4.332 4.332 0 0 0-2.555.852 6.593 6.593 0 0 0-1.81 2.661 16.68 16.68 0 0 0-.532 3.194 13.1 13.1 0 0 0 .426 4.045 6.807 6.807 0 0 0 .852 2.023c0 .106.106.106.106.213v1.916c-.426-.319-.745-.532-1.171-.852a7.456 7.456 0 0 1-2.768-5.11c0-.319-.106-.639-.106-.958v-1.28a10.086 10.086 0 0 1 .745-3.087 7.852 7.852 0 0 1 5.748-4.365 8.077 8.077 0 0 1 3.194.106 8.547 8.547 0 0 1 3.087 1.6 7.1 7.1 0 0 1 2.023 2.661 7.57 7.57 0 0 1 .745 3.406 9.085 9.085 0 0 1-.639 3.832 7.953 7.953 0 0 1-4.79 4.471c-.106 0-.213.106-.319.106a10.122 10.122 0 0 0 1.6 2.129 6.8 6.8 0 0 0 3.407 1.916 2.344 2.344 0 0 0 .852.106v.426c-.22.212-.327.212-.433.212zm-8.623-6.919a10.006 10.006 0 0 0-.106 1.277c0 .106 0 .213.213.319a4.374 4.374 0 0 0 2.342 0 3.92 3.92 0 0 0 2.023-1.171c-.426.106-.852.213-1.171.319a3.109 3.109 0 0 1-.958.213c-.106 0-.213 0-.213-.213-.319.106-.745.213-1.064.319-.213 0-.319-.106-.426-.319-.321-.103-.534-.744-.64-.744z" class="prefix__cls-3" transform="translate(-253.612 2.777)"/>
    <text id="prefix__XMLID_734_" transform="translate(116.991 85.675)" style="font-size:5px;font-family:Helvetica-Bold,Helvetica;font-weight:700;fill:#fff">
        <tspan x="0" y="0">LIST YOUR WORKPLACE FOR FREE</tspan>
    </text>
    <path id="prefix__XMLID_853_" d="M370.515 98.232h84.1a.268.268 0 0 0 0-.532h-84.1a.268.268 0 0 0 0 .532z" class="prefix__cls-2" transform="translate(-253.523 6.197)"/>
    <path id="prefix__XMLID_847_" d="M370.515 114.232h84.1a.268.268 0 0 0 0-.532h-84.1a.268.268 0 0 0 0 .532z" class="prefix__cls-2" transform="translate(-253.523 7.23)"/>
    <path id="prefix__XMLID_819_" d="M414.775 174.565h-38.643a7.133 7.133 0 0 1-7.132-7.133 7.133 7.133 0 0 1 7.132-7.132h38.642a7.133 7.133 0 0 1 7.132 7.132 7.133 7.133 0 0 1-7.131 7.133z" transform="translate(-253.605 10.236)" style="fill:#99192e;fill-rule:evenodd"/>
    <path id="prefix__XMLID_837_" d="M370.515 130.232h84.1a.268.268 0 0 0 0-.532h-84.1a.268.268 0 0 0 0 .532z" class="prefix__cls-2" transform="translate(-253.523 8.262)"/>
    <path id="prefix__XMLID_634_" d="M423.226 165.919a6.906 6.906 0 0 1-6.919 6.919h-39.388a6.906 6.906 0 0 1-6.919-6.919 6.906 6.906 0 0 1 6.919-6.919h39.387a6.906 6.906 0 0 1 6.919 6.919z" class="prefix__cls-3" transform="translate(-253.541 10.153)"/>
    <text id="prefix__XMLID_642_" class="prefix__cls-6" transform="translate(117.922 101.211)">
        <tspan x="0" y="0">Name</tspan>
    </text>
    <text id="prefix__XMLID_924_" class="prefix__cls-6" transform="translate(117.922 117.977)">
        <tspan x="0" y="0">Email Id</tspan>
    </text>
    <text id="prefix__XMLID_929_" class="prefix__cls-6" transform="translate(117.922 135.995)">
        <tspan x="0" y="0">Phone</tspan>
    </text>
    <text id="prefix__XMLID_931_" class="prefix__cls-6" transform="translate(117.922 151.619)">
        <tspan x="0" y="0">City</tspan>
    </text>
    <path id="prefix__XMLID_897_" d="M446.871 170.619l-1.171.852s1.277 1.384 4.577 1.277 7.771-1.81 11.816-1.065 21.29 5.323 29.168 5 11.6-1.7 10.645-2.874c-1.065-1.171-2.555-.639-4.258-1.916s-.852-1.6-.852-1.6z" transform="translate(-248.656 10.882)"/>
    <path id="prefix__XMLID_2_" d="M428.253 251.513s-6.813 4.471-9.794 8.09-3.3 5.855-1.6 6.387 9.9-1.49 14.69-6.494c0 0-.106 4.471.958 5.642s4.258-7.132 4.258-7.132a1.32 1.32 0 0 0 1.49-1.171c.319-1.384-1.49-5.323-1.49-5.323l-.426-.213s-3.832 3.194-4.364 3.619-1.916 1.49-3.087 1.384c-1.064-.106-1.81-.639-1.81-1.277 0-1.384 1.6-3.3 1.6-3.3z" transform="translate(-250.584 16.108)"/>
    <path id="prefix__XMLID_28_" d="M457.253 261.5s-6.813 4.471-9.794 8.09-3.3 5.855-1.6 6.387 9.9-1.49 14.69-6.494c0 0-.106 4.471.958 5.642s4.258-7.132 4.258-7.132a1.56 1.56 0 0 0 1.065-1.7 6.913 6.913 0 0 0-2.236-4.79h-.532s-2.661 3.087-3.194 3.513c-.639.319-2.023 1.7-3.087 1.6a1.7 1.7 0 0 1-1.6-1.6 4 4 0 0 1 1.384-2.555z" transform="translate(-248.712 16.767)"/>
    <circle id="prefix__XMLID_29_" cx="1.597" cy="1.597" r="1.597" class="prefix__cls-2" transform="translate(257.509 102.939)"/>
    <circle id="prefix__XMLID_32_" cx="1.597" cy="1.597" r="1.597" class="prefix__cls-2" transform="translate(250.057 111.455)"/>
    <circle id="prefix__XMLID_95_" cx="1.597" cy="1.597" r="1.597" class="prefix__cls-2" transform="translate(259.638 114.649)"/>
    <circle id="prefix__XMLID_100_" cx="1.597" cy="1.597" r="1.597" class="prefix__cls-2" transform="translate(252.186 125.294)"/>
    <circle id="prefix__XMLID_102_" cx="1.597" cy="1.597" r="1.597" class="prefix__cls-2" transform="translate(264.961 126.359)"/>
    <circle id="prefix__XMLID_107_" cx="1.597" cy="1.597" r="1.597" class="prefix__cls-2" transform="translate(270.283 114.649)"/>
    <circle id="prefix__XMLID_109_" cx="1.597" cy="1.597" r="1.597" class="prefix__cls-2" transform="translate(259.638 139.133)"/>
    <circle id="prefix__XMLID_114_" cx="1.597" cy="1.597" r="1.597" class="prefix__cls-2" transform="translate(277.735 130.617)"/>
    <circle id="prefix__XMLID_147_" cx="1.597" cy="1.597" r="1.597" class="prefix__cls-2" transform="translate(271.348 141.263)"/>
    <circle id="prefix__XMLID_491_" cx="1.597" cy="1.597" r="1.597" class="prefix__cls-2" transform="translate(281.993 150.843)"/>
    <circle id="prefix__XMLID_498_" cx="1.597" cy="1.597" r="1.597" class="prefix__cls-2" transform="translate(268.154 154.037)"/>
    <circle id="prefix__XMLID_786_" cx="1.597" cy="1.597" r="1.597" class="prefix__cls-2" transform="translate(272.412 164.683)"/>
    <circle id="prefix__XMLID_812_" cx="1.597" cy="1.597" r="1.597" class="prefix__cls-2" transform="translate(255.38 160.424)"/>
    <circle id="prefix__XMLID_831_" cx="1.597" cy="1.597" r="1.597" class="prefix__cls-2" transform="translate(248.993 171.07)"/>
    <circle id="prefix__XMLID_832_" cx="1.597" cy="1.597" r="1.597" class="prefix__cls-2" transform="translate(239.412 167.876)"/>
    <circle id="prefix__XMLID_833_" cx="1.597" cy="1.597" r="1.597" class="prefix__cls-2" transform="translate(233.025 113.584)"/>
    <circle id="prefix__XMLID_834_" cx="1.597" cy="1.597" r="1.597" class="prefix__cls-2" transform="translate(230.896 124.23)"/>
    <circle id="prefix__XMLID_835_" cx="1.597" cy="1.597" r="1.597" class="prefix__cls-2" transform="translate(224.508 133.811)"/>
    <circle id="prefix__XMLID_839_" cx="1.597" cy="1.597" r="1.597" class="prefix__cls-2" transform="translate(224.508 148.715)"/>
    <circle id="prefix__XMLID_854_" cx="1.597" cy="1.597" r="1.597" class="prefix__cls-2" transform="translate(244.734 134.875)"/>
    <circle id="prefix__XMLID_857_" cx="1.597" cy="1.597" r="1.597" class="prefix__cls-2" transform="translate(251.122 143.392)"/>
    <circle id="prefix__XMLID_914_" cx="1.597" cy="1.597" r="1.597" class="prefix__cls-2" transform="translate(245.799 152.972)"/>
    <circle id="prefix__XMLID_915_" cx="1.597" cy="1.597" r="1.597" class="prefix__cls-2" transform="translate(257.509 150.843)"/>
    <circle id="prefix__XMLID_932_" cx="1.597" cy="1.597" r="1.597" class="prefix__cls-2" transform="translate(222.379 160.424)"/>
    <circle id="prefix__XMLID_933_" cx="1.597" cy="1.597" r="1.597" class="prefix__cls-2" transform="translate(218.121 166.812)"/>
    <circle id="prefix__XMLID_934_" cx="1.597" cy="1.597" r="1.597" class="prefix__cls-2" transform="translate(271.348 229.618)"/>
    <circle id="prefix__XMLID_936_" cx="1.597" cy="1.597" r="1.597" class="prefix__cls-2" transform="translate(251.122 216.844)"/>
    <circle id="prefix__XMLID_948_" cx="1.597" cy="1.597" r="1.597" class="prefix__cls-2" transform="translate(268.154 212.585)"/>
    <circle id="prefix__XMLID_950_" cx="1.597" cy="1.597" r="1.597" class="prefix__cls-2" transform="translate(268.154 196.617)"/>
    <circle id="prefix__XMLID_951_" cx="1.597" cy="1.597" r="1.597" class="prefix__cls-2" transform="translate(250.057 193.424)"/>
    <circle id="prefix__XMLID_958_" cx="1.597" cy="1.597" r="1.597" class="prefix__cls-2" transform="translate(284.122 191.295)"/>
    <circle id="prefix__XMLID_963_" cx="1.597" cy="1.597" r="1.597" class="prefix__cls-2" transform="translate(281.993 208.327)"/>
    <circle id="prefix__XMLID_964_" cx="1.597" cy="1.597" r="1.597" class="prefix__cls-2" transform="translate(271.348 180.651)"/>
    <circle id="prefix__XMLID_967_" cx="1.597" cy="1.597" r="1.597" class="prefix__cls-2" transform="translate(236.218 201.94)"/>
    <circle id="prefix__XMLID_968_" cx="1.597" cy="1.597" r="1.597" class="prefix__cls-2" transform="translate(225.573 188.101)"/>
    <circle id="prefix__XMLID_969_" cx="1.597" cy="1.597" r="1.597" class="prefix__cls-2" transform="translate(254.315 178.522)"/>
    <circle id="prefix__XMLID_970_" cx="1.597" cy="1.597" r="1.597" class="prefix__cls-2" transform="translate(208.541 183.844)"/>
    <circle id="prefix__XMLID_971_" cx="1.597" cy="1.597" r="1.597" class="prefix__cls-2" transform="translate(286.251 178.522)"/>
    <path id="prefix__XMLID_973_" d="M488.719 102.813s-9.048 20.12-10.219 37.046l3.406 7.665 4.045-7.452a81.239 81.239 0 0 1 4.365-36.833l.319-.639a2.657 2.657 0 0 1-1.916.213z" transform="translate(-246.54 6.513)"/>
    <path id="prefix__XMLID_974_" d="M487.477 102.771l-1.278 2.342 2.874-1.277 2.768 2.661s1.384-4.365 1.7-4.9a11.306 11.306 0 0 1-6.064 1.174z" class="prefix__cls-1" transform="translate(-246.043 6.45)"/>
    <path id="prefix__XMLID_821_" d="M488.292 100.6c-.852.213-2.023 1.384-1.278 2.236.426.532 1.278.426 1.916.426a9.9 9.9 0 0 0 2.555-.532c.319-.106.213-.639-.106-.532a8.5 8.5 0 0 1-2.768.532c-.532 0-1.277 0-1.171-.639a1.388 1.388 0 0 1 1.065-.958c.213-.106.106-.639-.213-.532z" transform="translate(-246.005 6.383)"/>
    <path id="prefix__XMLID_813_" d="M491.12 103a43.044 43.044 0 0 0 12.455-7.771c.213-.213-.106-.639-.426-.426a42.768 42.768 0 0 1-12.242 7.558c-.213.319-.107.745.213.639z" transform="translate(-245.746 6.007)"/>
    <text id="prefix__XMLID_700_" transform="translate(125.263 178.855)" style="font-size:8px;font-family:Helvetica;fill:#df3744">
        <tspan x="0" y="0">SUBMIT</tspan>
    </text>
    <path id="prefix__XMLID_213_" d="M488.129 91.223l1.916-2.023s2.342-.213 1.81 1.7c-.426 1.916-1.81 1.384-2.768 1.7-.852.213-1.384.958-1.171 1.49.213.639.639 2.874.639 2.874s-1.065-3.08-2.555-3.825a15.522 15.522 0 0 0 2.129-1.916z" transform="translate(-246.056 5.65)"/>
</svg>
