<svg xmlns="http://www.w3.org/2000/svg" id="prefix__instagram-2" width="17.852" height="17.852" viewBox="0 0 17.852 17.852">
    <path id="prefix__Union_10" d="M5.579 17.852A5.579 5.579 0 0 1 0 12.273V5.579A5.579 5.579 0 0 1 5.579 0h6.694a5.579 5.579 0 0 1 5.579 5.579v6.694a5.579 5.579 0 0 1-5.579 5.579zM1.674 5.579v6.694a3.909 3.909 0 0 0 3.9 3.905h6.694a3.909 3.909 0 0 0 3.9-3.905V5.579a3.909 3.909 0 0 0-3.9-3.905H5.579a3.909 3.909 0 0 0-3.905 3.905zm2.789 3.347a4.463 4.463 0 1 1 4.463 4.463 4.463 4.463 0 0 1-4.463-4.463zm1.674 0a2.789 2.789 0 1 0 2.789-2.79 2.793 2.793 0 0 0-2.789 2.79zm6.992-4.8a.595.595 0 1 1 .595.595.595.595 0 0 1-.595-.593z" data-name="Union 10" style="fill:#3c3c47"/>
</svg>
