<svg xmlns="http://www.w3.org/2000/svg" width="127.691" height="85.008" viewBox="0 0 127.691 85.008">
    <defs>
        <style>
            .prefix__cls-1{fill:none;stroke:#000;stroke-linecap:round;stroke-linejoin:round}.prefix__cls-2{fill:#3b88fd;opacity:.62}
        </style>
    </defs>
    <g id="prefix__Layer_4" transform="translate(-531.4 -23.401)">
        <path id="prefix__Path_2065" d="M531.9 127.122v-22.57l9.385.119V88.693h6.831V72.775l48.348-.475-21.443 24.174" class="prefix__cls-1" data-name="Path 2065" transform="translate(0 -19.612)"/>
        <path id="prefix__Line_206" d="M25.065 0L0 28.272" class="prefix__cls-1" data-name="Line 206" transform="translate(548.353 78.763)"/>
        <path id="prefix__Line_207" d="M0 0L24.649 0" class="prefix__cls-1" data-name="Line 207" transform="translate(598.305 52.688)"/>
        <path id="prefix__Path_2067" d="M632.505 77.829h-20.788s-1.188-1.782-6.534 4.158-40.983 45.734-40.983 45.734 1.782 2.376 4.158 2.376 48.7.594 49.893-1.782c0 0 2.376-1.188 5.346-8.315s10.1-39.2 10.1-39.2 1.778-2.971-1.192-2.971z" class="prefix__cls-2" data-name="Path 2067" transform="translate(-13.115 -21.755)"/>
        <path id="prefix__Line_208" d="M17.344 0L0 75.255" class="prefix__cls-1" data-name="Line 208" transform="translate(613.332 24)"/>
        <path id="prefix__Line_209" d="M11.048 0L0 55.595" class="prefix__cls-1" data-name="Line 209" transform="translate(645.762 24)"/>
        <path id="prefix__Line_210" d="M5.049 0L0 25.54" class="prefix__cls-1" data-name="Line 210" transform="translate(640.238 81.436)"/>
        <path id="prefix__Line_211" d="M2.792 0L0 12.295" class="prefix__cls-1" data-name="Line 211" transform="translate(626.102 48.115)"/>
        <path id="prefix__Line_212" d="M10.038 0L0 43.775" class="prefix__cls-1" data-name="Line 212" transform="translate(615.173 62.726)"/>
        <path id="prefix__Line_213" d="M12.354 0L0 59.277" class="prefix__cls-1" data-name="Line 213" transform="translate(636.14 48.115)"/>
        <path id="prefix__Line_214" d="M0 0L26.906 0" class="prefix__cls-1" data-name="Line 214" transform="translate(625.686 45.501)"/>
        <path id="prefix__Line_215" d="M0 0L16.868 0" class="prefix__cls-1" data-name="Line 215" transform="translate(627.052 48.115)"/>
        <path id="prefix__Line_216" d="M0 0L4.514 0" class="prefix__cls-1" data-name="Line 216" transform="translate(645.762 48.115)"/>
        <path id="prefix__Line_217" d="M0 0L3.92 52.447" class="prefix__cls-1" data-name="Line 217" transform="translate(650.929 54.054)"/>
        <path id="prefix__Line_218" d="M0 0L22.333 0" class="prefix__cls-1" data-name="Line 218" transform="translate(543.126 85.059)"/>
        <path id="prefix__Line_219" d="M0 0L45.616 0" class="prefix__cls-1" data-name="Line 219" transform="translate(569.082 85.059)"/>
        <path id="prefix__Line_220" d="M0 0L29.342 0.059" class="prefix__cls-1" data-name="Line 220" transform="translate(532.494 89.098)"/>
        <path id="prefix__Line_221" d="M0 0L47.873 0" class="prefix__cls-1" data-name="Line 221" transform="translate(565.459 89.157)"/>
        <path id="prefix__Line_222" d="M0 0L30.114 0" class="prefix__cls-1" data-name="Line 222" transform="translate(549.481 69.081)"/>
        <path id="prefix__Line_223" d="M0 0L33.321 0" class="prefix__cls-1" data-name="Line 223" transform="translate(585.059 69.081)"/>
        <path id="prefix__Line_224" d="M0 0.475L33.796 0" class="prefix__cls-1" data-name="Line 224" transform="translate(542.176 73.18)"/>
        <path id="prefix__Line_225" d="M0 0L36.469 0" class="prefix__cls-1" data-name="Line 225" transform="translate(580.545 73.18)"/>
        <path id="prefix__Path_2068" d="M695.2 32.909h11.285L708.267 24" class="prefix__cls-1" data-name="Path 2068" transform="translate(-66.306)"/>
        <path id="prefix__Path_2069" d="M719.982 24l-1.782 8.909h7.721" class="prefix__cls-1" data-name="Path 2069" transform="translate(-75.645)"/>
        <path id="prefix__Path_2070" d="M726.673 42h-10.691l-1.782 8.909" class="prefix__cls-1" data-name="Path 2070" transform="translate(-74.021 -7.309)"/>
        <path id="prefix__Path_2071" d="M705.546 52.691L707.921 42H700.2" class="prefix__cls-1" data-name="Path 2071" transform="translate(-68.337 -7.309)"/>
        <path id="prefix__Line_226" d="M0 0L1.901 0" class="prefix__cls-1" data-name="Line 226" transform="translate(628.181 34.691)"/>
        <path id="prefix__Line_227" d="M2.376 0L0 0" class="prefix__cls-1" data-name="Line 227" transform="translate(652.058 32.909)"/>
        <path id="prefix__Line_228" d="M0 0L29.698 0" class="prefix__cls-1" data-name="Line 228" transform="translate(628.894 24)"/>
        <text id="prefix__DLF" transform="translate(629.9 52.746)" style="font-size:4px;font-family:ArialMT,Arial">
            <tspan x="0" y="0">DLF</tspan>
        </text>
        <path id="prefix__Path_2072" d="M712.7 70.47l1.96-2.97 1.96 2.97z" data-name="Path 2072" transform="translate(-73.412 -17.663)"/>
        <path id="prefix__Path_2073" d="M627.652 53.3l-93.252.772v41.28" class="prefix__cls-1" data-name="Path 2073" transform="translate(-1.015 -11.897)"/>
        <path id="prefix__Line_229" d="M0 0L0 39.201" class="prefix__cls-1" data-name="Line 229" transform="translate(539.028 43.363)"/>
        <path id="prefix__Path_2074" d="M697.564 27.2L694 44.722h21.976l4.752-17.522z" class="prefix__cls-2" data-name="Path 2074" transform="translate(-65.819 -1.299)"/>
        <path id="prefix__Rectangle_848" d="M0 0H2.97V39.795H0z" class="prefix__cls-2" data-name="Rectangle 848" transform="translate(534.632 43.422)"/>
    </g>
</svg>
