<svg xmlns="http://www.w3.org/2000/svg" width="93.036" height="84.598" viewBox="0 0 93.036 84.598">
    <defs>
        <style>
            .prefix__cls-1,.prefix__cls-2{fill:none;stroke:#000;stroke-linecap:round;stroke-linejoin:round}.prefix__cls-2{fill:#fff}.prefix__cls-4{fill:#3b88fd;opacity:.62}
        </style>
    </defs>
    <g id="prefix__Layer_5" transform="translate(-253.9)">
        <path id="prefix__Path_2144" d="M311.317 92.662L311.1 79h42.938v44.89" class="prefix__cls-1" data-name="Path 2144" transform="translate(-32.108 -44.453)"/>
        <path id="prefix__Path_2145" d="M338.995 85.5c-16.395 6.853-13.706 18.3-13.706 18.3-.39 3.036-2.689 2.689-2.689 2.689v12.187" class="prefix__cls-1" data-name="Path 2145" transform="translate(-38.62 -48.134)"/>
        <path id="prefix__Path_2146" d="M377.695 118.679v-12.187s-2.3.39-2.646-2.689c0 0 2.646-11.45-13.749-18.3" class="prefix__cls-1" data-name="Path 2146" transform="translate(-60.535 -48.134)"/>
        <path id="prefix__Line_259" d="M0 0L0 38.601" class="prefix__cls-1" data-name="Line 259" transform="translate(270.101 33.896)"/>
        <path id="prefix__Line_260" d="M0 0L0 26.023" class="prefix__cls-1" data-name="Line 260" transform="translate(330.821 34.33)"/>
        <path id="prefix__Path_2147" d="M410.5 65.52V61.4h9.368v4.12" class="prefix__cls-1" data-name="Path 2147" transform="translate(-88.397 -34.487)"/>
        <path id="prefix__Path_2148" d="M415.571 70.9l2.993 1.865v1.518H403.6v-1.518l2.993-1.865z" class="prefix__cls-2" data-name="Path 2148" transform="translate(-84.489 -39.866)"/>
        <path id="prefix__Path_2149" d="M416.286 54.5l2.732 1.692v1.388H405.4v-1.388l2.689-1.692z" class="prefix__cls-2" data-name="Path 2149" transform="translate(-85.508 -30.579)"/>
        <path id="prefix__Path_2150" d="M295.071 70.6l2.993 1.865v1.475H283.1v-1.475l2.993-1.865z" class="prefix__cls-2" data-name="Path 2150" transform="translate(-16.252 -39.696)"/>
        <path id="prefix__Path_2151" d="M290 65.22V61.1h9.368v4.12" class="prefix__cls-1" data-name="Path 2151" transform="translate(-20.16 -34.317)"/>
        <path id="prefix__Path_2152" d="M295.786 54.2l2.732 1.691v1.388H284.9v-1.387l2.689-1.691z" class="prefix__cls-2" data-name="Path 2152" transform="translate(-17.272 -30.409)"/>
        <path id="prefix__Line_261" d="M0 6.939L0 0" class="prefix__cls-1" data-name="Line 261" transform="translate(277.908 16.548)"/>
        <path id="prefix__Line_262" d="M0 6.939L0 0" class="prefix__cls-1" data-name="Line 262" transform="translate(270.968 16.548)"/>
        <path id="prefix__Path_2155" d="M296.754 31.7l2.039 1.3v1H288.6v-1l2.038-1.3z" class="prefix__cls-2" data-name="Path 2155" transform="translate(-19.367 -17.668)"/>
        <path id="prefix__Line_263" d="M0 6.939L0 0" class="prefix__cls-1" data-name="Line 263" transform="translate(330.431 16.634)"/>
        <path id="prefix__Line_264" d="M0 6.939L0 0" class="prefix__cls-1" data-name="Line 264" transform="translate(323.491 16.634)"/>
        <path id="prefix__Path_2156" d="M417.754 31.9l2.039 1.258V34.2H409.6v-1.042l2.038-1.258z" class="prefix__cls-2" data-name="Path 2156" transform="translate(-87.887 -17.781)"/>
        <path id="prefix__Path_2157" d="M414.6 27.536V24.5h5.855v3.036" class="prefix__cls-1" data-name="Path 2157" transform="translate(-90.718 -13.591)"/>
        <path id="prefix__Path_2158" d="M293.5 27.336V24.3h5.855v3.036" class="prefix__cls-1" data-name="Path 2158" transform="translate(-22.142 -13.477)"/>
        <path id="prefix__Line_265" d="M0 0L7.373 0" class="prefix__cls-1" data-name="Line 265" transform="translate(270.534 9.608)"/>
        <path id="prefix__Path_2159" d="M303.463 14.7s2.3-3.9-2.863-5.2" class="prefix__cls-1" data-name="Path 2159" transform="translate(-26.162 -5.097)"/>
        <path id="prefix__Path_2160" d="M292.943 14.444s-1.562-3.644 2.776-4.944" class="prefix__cls-1" data-name="Path 2160" transform="translate(-21.671 -5.097)"/>
        <path id="prefix__Line_266" d="M0 0L7.373 0" class="prefix__cls-1" data-name="Line 266" transform="translate(323.014 9.608)"/>
        <path id="prefix__Path_2161" d="M424.463 14.7s2.3-3.9-2.863-5.2" class="prefix__cls-1" data-name="Path 2161" transform="translate(-94.682 -5.097)"/>
        <path id="prefix__Path_2162" d="M413.943 14.444s-1.562-3.644 2.776-4.944" class="prefix__cls-1" data-name="Path 2162" transform="translate(-90.191 -5.097)"/>
        <path id="prefix__Line_267" d="M0 0L10.583 0" class="prefix__cls-1" data-name="Line 267" transform="translate(311.347 16.417)"/>
        <path id="prefix__Line_268" d="M0 0L31.054 0" class="prefix__cls-1" data-name="Line 268" transform="translate(277.04 16.331)"/>
        <path id="prefix__Line_269" d="M0 0L31.271 0.043" class="prefix__cls-1" data-name="Line 269" transform="translate(292.654 26.957)"/>
        <path id="prefix__Line_270" d="M0 0L11.667 0" class="prefix__cls-1" data-name="Line 270" transform="translate(278.818 26.87)"/>
        <path id="prefix__Line_271" d="M0 0L0 5.205" class="prefix__cls-1" data-name="Line 271" transform="translate(283.546 28.041)"/>
        <path id="prefix__Line_272" d="M0 0L0 5.205" class="prefix__cls-1" data-name="Line 272" transform="translate(286.148 28.041)"/>
        <path id="prefix__Line_273" d="M0 0L0 5.205" class="prefix__cls-1" data-name="Line 273" transform="translate(288.751 28.041)"/>
        <path id="prefix__Line_274" d="M0 0L0 5.205" class="prefix__cls-1" data-name="Line 274" transform="translate(291.353 28.041)"/>
        <path id="prefix__Line_275" d="M0 0L0 5.205" class="prefix__cls-1" data-name="Line 275" transform="translate(293.955 28.041)"/>
        <path id="prefix__Line_276" d="M0 0L0 5.205" class="prefix__cls-1" data-name="Line 276" transform="translate(296.557 28.041)"/>
        <path id="prefix__Line_277" d="M0 0L0 5.205" class="prefix__cls-1" data-name="Line 277" transform="translate(299.16 28.041)"/>
        <path id="prefix__Line_278" d="M0 0L0 5.205" class="prefix__cls-1" data-name="Line 278" transform="translate(301.762 28.041)"/>
        <path id="prefix__Line_279" d="M0 0L0 5.205" class="prefix__cls-1" data-name="Line 279" transform="translate(304.364 28.041)"/>
        <path id="prefix__Line_280" d="M0 0L0 5.205" class="prefix__cls-1" data-name="Line 280" transform="translate(306.967 28.041)"/>
        <path id="prefix__Line_281" d="M0 0L0 5.205" class="prefix__cls-1" data-name="Line 281" transform="translate(309.569 28.041)"/>
        <path id="prefix__Line_282" d="M0 0L0 5.205" class="prefix__cls-1" data-name="Line 282" transform="translate(312.171 28.041)"/>
        <path id="prefix__Line_283" d="M0 0L0 5.205" class="prefix__cls-1" data-name="Line 283" transform="translate(314.774 28.041)"/>
        <path id="prefix__Line_284" d="M0 0L0 5.205" class="prefix__cls-1" data-name="Line 284" transform="translate(317.376 28.041)"/>
        <path id="prefix__Line_285" d="M0 0L0 3.036" class="prefix__cls-1" data-name="Line 285" transform="translate(274.438 .5)"/>
        <path id="prefix__Line_286" d="M0 0L0 3.036" class="prefix__cls-1" data-name="Line 286" transform="translate(326.484 .5)"/>
        <path id="prefix__Line_287" d="M0 0L5.638 0" class="prefix__cls-1" data-name="Line 287" transform="translate(277.04 12.21)"/>
        <path id="prefix__Line_288" d="M0 0L39.512 0.217" class="prefix__cls-1" data-name="Line 288" transform="translate(284.413 12.21)"/>
        <path id="prefix__Rectangle_874" d="M0 0H34.697V5.638H0z" class="prefix__cls-2" data-name="Rectangle 874" transform="translate(283.112 18.716)"/>
        <path id="prefix__Line_289" d="M0 0L0 28.625" class="prefix__cls-1" data-name="Line 289" transform="translate(279.209 50.811)"/>
        <path id="prefix__Line_290" d="M0 0L0 10.409" class="prefix__cls-1" data-name="Line 290" transform="translate(330.821 62.088)"/>
        <path id="prefix__Path_2167" d="M430.6 78.5h15.614v11.71" class="prefix__cls-1" data-name="Path 2167" transform="translate(-99.779 -44.17)"/>
        <path id="prefix__Line_291" d="M0 0.043L16.004 0" class="prefix__cls-1" data-name="Line 291" transform="translate(330.431 26.957)"/>
        <path id="prefix__Path_2168" d="M270.014 78.8H254.4l.087 19.821" class="prefix__cls-1" data-name="Path 2168" transform="translate(0 -44.34)"/>
        <path id="prefix__Line_292" d="M15.614 0.043L0 0" class="prefix__cls-1" data-name="Line 292" transform="translate(254.834 26.653)"/>
        <path id="prefix__Line_293" d="M0 0L0 9.542" class="prefix__cls-1" data-name="Line 293" transform="translate(346.435 47.342)"/>
        <path id="prefix__Rectangle_875" d="M0 0H32.529V3.036H0z" class="prefix__cls-4" data-name="Rectangle 875" transform="translate(284.283 19.887)"/>
        <path id="prefix__Path_2170" d="M259.3 83.2h11.71l-.434 34.264-11.276-18.65z" class="prefix__cls-4" data-name="Path 2170" transform="translate(-2.775 -46.831)"/>
        <path id="prefix__Path_2171" d="M446.01 83.2H434.3l.434 34.264 11.277-18.65z" class="prefix__cls-4" data-name="Path 2171" transform="translate(-101.874 -46.831)"/>
        <path id="prefix__Path_2172" d="M314.3 83.2v19.517h3.9s.871-18.217 14.316-19.517z" class="prefix__cls-4" data-name="Path 2172" transform="translate(-33.92 -46.831)"/>
        <path id="prefix__Path_2173" d="M382.516 82.2v19.517h-3.9S377.745 83.5 364.3 82.2z" class="prefix__cls-4" data-name="Path 2173" transform="translate(-62.234 -46.265)"/>
    </g>
</svg>
