<svg xmlns="http://www.w3.org/2000/svg" width="134.402" height="60.182" viewBox="0 0 134.402 60.182"><defs><style>.a,.b{fill:#fff;}.a{fill-rule:evenodd;}</style></defs><path class="a" d="M43.876,60.166c-.909-.119-1.82-.226-2.726-.36a40.756,40.756,0,0,1-14.4-4.935A57.693,57.693,0,0,1,17.8,48.4a8.059,8.059,0,0,1-2.639-3.974,6.345,6.345,0,0,1,.116-2.984,17.707,17.707,0,0,1,.755-2.531,2.032,2.032,0,0,1,1.692-1.547.9.9,0,0,0,.247-.107c-1.24-1.324-1.425-2.488-.6-3.664A2.462,2.462,0,0,1,20.649,32.5a2.648,2.648,0,0,1,1.7,3.016C22,37,21.125,37.737,19.154,37.81c.459.676.871,1.306,1.309,1.928.337.482.705.943,1.036,1.431a.54.54,0,0,0,.7.25c1.01-.29,2.032-.543,3.045-.81,1.074-.29,1.646.209,1.5,1.289l2.322-.235a3.8,3.8,0,0,1-.374-.79c-.374-1.913-.729-3.832-1.083-5.748-.075-.418-.122-.839-.2-1.254-.049-.267-.1-.534.244-.63a1.037,1.037,0,0,1,.973.041c1.129.679,1.118,1.811,1.306,2.88.168.961.334,1.922.488,2.883.073.438-.078.932.363,1.266.073.052.148.189.2.177a2.116,2.116,0,0,1,1.359.337c.1.046.357-.125.462-.258a17.619,17.619,0,0,0,3.06-6.146A32.035,32.035,0,0,0,37.022,26a43.94,43.94,0,0,0-.453-7.664A23.422,23.422,0,0,0,32.557,7.679,12.392,12.392,0,0,0,21.63,2.642a12.19,12.19,0,0,0-7.348,2.531,15.539,15.539,0,0,0-5.1,7.676,32.25,32.25,0,0,0-1.452,9.084A38.642,38.642,0,0,0,8.909,33.5a21.126,21.126,0,0,0,2.439,5.678,1.24,1.24,0,0,1,.232.552c.026,1.768.032,3.533.046,5.443C10.5,44.391,9.342,43.7,8.314,42.852A22.454,22.454,0,0,1,.241,28.178c-.122-.871-.189-1.742-.29-2.613,0-1.036,0-2.07-.02-3.1.035-.235.1-.464.107-.7a21.5,21.5,0,0,1,2.305-8.947C5.826,6.065,11.173,1.67,18.791.332a21.84,21.84,0,0,1,9.116.29A20.673,20.673,0,0,1,36.651,5.3a23.085,23.085,0,0,1,5.876,7.754,25.364,25.364,0,0,1,2.218,9.853,24.849,24.849,0,0,1-1.954,11.116A23.227,23.227,0,0,1,29.036,46.943l-.888.316a33.333,33.333,0,0,0,4.433,6.012A17.858,17.858,0,0,0,42.262,58.7c.807.16,1.626.255,2.491.389v1.077ZM19.131,41.137h-.215c-.081,1.118-.18,2.232-.232,3.35a.531.531,0,0,0,.476.607,14.251,14.251,0,0,0,6.677,0,11.841,11.841,0,0,0,5.87-3.3c-.061-.032-.1-.064-.119-.058-1.118.38-2.3.514-3.417.917a20.322,20.322,0,0,1-2.674.708c-.386.081-.743-.07-.7-.624-1.045.29-2.032.537-3.031.822a.967.967,0,0,1-1.161-.392Z" transform="translate(0.07 0.015)"/><path class="b" d="M164.2,90.357v-.07c0-6.221,4.23-9.737,8.709-9.737a7.722,7.722,0,0,1,6.387,3.3V73.76h4.3V99.7H179.3V96.578a7.508,7.508,0,0,1-6.387,3.518C168.5,100.1,164.2,96.578,164.2,90.357Zm15.177,0v-.07c0-3.626-2.56-6.006-5.44-6.006-2.949,0-5.4,2.273-5.4,6.006v.07c0,3.626,2.485,6.006,5.4,6.006S179.377,93.948,179.377,90.357Z" transform="translate(-116.512 -52.343)"/><path class="b" d="M250.87,106.994v-.073c0-5.365,3.8-9.772,9.171-9.772,5.972,0,9,4.691,9,10.091,0,.392-.035.784-.07,1.211H255.181a5.237,5.237,0,0,0,5.4,4.761,6.809,6.809,0,0,0,5.08-2.238l2.523,2.238a9.487,9.487,0,0,1-7.676,3.518A9.367,9.367,0,0,1,250.87,106.994Zm13.9-1.388c-.29-2.772-1.919-4.935-4.761-4.935-2.63,0-4.479,2.032-4.871,4.935Z" transform="translate(-178.021 -68.942)"/><path class="b" d="M328,114.014l1.922-2.9a10.552,10.552,0,0,0,6.149,2.308c1.846,0,2.9-.781,2.9-2.032v-.07c0-1.452-1.989-1.954-4.195-2.63-2.77-.781-5.864-1.919-5.864-5.516v-.07c0-3.553,2.952-5.722,6.677-5.722a13.005,13.005,0,0,1,6.895,2.134l-1.7,3.054a10.915,10.915,0,0,0-5.3-1.777c-1.672,0-2.63.781-2.63,1.884v.073c0,1.35,2.032,1.919,4.227,2.627,2.738.854,5.829,2.1,5.829,5.475v.064c0,3.945-3.057,5.9-6.967,5.9A13.186,13.186,0,0,1,328,114.014Z" transform="translate(-232.76 -69.106)"/><path class="b" d="M411.186,113.178A7.508,7.508,0,0,1,404.8,116.7c-4.407,0-8.709-3.518-8.709-9.74v-.07c0-6.221,4.23-9.737,8.709-9.737a7.726,7.726,0,0,1,6.387,3.3v-2.9h4.3V129.04h-4.3Zm.072-6.221v-.07c0-3.626-2.56-6.006-5.44-6.006-2.949,0-5.4,2.273-5.4,6.006v.07c0,3.626,2.491,6.006,5.4,6.006S411.258,110.548,411.258,106.956Z" transform="translate(-281.083 -68.942)"/></svg>