<svg xmlns="http://www.w3.org/2000/svg" width="56.263" height="85.134" viewBox="0 0 56.263 85.134">
    <defs>
        <style>
            .prefix__cls-1{fill:none;stroke:#000;stroke-linecap:round;stroke-linejoin:round}.prefix__cls-3{fill:#de3744;opacity:.62}
        </style>
    </defs>
    <g id="prefix__Layer_6" transform="translate(-569.5 -256.399)">
        <path id="prefix__Path_2130" d="M574 336.118V304h51.484v42.982" class="prefix__cls-1" data-name="Path 2130" transform="translate(-2.111 -24.843)"/>
        <path id="prefix__Path_2131" d="M607.5 371.416V314.5h20.074v56.916" class="prefix__cls-1" data-name="Path 2131" transform="translate(-19.788 -30.383)"/>
        <path id="prefix__Line_249" d="M0 0L16.059 0" class="prefix__cls-1" data-name="Line 249" transform="translate(571.889 297.106)"/>
        <path id="prefix__Line_250" d="M0 0L16.059 0" class="prefix__cls-1" data-name="Line 250" transform="translate(571.653 305.135)"/>
        <path id="prefix__Line_251" d="M0 0L15.351 0" class="prefix__cls-1" data-name="Line 251" transform="translate(607.786 297.059)"/>
        <path id="prefix__Line_252" d="M0 0L15.351 0" class="prefix__cls-1" data-name="Line 252" transform="translate(607.786 305.135)"/>
        <path id="prefix__Path_2132" d="M607.5 347.9l1.937.047.189 27.4" class="prefix__cls-1" data-name="Path 2132" transform="translate(-19.788 -48.007)"/>
        <path id="prefix__Path_2133" d="M647.889 347.9l-1.889.047v38.259" class="prefix__cls-1" data-name="Path 2133" transform="translate(-40.103 -48.007)"/>
        <circle id="prefix__Ellipse_214" cx="4.487" cy="4.487" r="4.487" data-name="Ellipse 214" transform="translate(611.093 284.825)" style="fill:#fff;stroke:#000;stroke-linecap:round;stroke-linejoin:round"/>
        <circle id="prefix__Ellipse_215" cx="4.487" cy="4.487" r="4.487" class="prefix__cls-1" data-name="Ellipse 215" transform="translate(574.723 284.825)"/>
        <path id="prefix__Path_2134" d="M609 337.443s.945-8.974 8.974-9.447c0 0 8.5-.472 9.447 9.447" class="prefix__cls-1" data-name="Path 2134" transform="translate(-20.579 -37.503)"/>
        <path id="prefix__Path_2135" d="M571.889 279.157H570v-3.306h1.889v-3.779h.945v-3.779h4.723v-4.723h7.557s3.306-7.085 12.753-6.613c0 0 7.085-.945 12.281 6.613h7.557v4.723h4.723v3.779h.945v3.779h1.889v3.306h-1.889" class="prefix__cls-1" data-name="Path 2135"/>
        <path id="prefix__Line_253" d="M0 0L25.506 0" class="prefix__cls-1" data-name="Line 253" transform="translate(574.251 272.072)"/>
        <path id="prefix__Line_254" d="M0 0L2.834 0" class="prefix__cls-1" data-name="Line 254" transform="translate(602.118 272.072)"/>
        <path id="prefix__Line_255" d="M0 0L12.753 0" class="prefix__cls-1" data-name="Line 255" transform="translate(607.786 272.072)"/>
        <path id="prefix__Path_2136" d="M621 274.779h12.753V271h-2.834" class="prefix__cls-1" data-name="Path 2136" transform="translate(-26.911 -7.43)"/>
        <path id="prefix__Path_2137" d="M622.7 271H609v3.779h4.251" class="prefix__cls-1" data-name="Path 2137" transform="translate(-20.579 -7.43)"/>
        <path id="prefix__Line_256" d="M0 0L0 18.893" class="prefix__cls-1" data-name="Line 256" transform="translate(571.889 312.693)"/>
        <path id="prefix__Line_257" d="M0 9.447L0 0" class="prefix__cls-1" data-name="Line 257" transform="translate(589.838 328.752)"/>
        <path id="prefix__Line_258" d="M0 0L0 6.613" class="prefix__cls-1" data-name="Line 258" transform="translate(623.373 324.973)"/>
        <path id="prefix__Path_2138" d="M576.5 292.2h49.122v4.251l-49.122-.094z" class="prefix__cls-3" data-name="Path 2138" transform="translate(-3.43 -18.616)"/>
        <path id="prefix__Rectangle_869" d="M0 0H13.225V4.723H0z" class="prefix__cls-3" data-name="Rectangle 869" transform="translate(573.07 298.617)"/>
        <path id="prefix__Rectangle_870" d="M0 0H13.225V4.723H0z" class="prefix__cls-3" data-name="Rectangle 870" transform="translate(608.967 298.617)"/>
        <path id="prefix__Rectangle_871" d="M0 0H17.004V2.362H0z" class="prefix__cls-3" data-name="Rectangle 871" transform="translate(589.129 264.137)"/>
        <path id="prefix__Path_2139" d="M609.5 316.2v10.391s2.834-7.085 8.974-6.14 7.557 1.889 9.447 7.085V316.2z" class="prefix__cls-3" data-name="Path 2139" transform="translate(-20.843 -31.28)"/>
        <path id="prefix__Path_2140" d="M577.5 364.2v25.033l1.417.945V364.2z" class="prefix__cls-3" data-name="Path 2140" transform="translate(-3.958 -56.608)"/>
        <path id="prefix__Path_2141" d="M600.5 364.2v32.307l1.417 1.228V364.2z" class="prefix__cls-3" data-name="Path 2141" transform="translate(-16.094 -56.608)"/>
        <path id="prefix__Rectangle_872" d="M0 0H9.447V9.447H0z" class="prefix__cls-3" data-name="Rectangle 872" transform="translate(574.959 307.592)"/>
        <path id="prefix__Path_2142" d="M677.917 364.2v25.033l-1.417.945V364.2z" class="prefix__cls-3" data-name="Path 2142" transform="translate(-56.197 -56.608)"/>
        <path id="prefix__Path_2143" d="M654.917 364.2v32.307l-1.417 1.228V364.2z" class="prefix__cls-3" data-name="Path 2143" transform="translate(-44.06 -56.608)"/>
        <path id="prefix__Rectangle_873" d="M0 0H9.447V9.447H0z" class="prefix__cls-3" data-name="Rectangle 873" transform="translate(610.857 307.592)"/>
    </g>
</svg>
