<svg xmlns="http://www.w3.org/2000/svg" width="99.51" height="85.124" viewBox="0 0 99.51 85.124">
    <defs>
        <style>
            .prefix__cls-1{fill:none;stroke:#000;stroke-linecap:round;stroke-linejoin:round}.prefix__cls-2{fill:#de3744;opacity:.62}
        </style>
    </defs>
    <g id="prefix__Layer_3" transform="translate(-252.518 -249.6)">
        <path id="prefix__Path_2011" d="M262.6 401.8v-14.845a268.8 268.8 0 0 1 81.155 0V401.8" class="prefix__cls-1" data-name="Path 2011" transform="translate(-4.799 -67.577)"/>
        <path id="prefix__Path_2012" d="M343.657 382.027c-30.978-5.245-61.213-5.394-90.557 0" class="prefix__cls-1" data-name="Path 2012" transform="translate(0 -64.628)"/>
        <path id="prefix__Path_2013" d="M271.9 376.217l4.454-2.474c19.695-5.74 40.874-5.641 63.489 0l3.464 2.227" class="prefix__cls-1" data-name="Path 2013" transform="translate(-9.497 -60.302)"/>
        <path id="prefix__Path_2014" d="M316.26 343.07c-14.351-.495-32.66 5.443-32.66 5.443v11.48" class="prefix__cls-1" data-name="Path 2014" transform="translate(-15.407 -46.949)"/>
        <path id="prefix__Path_2015" d="M360.2 343.9c8.907.4 23.258 4.8 23.258 4.8v11.728" class="prefix__cls-1" data-name="Path 2015" transform="translate(-54.102 -47.383)"/>
        <path id="prefix__Path_2016" d="M276.6 330.673c1.188-1.633 33.947-13.311 68.289 0" class="prefix__cls-1" data-name="Path 2016" transform="translate(-11.871 -37.521)"/>
        <path id="prefix__Path_2017" d="M347.1 334.731v-6.878s1.485-2.969 2.969 0v6.928" class="prefix__cls-1" data-name="Path 2017" transform="translate(-47.484 -38.61)"/>
        <path id="prefix__Path_2018" d="M355.6 334.848v-6.532s1.485-3.711 2.969 0v6.878" class="prefix__cls-1" data-name="Path 2018" transform="translate(-51.778 -38.678)"/>
        <path id="prefix__Path_2019" d="M338.5 334.881v-6.928s1.485-2.969 2.969 0v6.928" class="prefix__cls-1" data-name="Path 2019" transform="translate(-43.14 -38.661)"/>
        <path id="prefix__Path_2020" d="M330 335.781v-6.928s1.485-2.969 2.969 0v6.433" class="prefix__cls-1" data-name="Path 2020" transform="translate(-38.846 -39.116)"/>
        <path id="prefix__Path_2021" d="M321.4 336.831v-6.878s1.485-2.969 2.969 0v6.433" class="prefix__cls-1" data-name="Path 2021" transform="translate(-34.502 -39.671)"/>
        <path id="prefix__Path_2022" d="M312.9 338.831v-6.878s1.485-2.969 2.969 0v6.433" class="prefix__cls-1" data-name="Path 2022" transform="translate(-30.208 -40.682)"/>
        <path id="prefix__Path_2023" d="M304.3 340.831v-6.878s1.485-2.969 2.969 0v5.938" class="prefix__cls-1" data-name="Path 2023" transform="translate(-25.864 -41.692)"/>
        <path id="prefix__Path_2024" d="M295.7 342.831v-6.878s1.485-2.969 2.969 0v5.938" class="prefix__cls-1" data-name="Path 2024" transform="translate(-21.519 -42.702)"/>
        <path id="prefix__Path_2025" d="M287.2 344.831v-6.878s1.485-2.969 2.969 0v6.433" class="prefix__cls-1" data-name="Path 2025" transform="translate(-17.226 -43.712)"/>
        <path id="prefix__Path_2026" d="M281.082 346.279c-.94-.94-1.534-2.623-1.485-5.691 0 0 .891-3.761 2.375-.891v6.186" class="prefix__cls-1" data-name="Path 2026" transform="translate(-13.384 -44.715)"/>
        <path id="prefix__Path_2027" d="M367.269 335.331v-6.878s-1.485-2.969-2.969 0v6.433" class="prefix__cls-1" data-name="Path 2027" transform="translate(-56.173 -38.914)"/>
        <path id="prefix__Path_2028" d="M375.769 337.331v-6.878s-1.485-2.969-2.969 0v6.433" class="prefix__cls-1" data-name="Path 2028" transform="translate(-60.467 -39.924)"/>
        <path id="prefix__Path_2029" d="M384.369 339.331v-6.878s-1.485-2.969-2.969 0v5.938" class="prefix__cls-1" data-name="Path 2029" transform="translate(-64.811 -40.934)"/>
        <path id="prefix__Path_2030" d="M392.869 341.331v-6.878s-1.485-2.969-2.969 0v5.938" class="prefix__cls-1" data-name="Path 2030" transform="translate(-69.105 -41.944)"/>
        <path id="prefix__Path_2031" d="M401.469 343.331v-6.878s-1.485-2.969-2.969 0v6.433" class="prefix__cls-1" data-name="Path 2031" transform="translate(-73.449 -42.955)"/>
        <path id="prefix__Path_2032" d="M408.091 344.779c.94-.94 1.534-2.623 1.485-5.691 0 0-.891-3.761-2.375-.891v6.186" class="prefix__cls-2" data-name="Path 2032" transform="translate(-77.844 -43.957)"/>
        <path id="prefix__Path_2033" d="M294.3 320.244l25.881-10.144 22.318 9.847" class="prefix__cls-1" data-name="Path 2033" transform="translate(-20.812 -30.309)"/>
        <path id="prefix__Path_2034" d="M341.6 356.466v-4.948s1.485-2.969 2.969-2.474 2.474 2.969 2.474 2.969v4.454c-1.089-1.485-2.227-1.88-3.464 0" class="prefix__cls-1" data-name="Path 2034" transform="translate(-44.706 -49.953)"/>
        <path id="prefix__Path_2035" d="M392.043 360.466v-4.948s-1.485-2.969-2.969-2.474-2.474 2.969-2.474 2.969v4.454c1.237-1.534 2.425-2.227 3.464 0" class="prefix__cls-1" data-name="Path 2035" transform="translate(-67.438 -51.974)"/>
        <path id="prefix__Path_2036" d="M292.6 361.466v-4.948s1.485-2.969 2.969-2.474 2.474 2.969 2.474 2.969v4.454a3.35 3.35 0 0 0-3.464 0" class="prefix__cls-1" data-name="Path 2036" transform="translate(-19.953 -52.479)"/>
        <path id="prefix__Line_204" d="M0 0L0 8.907" class="prefix__cls-1" data-name="Line 204" transform="translate(299.368 268.409)"/>
        <path id="prefix__Path_2037" d="M407.42 302.654V284.2c-1.831 0 11.035-5.74 19.794 0v42.7" class="prefix__cls-1" data-name="Path 2037" transform="translate(-77.866 -15.935)"/>
        <path id="prefix__Line_205" d="M0 0L0 15.835" class="prefix__cls-1" data-name="Line 205" transform="translate(349.348 316.41)"/>
        <path id="prefix__Path_2038" d="M405.6 299.585a40.66 40.66 0 0 1 21.773 0" class="prefix__cls-1" data-name="Path 2038" transform="translate(-77.036 -24.247)"/>
        <path id="prefix__Path_2039" d="M423.969 273.693v-5.938s-1.485-2.524-2.969 0v6.334" class="prefix__cls-1" data-name="Path 2039" transform="translate(-84.815 -8.352)"/>
        <path id="prefix__Path_2040" d="M432.769 273.836v-6.384s-1.485-2.969-2.969 0v5.938" class="prefix__cls-1" data-name="Path 2040" transform="translate(-89.26 -8.099)"/>
        <path id="prefix__Path_2041" d="M441.469 276.331v-6.878s-1.485-2.969-2.969 0v5.938" class="prefix__cls-1" data-name="Path 2041" transform="translate(-93.655 -9.11)"/>
        <path id="prefix__Path_2042" d="M448.091 277.779c.94-.94 1.534-2.623 1.485-5.691 0 0-.891-3.761-2.375-.891v6.186" class="prefix__cls-1" data-name="Path 2042" transform="translate(-98.05 -10.112)"/>
        <path id="prefix__Path_2043" d="M412.3 275.836v-6.384s1.485-2.969 2.969 0v5.938" class="prefix__cls-1" data-name="Path 2043" transform="translate(-80.42 -9.11)"/>
        <path id="prefix__Path_2044" d="M405.082 277.779c-.94-.94-1.534-2.623-1.485-5.691 0 0 .891-3.761 2.375-.891v6.186" class="prefix__cls-1" data-name="Path 2044" transform="translate(-76.022 -10.112)"/>
        <path id="prefix__Path_2045" d="M405.6 260v-5.443s8.412-3.464 16.33-.99V250.1h4.454v3.959h.99V260" class="prefix__cls-1" data-name="Path 2045" transform="translate(-77.036)"/>
        <path id="prefix__Path_2046" d="M268.6 407.455v-7.918s0-4.454 5.443-4.454a3.681 3.681 0 0 1 4.206 3.959v8.412" class="prefix__cls-1" data-name="Path 2046" transform="translate(-7.83 -73.23)"/>
        <path id="prefix__Path_2047" d="M295.3 403.655v-7.918s0-4.454 5.443-4.454a3.681 3.681 0 0 1 4.206 3.959v8.412" class="prefix__cls-1" data-name="Path 2047" transform="translate(-21.317 -71.311)"/>
        <path id="prefix__Path_2048" d="M321.9 402.654v-7.918s0-4.454 5.443-4.454a3.681 3.681 0 0 1 4.206 3.959v8.412" class="prefix__cls-1" data-name="Path 2048" transform="translate(-34.754 -70.806)"/>
        <path id="prefix__Path_2049" d="M348.5 402.654v-7.918s0-4.454 5.443-4.454a3.681 3.681 0 0 1 4.206 3.959v8.412" class="prefix__cls-1" data-name="Path 2049" transform="translate(-48.191 -70.806)"/>
        <path id="prefix__Path_2050" d="M375.1 403.655v-7.918s0-4.454 5.443-4.454a3.681 3.681 0 0 1 4.206 3.959v8.412" class="prefix__cls-1" data-name="Path 2050" transform="translate(-61.629 -71.311)"/>
        <path id="prefix__Path_2051" d="M401.7 405.654v-7.918s0-4.454 5.443-4.454a3.681 3.681 0 0 1 4.206 3.959v8.412" class="prefix__cls-1" data-name="Path 2051" transform="translate(-75.066 -72.321)"/>
        <path id="prefix__Path_2052" d="M410.242 302.9s12.866 48.99 16.33 55.423h-6.928v-15.34l-5.938-.99-3.464-2.969-.247-11.134s4.206-7.175 0-10.392l-.495-14.351z" class="prefix__cls-2" data-name="Path 2052" transform="translate(-79.006 -26.672)"/>
        <path id="prefix__Path_2053" d="M410 286.9l10.392 3.959s-9.4.99-10.392 1.485z" class="prefix__cls-2" data-name="Path 2053" transform="translate(-79.258 -18.59)"/>
        <path id="prefix__Path_2054" d="M285 354.89l2.969-.99v9.4L285 364.787z" class="prefix__cls-2" data-name="Path 2054" transform="translate(-16.114 -52.435)"/>
        <path id="prefix__Path_2055" d="M299 349.89l3.464 3.959v5.443c4.6-1.039 10.738-1.138 17.32-.99l-.495-5.443-13.361-3.959z" class="prefix__cls-2" data-name="Path 2055" transform="translate(-23.186 -49.909)"/>
        <path id="prefix__Path_2056" d="M342 361.859h5.938V357.9l15.34 5.938-.495.99s-14.351-2.969-20.289-1.979z" class="prefix__cls-2" data-name="Path 2056" transform="translate(-44.908 -54.455)"/>
        <path id="prefix__Path_2057" d="M329.825 312.9s-4.454 5.443 8.412 4.948c0 0-17.815-.99-25.237.99z" class="prefix__cls-2" data-name="Path 2057" transform="translate(-30.259 -31.724)"/>
        <path id="prefix__Path_2058" d="M308.248 371.861l25.237 1.979c-.594.4-42.507-.841-49.485 1.979 0 .001 17.815-4.453 24.248-3.958z" class="prefix__cls-2" data-name="Path 2058" transform="translate(-15.609 -61.488)"/>
        <path id="prefix__Path_2059" d="M270 408.238v-7.918s.495-3.959 3.464-3.464a12.257 12.257 0 0 0-1.485 4.454 29.106 29.106 0 0 0 0 6.928z" class="prefix__cls-2" data-name="Path 2059" transform="translate(-8.537 -74.113)"/>
        <path id="prefix__Path_2060" d="M297 404.238v-7.918s.495-3.959 3.464-3.464a12.257 12.257 0 0 0-1.485 4.454 29.106 29.106 0 0 0 0 6.928z" class="prefix__cls-2" data-name="Path 2060" transform="translate(-22.176 -72.092)"/>
        <path id="prefix__Path_2061" d="M324 403.238v-7.918s.495-3.959 3.464-3.464a12.257 12.257 0 0 0-1.485 4.454 29.1 29.1 0 0 0 0 6.928z" class="prefix__cls-2" data-name="Path 2061" transform="translate(-35.815 -71.587)"/>
        <path id="prefix__Path_2062" d="M350 404.238v-7.918s.495-3.959 3.464-3.464a12.257 12.257 0 0 0-1.485 4.454 29.106 29.106 0 0 0 0 6.928z" class="prefix__cls-2" data-name="Path 2062" transform="translate(-48.949 -72.092)"/>
        <path id="prefix__Path_2063" d="M377 404.238v-7.918s.495-3.959 3.464-3.464a12.257 12.257 0 0 0-1.485 4.454 29.1 29.1 0 0 0 0 6.928z" class="prefix__cls-2" data-name="Path 2063" transform="translate(-62.588 -72.092)"/>
        <path id="prefix__Path_2064" d="M403 406.238v-7.918s.495-3.959 3.464-3.464a12.257 12.257 0 0 0-1.485 4.454 29.106 29.106 0 0 0 0 6.928z" class="prefix__cls-2" data-name="Path 2064" transform="translate(-75.722 -73.102)"/>
    </g>
</svg>
