<svg xmlns="http://www.w3.org/2000/svg" width="15.268" height="10.496" viewBox="0 0 15.268 10.496">
    <defs>
        <style>
            .prefix__cls-1{fill:#3c3c47}
        </style>
    </defs>
    <g id="prefix__mail" transform="translate(0 -80)">
        <g id="prefix__Group_2419" data-name="Group 2419" transform="translate(10.12 81.935)">
            <g id="prefix__Group_2418" data-name="Group 2418">
                <path id="prefix__Path_95" d="M339.392 148.287l5.147 3.254V144.9z" class="prefix__cls-1" data-name="Path 95" transform="translate(-339.392 -144.896)"/>
            </g>
        </g>
        <g id="prefix__Group_2421" data-name="Group 2421" transform="translate(0 81.935)">
            <g id="prefix__Group_2420" data-name="Group 2420">
                <path id="prefix__Path_96" d="M0 144.9v6.645l5.147-3.254z" class="prefix__cls-1" data-name="Path 96" transform="translate(0 -144.896)"/>
            </g>
        </g>
        <g id="prefix__Group_2423" data-name="Group 2423" transform="translate(.029 80)">
            <g id="prefix__Group_2422" data-name="Group 2422">
                <path id="prefix__Path_97" d="M15.245 80H1.886a.942.942 0 0 0-.926.812l7.605 5.011 7.605-5.011a.942.942 0 0 0-.925-.812z" class="prefix__cls-1" data-name="Path 97" transform="translate(-.96 -80)"/>
            </g>
        </g>
        <g id="prefix__Group_2425" data-name="Group 2425" transform="translate(.031 85.902)">
            <g id="prefix__Group_2424" data-name="Group 2424">
                <path id="prefix__Path_98" d="M10.24 277.921l-1.35.889a.479.479 0 0 1-.525 0l-1.35-.89-5.991 3.789a.941.941 0 0 0 .924.805h13.359a.941.941 0 0 0 .924-.805z" class="prefix__cls-1" data-name="Path 98" transform="translate(-1.024 -277.92)"/>
            </g>
        </g>
    </g>
</svg>
