<svg xmlns="http://www.w3.org/2000/svg" width="295.25" height="207.184" viewBox="0 0 295.25 207.184">
    <defs>
        <style>
            .prefix__cls-1{fill:#e2e2e2}.prefix__cls-2{fill:#f4f4f4}.prefix__cls-3{fill:#ededed}.prefix__cls-17,.prefix__cls-4{fill:none}.prefix__cls-4{stroke:#e2e2e2}.prefix__cls-17,.prefix__cls-4,.prefix__cls-8{stroke-miterlimit:10}.prefix__cls-6,.prefix__cls-8{fill:#fff}.prefix__cls-7{fill:#de3744}.prefix__cls-8{stroke:#000;stroke-width:.25px}.prefix__cls-9{fill:#d3d1d1}.prefix__cls-17{stroke:#686767;stroke-linecap:round;stroke-width:.5px}.prefix__cls-18{fill:#f2f2f2}
        </style>
    </defs>
    <g id="prefix__mail" transform="translate(-18.23 -8.984)">
        <g id="prefix__Mail_3" data-name="Mail 3" transform="translate(18.23 9.512)">
            <path id="prefix__Path_1893" d="M220.74 130.212h-13.57V48.78l13.57 3.392z" class="prefix__cls-1" data-name="Path 1893" transform="translate(33.796 1.3)"/>
            <path id="prefix__Rectangle_812" d="M0 0H52.927V34.154H0z" class="prefix__cls-1" data-name="Rectangle 812" transform="translate(11.95 162.26)"/>
            <path id="prefix__Rectangle_813" d="M0 0H6.836V85.372H0z" class="prefix__cls-2" data-name="Rectangle 813" transform="translate(64.89 121.283)"/>
            <path id="prefix__Path_1894" d="M119.39 186.958h78.983l2.436-86.52-81.419-6.428z" class="prefix__cls-3" data-name="Path 1894" transform="translate(9.625 13.754)"/>
            <path id="prefix__Rectangle_814" d="M0 0H88.204V66.153H0z" class="prefix__cls-3" data-name="Rectangle 814" transform="translate(152.762 50.08)"/>
            <path id="prefix__Rectangle_815" d="M0 0H25.609V94.466H0z" class="prefix__cls-2" data-name="Rectangle 815" transform="rotate(180 111.766 100.356)"/>
            <path id="prefix__Path_1895" d="M221.97 154.028s-17.1-41.781 17.2-69.928c.005 0 22.63 29.384-17.2 69.928z" class="prefix__cls-1" data-name="Path 1895" transform="translate(36.697 11.026)"/>
            <path id="prefix__Path_1896" d="M227.536 108.848s-13.3-32.483 13.379-54.368c-.001 0 17.585 22.854-13.379 54.368z" class="prefix__cls-1" data-name="Path 1896" transform="translate(38.491 2.87)"/>
            <path id="prefix__Path_1897" d="M224.236 187.324H193.5l.472-94.644 30.264 5.089z" class="prefix__cls-1" data-name="Path 1897" transform="translate(30.032 13.388)"/>
            <path id="prefix__Path_1898" d="M199.411 95.88s-.829 37.572 27.816 53.858z" class="prefix__cls-2" data-name="Path 1898" transform="translate(31.659 14.269)"/>
            <path id="prefix__Path_1899" d="M200.62 94.11l26.272 56.116s3.214-45.888-26.272-56.116z" class="prefix__cls-3" data-name="Path 1899" transform="translate(31.992 13.782)"/>
            <path id="prefix__Path_1900" d="M216.906 60s-25.826 41.079 7.384 79.072z" class="prefix__cls-2" data-name="Path 1900" transform="translate(33.842 4.39)"/>
            <path id="prefix__Path_1901" d="M217.86 58.88l3.533 80.5s34.907-48.603-3.533-80.5z" class="prefix__cls-3" data-name="Path 1901" transform="translate(36.739 4.081)"/>
            <path id="prefix__Path_1902" d="M234.623 108.18s-7.83-25.354 16.977-36.45c0 0 12.458 19.207-16.977 36.45z" class="prefix__cls-1" data-name="Path 1902" transform="translate(41.032 7.62)"/>
            <path id="prefix__Path_1903" d="M207.89 138.16s25.163 3.826 36.769 0v5.8s-23.224 1.939-36.769 0z" class="prefix__cls-1" data-name="Path 1903" transform="translate(33.994 25.911)"/>
            <path id="prefix__Path_1904" d="M242.212 142.71l-3.826 29.027s-15.483 1.939-25.163 0L209.78 143s16.937 3.587 32.432-.29z" class="prefix__cls-1" data-name="Path 1904" transform="translate(34.515 27.164)"/>
            <path id="prefix__Rectangle_816" d="M0 0H6.836V85.372H0z" class="prefix__cls-2" data-name="Rectangle 816" transform="translate(5.127 121.283)"/>
            <path id="prefix__Rectangle_817" d="M0 0H58.054V6.836H0z" class="prefix__cls-2" data-name="Rectangle 817" transform="translate(6.836 155.437)"/>
            <path id="prefix__Rectangle_818" d="M0 0H52.927V34.154H0z" class="prefix__cls-1" data-name="Rectangle 818" transform="translate(11.95 121.283)"/>
            <path id="prefix__Rectangle_819" d="M0 0H58.054V6.836H0z" class="prefix__cls-2" data-name="Rectangle 819" transform="translate(10.241 194.706)"/>
            <path id="prefix__Path_1905" d="M55.889 106.252H33.7L30.28 73.82h22.191z" class="prefix__cls-1" data-name="Path 1905" transform="translate(-14.912 8.195)"/>
            <path id="prefix__Path_1906" d="M51.645 103.821H35.729L33.28 76.49H49.2z" class="prefix__cls-2" data-name="Path 1906" transform="translate(-14.086 8.93)"/>
            <path id="prefix__Path_1907" d="M33.1 86.54l-6.84 16.21h5.127l2.882-5.038z" class="prefix__cls-1" data-name="Path 1907" transform="translate(-16.019 11.698)"/>
            <path id="prefix__Rectangle_820" d="M0 0H11.95V17.077H0z" class="prefix__cls-1" data-name="Rectangle 820" transform="translate(42.686 97.383)"/>
            <path id="prefix__Path_1908" d="M59.73 88.54l5.127 1.709v6.836l-5.127 1.709z" class="prefix__cls-4" data-name="Path 1908" transform="translate(-6.803 12.248)"/>
            <path id="prefix__Path_1909" d="M107.943 30.95L75.5 42.9s-6.823-18.786 6.836-25.609 25.607 8.532 25.607 13.659z" class="prefix__cls-1" data-name="Path 1909" transform="translate(-2.93 -7.844)"/>
            <path id="prefix__Path_1910" d="M79.252 18.16s4.362 20.572 3.826 21.018a48.335 48.335 0 0 1-5.6 2.155s-5.062-17.306 1.774-23.173z" data-name="Path 1910" transform="translate(-2.412 -7.131)" style="fill:#d6d4d4"/>
            <path id="prefix__Path_1911" d="M91.717 17.786S4.853-35.409 49.248 127.964" class="prefix__cls-4" data-name="Path 1911" transform="translate(-13.168 -9.512)"/>
            <path id="prefix__Path_1912" d="M95.2 30.5l-11.31 4.17S93.787 41 95.2 30.5z" class="prefix__cls-1" data-name="Path 1912" transform="translate(-.15 -3.733)"/>
            <path id="prefix__Rectangle_821" d="M0 0H20.355V91.673H0z" class="prefix__cls-2" data-name="Rectangle 821" transform="translate(108.648 107.764)"/>
            <path id="prefix__Rectangle_822" d="M0 0H74.634V17.689H0z" class="prefix__cls-1" data-name="Rectangle 822" transform="translate(123.914 135.108)"/>
            <path id="prefix__Rectangle_823" d="M0 0H75.131V6.836H0z" class="prefix__cls-2" data-name="Rectangle 823" transform="translate(0 114.447)"/>
            <path id="prefix__Path_1913" d="M93.956 47.254a18.2 18.2 0 0 1 .829 3.826 4.528 4.528 0 0 0-1.837.4c-.4.255-.65.128-.65.918a1.008 1.008 0 0 0 .383.906 3.1 3.1 0 0 0 1.441.791 2.092 2.092 0 0 0 1.709 1.173 1.671 1.671 0 0 1 .778.268 2.423 2.423 0 0 1-2.219 2.359h-.128a10.789 10.789 0 0 1-.791 2.87 5.318 5.318 0 0 1-2.882 2.551 4.9 4.9 0 0 1-2.742.14 9.3 9.3 0 0 0-1.186 3.66A3.418 3.418 0 0 0 88.37 69.6a8.481 8.481 0 0 1-9.208 1.734l-2.219-1.046c.434-1.99 3.405-8.8 1.964-14.258a1.581 1.581 0 0 1-1.275-.128 4.655 4.655 0 0 1-1.964-2.232 3.826 3.826 0 0 1 .791-2.882c.65.14 1.275-1.275 1.046-2.551L86.1 42z" class="prefix__cls-6" data-name="Path 1913" transform="translate(-2.424 -.567)"/>
            <ellipse id="prefix__Ellipse_209" cx="1.696" cy="3.01" class="prefix__cls-6" data-name="Ellipse 209" rx="1.696" ry="3.01" transform="rotate(-79.81 71.392 -22.195)"/>
            <path id="prefix__Path_1914" d="M87.53 50.357c-.536 2.219-6.032 1.275-5.637-.918s5.637-1.275 5.637.918c0 .128.255.128.255 0 .128-2.551-5.752-3.533-6.02-1.046-.265 1.441 1.835 2.089 2.742 2.347s3.023.14 3.278-1.275c-.128-.154-.255-.154-.255-.026z" data-name="Path 1914" transform="translate(-.742 1.05)"/>
            <ellipse id="prefix__Ellipse_210" cx="1.696" cy="3.01" class="prefix__cls-6" data-name="Ellipse 210" rx="1.696" ry="3.01" transform="rotate(-79.81 75.36 -25.69)"/>
            <path id="prefix__Path_1915" d="M92.759 50.967c-.523 2.232-6.02 1.186-5.624-.906s5.752-1.275 5.624.906c0 .14.255.14.255 0 .14-2.551-5.752-3.533-6.02-1.046-.255 1.441 1.837 2.092 2.755 2.359s3.01.128 3.265-1.275c-.089-.166-.255-.166-.255-.038z" data-name="Path 1915" transform="translate(.699 1.218)"/>
            <path id="prefix__Path_1916" d="M88.43 51.729S89.6 47.9 92.358 50.3c0-.165.523 2.385-3.928 1.429z" data-name="Path 1916" transform="translate(1.1 1.501)"/>
            <path id="prefix__Path_1917" d="M83.3 51.12s1.173-3.826 3.928-1.441c-.128-.128.395 2.359-3.928 1.441z" data-name="Path 1917" transform="translate(-.313 1.332)"/>
            <path id="prefix__Path_1918" d="M81.019 40.933a9.042 9.042 0 0 1 5.752-1.964 21.681 21.681 0 0 1 6.543.268 8.15 8.15 0 0 1 4.974 3.01 4.158 4.158 0 0 1-.65 5.229 8.57 8.57 0 0 1-6.683 2.232 20.329 20.329 0 0 1-6.543-1.964v.23c-.906 1.173-2.347 2.092-2.347 3.533a5.446 5.446 0 0 1-.4 1.964c-.268.523.255 3.137-.4 3.137s-.65-1.173-.791-1.7a4.77 4.77 0 0 0-1.173-1.7 3.29 3.29 0 0 0-2.601-1.18l-.4-2.882c0-2.092.918-3.533 1.046-5.624a3.3 3.3 0 0 1 .676-1.926 2.206 2.206 0 0 1 2.882 0" data-name="Path 1918" transform="translate(-2.24 -1.438)"/>
            <path id="prefix__Path_1919" d="M89.87 46.358a10.458 10.458 0 0 1 .918 3.405.128.128 0 0 0 .128.128c.128 0 .128 0 .128-.128a11.644 11.644 0 0 0-.918-3.533s-.256 0-.256.128z" data-name="Path 1919" transform="translate(1.497 .598)"/>
            <path id="prefix__Path_1920" d="M91.948 54.44a5.344 5.344 0 0 1-2.548 4.579 5.854 5.854 0 0 1-5.51.255.14.14 0 0 0-.128.14 6.377 6.377 0 0 0 5.765-.268 5.025 5.025 0 0 0 2.359-4.706z" data-name="Path 1920" transform="translate(-.186 2.859)"/>
            <path id="prefix__Path_1921" d="M90.519 51.6c.4.4.523.791.918.918s1.441-.128 1.275.791a2.665 2.665 0 0 1-1.53 1.658 2.283 2.283 0 0 1-2.551-.918c-.14-.128-.268 0-.14.128a2.551 2.551 0 0 0 3.405.536l.4-.4c.268-.4.791-1.275.523-1.709-.128-.128-.128-.128-.255-.128-.4-.128-.791 0-1.275-.128s-.65-.523-.918-.918c-.128-.128-.4.255-.4.255z" data-name="Path 1921" transform="translate(1.102 2.024)"/>
            <path id="prefix__Path_1922" d="M88.352 55.4a2.206 2.206 0 0 1-1.441 1.186 1.964 1.964 0 0 1-1.8-.523 1.645 1.645 0 0 1-.4-1.837 26.26 26.26 0 0 1 3.405 1.046" class="prefix__cls-6" data-name="Path 1922" transform="translate(.043 2.801)"/>
            <path id="prefix__Path_1923" d="M88.227 55.4a2.206 2.206 0 0 1-1.827 1.189 1.734 1.734 0 0 1-1.837-1.569v-.14c0-.523 0-.523.523-.383s.65.128 1.046.255a14.717 14.717 0 0 1 2.092.65c.14 0 .14-.128 0 0a12.651 12.651 0 0 0-3.533-1.173h-.128a1.964 1.964 0 0 0 .918 2.551 2.449 2.449 0 0 0 2.742-1.275c.144-.105.004-.229.004-.105z" data-name="Path 1923" transform="translate(-.01 2.801)"/>
            <path id="prefix__Path_1924" d="M85.2 58.761a5.867 5.867 0 0 0-.905 3.66c.128 1.964.523 1.173 1.428 2.551.14.128.14 0 .14-.128-.918-1.275-1.275-.4-1.441-2.359a7.193 7.193 0 0 1 .918-3.66s-.14-.205-.14-.064z" data-name="Path 1924" transform="translate(-.044 4.035)"/>
            <path id="prefix__Path_1925" d="M79.72 50.433c-.995-1.964-3.392-2.1-4.183-.128s1.275 4.719 3.405 3.826c.128 0 0-.268 0-.128-1.964.906-3.826-1.581-3.278-3.278.51-2 3.061-1.7 4.056.23 0 .128-.128-1.059-.128-1.059z" data-name="Path 1925" transform="translate(-2.498 1.33)"/>
            <path id="prefix__Path_1926" d="M78.622 53.021a22.6 22.6 0 0 1-.4 8.379c-.523 1.824-1.275 3.405-1.7 5.229 0 .14.128.14.255 0 .4-1.824 1.173-3.533 1.709-5.356a21.936 21.936 0 0 0 .383-8.252c-.12-.128-.375-.128-.247 0z" data-name="Path 1926" transform="translate(-2.177 2.441)"/>
            <path id="prefix__Path_1927" d="M77.979 50a2.283 2.283 0 0 0-.791 2.882c0 .128.268 0 .128 0a2.028 2.028 0 0 1 .663-2.614c.306-.102.128-.268 0-.268z" data-name="Path 1927" transform="translate(-2.057 1.636)"/>
            <path id="prefix__Path_1928" d="M77.35 51.16c.255.268.523.4.778.65h.14v-.128c-.268-.255-.536-.4-.791-.65.001-.132-.127-.025-.127.128z" data-name="Path 1928" transform="translate(-1.951 1.904)"/>
            <path id="prefix__Path_1929" d="M83.884 58.219a3.15 3.15 0 0 0-.663-.4c-.383-.128-.778.523-.523.918a1.275 1.275 0 0 0 1.186.65c.65-.128 1.046-.255 1.173-.128a3.367 3.367 0 0 1 .128 1.186s.4-1.441.791-1.709z" data-name="Path 1929" transform="translate(-.501 3.786)"/>
            <path id="prefix__Path_1930" d="M79.138 63.78s4.693 5.828 11.721 0l11.733 2.347v43.362H67.43l1.17-43.362z" class="prefix__cls-7" data-name="Path 1930" transform="translate(-4.682 5.43)"/>
            <path id="prefix__Path_1931" d="M68 99.14s-1.173 69.1 0 74.965h7.03s4.68-38.656 5.87-44.535a43.362 43.362 0 0 1 4.681-11.721l2.347 9.374 2.334 45.709h9.361s4.693-51.537 3.52-73.792z" data-name="Path 1931" transform="translate(-4.668 15.167)"/>
            <path id="prefix__Path_1932" d="M72.919 66.25s-17 18.812-20.827 27.739 19.13 21.681 19.13 21.681-1.275 2.551 0 7.652 2.551-10.2 1.275-12.754-12.754-15.3-12.754-15.3L72.5 81.937z" class="prefix__cls-8" data-name="Path 1932" transform="translate(-9.024 6.111)"/>
            <path id="prefix__Path_1933" d="M70.2 66.146L60 76.349 65.1 89.1l5.012-3.558 2.3-20.074z" class="prefix__cls-7" data-name="Path 1933" transform="translate(-6.728 5.896)"/>
            <path id="prefix__Path_1934" d="M94.193 66s17 18.8 20.827 27.726-19.13 21.681-19.13 21.681 1.275 2.551 0 7.652-2.551-10.2-1.275-12.754S107.368 95 107.368 95L94.614 81.674z" class="prefix__cls-8" data-name="Path 1934" transform="translate(2.657 6.042)"/>
            <path id="prefix__Path_1935" d="M94.976 65.886l10.2 10.2-5.1 12.754-5-3.558L92.77 65.21z" class="prefix__cls-7" data-name="Path 1935" transform="translate(2.295 5.824)"/>
            <path id="prefix__Path_1936" d="M185.8 36.562A6.619 6.619 0 0 1 192.6 31a5.828 5.828 0 0 1 4.642 7.116z" class="prefix__cls-9" data-name="Path 1936" transform="translate(27.912 -3.597)"/>
            <path id="prefix__Path_1937" d="M123.38 178.3L153.5 44.221c.676-3.469 2.551-9.948 6.122-9.476l94.1 13.264c3.826.523 7.741 7.652 6.836 11.185l-26.783 136.068a6.453 6.453 0 0 1-7.321 5.65" data-name="Path 1937" transform="translate(10.724 -2.571)" style="fill:#2a3f5e"/>
            <path id="prefix__Path_1938" d="M226.379 169.882l-94.058-12.677c-3.826-.523-9.667-6.147-8.927-9.935" data-name="Path 1938" transform="translate(10.71 28.42)" style="fill:#a83b48"/>
            <path id="prefix__Path_1939" d="M123.529 176.158L150.311 40.09a6.7 6.7 0 0 1 7.474-5.356l94.058 12.754a6.683 6.683 0 0 1 5.675 7.933l-26.783 136.066a6.708 6.708 0 0 1-7.474 5.357l-94.006-12.754a6.708 6.708 0 0 1-5.688-7.933" data-name="Path 1939" transform="translate(10.741 -2.585)" style="fill:#3b88fd"/>
            <path id="prefix__Path_1940" d="M248.626 53.1L155.92 40.13l-24.27 121.95 94.1 11.746z" class="prefix__cls-6" data-name="Path 1940" transform="translate(13.001 -1.082)"/>
            <path id="prefix__Path_1941" d="M134.349 125.26l10.458 14.9-13.276-1.2z" data-name="Path 1941" transform="translate(12.968 22.359)" style="fill:#cecccc"/>
            <path id="prefix__Path_1942" d="M133.42 124.65s9.654 4.821 13.276 4.821a39.536 39.536 0 0 0-2.665 10.853s-10.611-10.853-10.611-15.674z" class="prefix__cls-1" data-name="Path 1942" transform="translate(13.488 22.191)"/>
            <path id="prefix__Rectangle_824" d="M0 0H73.588V9.705H0z" data-name="Rectangle 824" transform="rotate(7.7 -183.797 1350.26)" style="fill:#e8e6e6"/>
            <path id="prefix__Path_1943" d="M227.1 40.8l-60.452-8.264a5.6 5.6 0 0 0-6.313 4.757l-.421 2.933 72.7 9.846.242-1.734A6.7 6.7 0 0 0 227.1 40.8z" class="prefix__cls-9" data-name="Path 1943" transform="translate(20.783 -3.189)"/>
            <circle id="prefix__Ellipse_211" cx="3.622" cy="3.622" r="3.622" data-name="Ellipse 211" transform="translate(215.676 29.815)" style="fill:#66b0f2"/>
            <path id="prefix__Rectangle_825" d="M0 0H37.789V26.54H0z" class="prefix__cls-6" data-name="Rectangle 825" transform="rotate(6.82 -340.45 1430.67)"/>
            <text id="prefix__GST" transform="rotate(6.78 -492.36 1474.87)" style="font-size:21px;font-family:Helvetica;fill:#de3744">
                <tspan x="0" y="0">GST</tspan>
            </text>
            <path id="prefix__Line_153" d="M0 0L38.605 4.821" class="prefix__cls-17" data-name="Line 153" transform="translate(213.265 59.977)"/>
            <path id="prefix__Line_154" d="M0 0L38.605 4.821" class="prefix__cls-17" data-name="Line 154" transform="translate(210.995 65.576)"/>
            <path id="prefix__Line_155" d="M0 0L38.605 4.821" class="prefix__cls-17" data-name="Line 155" transform="translate(209.796 71.174)"/>
            <path id="prefix__Line_156" d="M0 0L74.047 8.711" class="prefix__cls-17" data-name="Line 156" transform="translate(172.39 72.373)"/>
            <path id="prefix__Line_157" d="M0 0L74.047 8.711" class="prefix__cls-17" data-name="Line 157" transform="translate(171.561 77.679)"/>
            <path id="prefix__Path_1944" d="M184.63 85.434l-35.34-4.221 1.467-7.563 35.353 4.221z" class="prefix__cls-18" data-name="Path 1944" transform="translate(17.858 8.148)"/>
            <path id="prefix__Path_1945" d="M214.8 88.56l-33.478-4 1.11-7.065 33.478 4z" class="prefix__cls-18" data-name="Path 1945" transform="translate(26.678 9.206)"/>
            <path id="prefix__Path_1946" d="M182.762 92.747l-34.792-4.158 1.416-7.129 34.779 4.158z" class="prefix__cls-18" data-name="Path 1946" transform="translate(17.495 10.299)"/>
            <path id="prefix__Path_1947" d="M215.474 96.736l-36.424-4.362 1.161-7.244 36.411 4.362z" class="prefix__cls-18" data-name="Path 1947" transform="translate(26.053 11.309)"/>
            <path id="prefix__Path_1948" d="M222.461 112.75l-78-10.649 2.959-13.85 78 10.649z" class="prefix__cls-18" data-name="Path 1948" transform="translate(16.528 12.168)"/>
            <path id="prefix__Line_158" d="M0 0L74.047 8.711" class="prefix__cls-17" data-name="Line 158" transform="translate(161.269 122.074)"/>
            <path id="prefix__Line_159" d="M0 0L74.047 8.698" class="prefix__cls-17" data-name="Line 159" transform="translate(160.44 127.379)"/>
            <path id="prefix__Line_160" d="M0 0L74.047 8.711" class="prefix__cls-17" data-name="Line 160" transform="translate(158.45 133.17)"/>
            <path id="prefix__Path_1949" d="M85.91 158l.306 8.277L105.92 165s1.734-5.548-11.236-4.732l-.319-2.066z" data-name="Path 1949" transform="translate(.406 31.375)"/>
            <path id="prefix__Path_1950" d="M77.557 159l-.434 8.264-19.679-1.607S55.8 160.1 68.757 161.1l.344-2.053z" data-name="Path 1950" transform="translate(-7.451 31.65)"/>
        </g>
    </g>
</svg>
