<svg xmlns="http://www.w3.org/2000/svg" width="231.5" height="162.562" viewBox="0 0 231.5 162.562">
    <defs>
        <style>
            .prefix__cls-1{fill:#e2e2e2}.prefix__cls-2{fill:#f4f4f4}.prefix__cls-3{fill:#ededed}.prefix__cls-14,.prefix__cls-21,.prefix__cls-4{fill:none}.prefix__cls-4{stroke:#e2e2e2}.prefix__cls-14,.prefix__cls-16,.prefix__cls-21,.prefix__cls-4{stroke-miterlimit:10}.prefix__cls-6{fill:#d3d1d1}.prefix__cls-7{fill:#a83b48}.prefix__cls-16,.prefix__cls-9{fill:#fff}.prefix__cls-14{stroke:#686767}.prefix__cls-14,.prefix__cls-21{stroke-linecap:round;stroke-width:.5px}.prefix__cls-15{fill:#f2f2f2}.prefix__cls-16{stroke:#000;stroke-width:.25px}.prefix__cls-18{fill:#3b88fd}.prefix__cls-20{fill:#181d21}.prefix__cls-21{stroke:#fff}
        </style>
    </defs>
    <g id="prefix__man_2" data-name="man 2" transform="translate(-21.12 -7.638)">
        <path id="prefix__Path_1951" d="M220.7 111.28h-10.64V47.43l10.64 2.66z" class="prefix__cls-1" data-name="Path 1951"/>
        <path id="prefix__Rectangle_826" d="M0 0H41.5V26.78H0z" class="prefix__cls-1" data-name="Rectangle 826" transform="translate(30.49 135.39)"/>
        <path id="prefix__Rectangle_827" d="M0 0H5.36V66.94H0z" class="prefix__cls-2" data-name="Rectangle 827" transform="translate(71.99 103.26)"/>
        <path id="prefix__Path_1952" d="M122.27 165.54h61.94l1.91-67.84-63.85-5.04z" class="prefix__cls-3" data-name="Path 1952"/>
        <path id="prefix__Rectangle_828" d="M0 0H69.16V51.87H0z" class="prefix__cls-3" data-name="Rectangle 828" transform="translate(140.89 47.43)"/>
        <path id="prefix__Rectangle_829" d="M0 0H20.08V74.07H0z" class="prefix__cls-2" data-name="Rectangle 829" transform="rotate(180 98.19 82.77)"/>
        <path id="prefix__Path_1953" d="M223.94 137.58s-13.42-32.76 13.49-54.83c0 0 17.73 23.04-13.49 54.83z" class="prefix__cls-1" data-name="Path 1953"/>
        <path id="prefix__Path_1954" d="M229.71 95.76s-10.43-25.47 10.49-42.63c0 0 13.8 17.92-10.49 42.63z" class="prefix__cls-1" data-name="Path 1954"/>
        <path id="prefix__Path_1955" d="M220.49 165.54h-24.1l.36-74.21 23.74 3.99z" class="prefix__cls-1" data-name="Path 1955"/>
        <path id="prefix__Path_1956" d="M202.29 94.53s-.65 29.46 21.82 42.23z" class="prefix__cls-2" data-name="Path 1956"/>
        <path id="prefix__Path_1957" d="M203.5 92.76l20.61 44s2.51-35.98-20.61-44z" class="prefix__cls-3" data-name="Path 1957"/>
        <path id="prefix__Path_1958" d="M217.73 58.65s-20.26 32.21 5.79 62z" class="prefix__cls-2" data-name="Path 1958"/>
        <path id="prefix__Path_1959" d="M220.74 57.53l2.78 63.15s27.37-38.14-2.78-63.15z" class="prefix__cls-3" data-name="Path 1959"/>
        <path id="prefix__Path_1960" d="M237.26 99s-6.14-19.88 13.31-28.58c0-.04 9.76 15.02-13.31 28.58z" class="prefix__cls-1" data-name="Path 1960"/>
        <path id="prefix__Path_1961" d="M210.78 136.81s19.72 3 28.83 0v4.55s-18.21 1.52-28.83 0z" class="prefix__cls-1" data-name="Path 1961"/>
        <path id="prefix__Path_1962" d="M238.09 141.36l-3 22.76s-12.14 1.52-19.73 0l-2.71-22.53s13.35 2.8 25.44-.23z" class="prefix__cls-1" data-name="Path 1962"/>
        <path id="prefix__Rectangle_830" d="M0 0H5.36V66.94H0z" class="prefix__cls-2" data-name="Rectangle 830" transform="translate(25.13 103.26)"/>
        <path id="prefix__Rectangle_831" d="M0 0H45.52V5.36H0z" class="prefix__cls-2" data-name="Rectangle 831" transform="translate(26.47 130.04)"/>
        <path id="prefix__Rectangle_832" d="M0 0H41.5V26.78H0z" class="prefix__cls-1" data-name="Rectangle 832" transform="translate(30.49 103.26)"/>
        <path id="prefix__Path_1963" d="M53.25 97.9H35.84l-2.68-25.43h17.41z" class="prefix__cls-1" data-name="Path 1963"/>
        <path id="prefix__Path_1964" d="M50.57 96.56H38.08l-1.92-21.42h12.49z" class="prefix__cls-2" data-name="Path 1964"/>
        <path id="prefix__Path_1965" d="M34.5 85.19L29.15 97.9h4.01l2.27-3.95z" class="prefix__cls-1" data-name="Path 1965"/>
        <path id="prefix__Rectangle_833" d="M0 0H9.37V13.39H0z" class="prefix__cls-1" data-name="Rectangle 833" transform="translate(54.59 84.52)"/>
        <path id="prefix__Path_1966" d="M62.62 87.19l4.02 1.34v5.36l-4.02 1.34z" class="prefix__cls-4" data-name="Path 1966"/>
        <path id="prefix__Path_1967" d="M103.45 26.28L78 35.65s-5.36-14.73 5.35-20.08 20.1 6.69 20.1 10.71z" class="prefix__cls-1" data-name="Path 1967"/>
        <path id="prefix__Path_1968" d="M81.36 16.81s3.43 16.13 3 16.48A37.9 37.9 0 0 1 80 35s-4-13.59 1.36-18.19z" data-name="Path 1968" style="fill:#d6d4d4"/>
        <path id="prefix__Path_1969" d="M82.7 14.65S14.6-27.06 49.41 101" class="prefix__cls-4" data-name="Path 1969"/>
        <path id="prefix__Path_1970" d="M95.65 29.15l-8.88 3.27s7.77 4.96 8.88-3.27z" class="prefix__cls-1" data-name="Path 1970"/>
        <path id="prefix__Rectangle_834" d="M0 0H15.96V71.88H0z" class="prefix__cls-2" data-name="Rectangle 834" transform="translate(106.31 92.66)"/>
        <path id="prefix__Rectangle_835" d="M0 0H58.52V13.87H0z" class="prefix__cls-1" data-name="Rectangle 835" transform="translate(118.28 114.09)"/>
        <path id="prefix__Rectangle_836" d="M0 0H58.91V5.36H0z" class="prefix__cls-2" data-name="Rectangle 836" transform="translate(21.12 97.9)"/>
        <path id="prefix__Rectangle_837" d="M0 0H45.52V5.36H0z" class="prefix__cls-2" data-name="Rectangle 837" transform="translate(30.25 161.05)"/>
        <path id="prefix__Path_1971" d="M84.24 11.55A4.21 4.21 0 0 1 88.55 8a3.71 3.71 0 0 1 3 4.53z" class="prefix__cls-6" data-name="Path 1971"/>
        <path id="prefix__Path_1972" d="M33.77 102.64l18.92-85.47c.43-2.21 1.65-6.35 3.89-6.05l60 8.29c2.44.32 4.94 4.89 4.37 7.1l-16.85 86.74a4.12 4.12 0 0 1-4.65 3.62" class="prefix__cls-7" data-name="Path 1972"/>
        <path id="prefix__Path_1973" d="M99.42 116.87L39.48 109c-2.44-.32-6.18-3.89-5.71-6.31" class="prefix__cls-7" data-name="Path 1973"/>
        <path id="prefix__Path_1974" d="M33.88 101.27l16.84-86.74a4.29 4.29 0 0 1 4.76-3.42L115.42 19a4.26 4.26 0 0 1 3.63 5l-16.84 86.74a4.28 4.28 0 0 1-4.75 3.42l-59.95-7.92a4.26 4.26 0 0 1-3.63-5" data-name="Path 1974" style="fill:#de3744"/>
        <path id="prefix__Path_1975" d="M114.8 23.6l-59.09-8.1-15.25 77.74 59.97 7.32z" class="prefix__cls-9" data-name="Path 1975"/>
        <path id="prefix__Path_1976" d="M42.14 84.71l6.69 9.48-8.46-.75z" data-name="Path 1976" style="fill:#cecccc"/>
        <path id="prefix__Path_1977" d="M41.88 84.21s6.16 3.06 8.46 3.05a25.55 25.55 0 0 0-1.67 6.93s-6.78-6.9-6.79-9.98z" class="prefix__cls-1" data-name="Path 1977"/>
        <path id="prefix__Rectangle_838" d="M0 0H46.88V6.18H0z" data-name="Rectangle 838" transform="rotate(7.62 -74.675 481.382)" style="fill:#e8e6e6"/>
        <path id="prefix__Path_1978" d="M106 14.46L67.48 9.3a3.57 3.57 0 0 0-4 3l-.26 1.86 46.31 6.15.15-1.11a4.26 4.26 0 0 0-3.68-4.74z" class="prefix__cls-6" data-name="Path 1978"/>
        <circle id="prefix__Ellipse_212" cx="2.31" cy="2.31" r="2.31" data-name="Ellipse 212" transform="translate(85.48 9.53)" style="fill:#66b0f2"/>
        <path id="prefix__Rectangle_839" d="M0 0H24.07V16.91H0z" class="prefix__cls-9" data-name="Rectangle 839" transform="rotate(6.66 -168.876 482.53)"/>
        <text id="prefix__GST" transform="rotate(6.78 -269.767 513.865)" style="font-family:Helvetica;font-size:14px;fill:#de3744">
            <tspan x="0" y="0">GST</tspan>
        </text>
        <path id="prefix__Line_161" d="M0 0L24.6 3" class="prefix__cls-14" data-name="Line 161" transform="translate(84 28.76)"/>
        <path id="prefix__Line_162" d="M0 0L24.61 3" class="prefix__cls-14" data-name="Line 162" transform="translate(82.56 32.33)"/>
        <path id="prefix__Line_163" d="M0 0L24.6 3" class="prefix__cls-14" data-name="Line 163" transform="translate(81.81 35.9)"/>
        <path id="prefix__Line_164" d="M0 0L47.19 5.42" class="prefix__cls-14" data-name="Line 164" transform="translate(57.98 36.73)"/>
        <path id="prefix__Line_165" d="M0 0L47.19 5.42" class="prefix__cls-14" data-name="Line 165" transform="translate(57.46 40.11)"/>
        <path id="prefix__Path_1979" d="M77.19 50.19l-22.52-2.63.93-4.82 22.52 2.63z" class="prefix__cls-15" data-name="Path 1979"/>
        <path id="prefix__Path_1980" d="M102.04 52.79L80.71 50.3l.69-4.51 21.33 2.49z" class="prefix__cls-15" data-name="Path 1980"/>
        <path id="prefix__Path_1981" d="M75.79 56.22l-22.17-2.59.88-4.54 22.17 2.59z" class="prefix__cls-15" data-name="Path 1981"/>
        <path id="prefix__Path_1982" d="M102.09 59.33l-23.21-2.71.72-4.62 23.21 2.72z" class="prefix__cls-15" data-name="Path 1982"/>
        <path id="prefix__Path_1983" d="M100.5 70.08l-49.71-6.64 1.86-8.83 49.71 6.65z" class="prefix__cls-15" data-name="Path 1983"/>
        <path id="prefix__Line_166" d="M0 0L47.19 5.42" class="prefix__cls-14" data-name="Line 166" transform="translate(50.99 68.41)"/>
        <path id="prefix__Line_167" d="M0 0L47.19 5.42" class="prefix__cls-14" data-name="Line 167" transform="translate(50.47 71.79)"/>
        <path id="prefix__Line_168" d="M0 0L47.19 5.41" class="prefix__cls-14" data-name="Line 168" transform="translate(49.2 75.49)"/>
        <path id="prefix__Path_1984" d="M68.39 51h79.19s6.71 0 6.71 8.92v93.67s0 7.44 6.71 10.41H77.79c-3.4-.35-5.12-2.91-5.37-7.43V59.92s0-5.68-2.73-8a4 4 0 0 0-2.64-.92c-5.37 0-5.37 10.41-4 14.87s-4 4.46-4 4.46l13.16.11V57.08s-1.1-4.86-4.39-6.08" class="prefix__cls-16" data-name="Path 1984"/>
        <text id="prefix__ROC" transform="translate(95.39 69.9)" style="font-size:18px;fill:#3b88fd;font-family:Helvetica">
            <tspan x="0" y="0">ROC</tspan>
        </text>
        <path id="prefix__Line_169" d="M0 0L67 0" class="prefix__cls-14" data-name="Line 169" transform="translate(81.09 74.51)"/>
        <path id="prefix__Line_170" d="M0 0L67 0" class="prefix__cls-14" data-name="Line 170" transform="translate(81.09 78.51)"/>
        <path id="prefix__Line_171" d="M0 0L67 0" class="prefix__cls-14" data-name="Line 171" transform="translate(81.09 82.51)"/>
        <path id="prefix__Line_172" d="M0 0L66.5 0" class="prefix__cls-14" data-name="Line 172" transform="translate(81.09 88.51)"/>
        <path id="prefix__Line_173" d="M0 0L66.91 0" class="prefix__cls-14" data-name="Line 173" transform="translate(81.09 92.51)"/>
        <path id="prefix__Line_174" d="M0 0L37.5 0" class="prefix__cls-14" data-name="Line 174" transform="translate(81.09 96.5)"/>
        <path id="prefix__Line_175" d="M0 0L38 0" class="prefix__cls-14" data-name="Line 175" transform="translate(80.5 100.5)"/>
        <path id="prefix__Line_176" d="M0 0L66.5 0" class="prefix__cls-14" data-name="Line 176" transform="translate(81.03 107)"/>
        <path id="prefix__Line_177" d="M0 0L66.92 0" class="prefix__cls-14" data-name="Line 177" transform="translate(81.03 110.99)"/>
        <path id="prefix__Line_178" d="M0 0L37.5 0" class="prefix__cls-14" data-name="Line 178" transform="translate(81.03 114.99)"/>
        <path id="prefix__Rectangle_840" d="M0 0H8.26V1.27H0z" class="prefix__cls-18" data-name="Rectangle 840" transform="rotate(-48.26 198.413 -87.936)"/>
        <path id="prefix__Rectangle_841" d="M0 0H4.45V1.27H0z" class="prefix__cls-18" data-name="Rectangle 841" transform="rotate(41.74 -86.181 228.249)"/>
        <path id="prefix__Line_179" d="M0 0L38 0" class="prefix__cls-14" data-name="Line 179" transform="translate(80.45 118.99)"/>
        <path id="prefix__Line_180" d="M0 0L66.5 0" class="prefix__cls-14" data-name="Line 180" transform="translate(80.03 125)"/>
        <path id="prefix__Line_181" d="M0 0L66.92 0" class="prefix__cls-14" data-name="Line 181" transform="translate(80.03 128.99)"/>
        <path id="prefix__Line_182" d="M0 0L37.5 0" class="prefix__cls-14" data-name="Line 182" transform="translate(80.03 132.99)"/>
        <path id="prefix__Rectangle_842" d="M0 0H8.26V1.27H0z" class="prefix__cls-18" data-name="Rectangle 842" transform="rotate(-48.26 218.012 -77.81)"/>
        <path id="prefix__Rectangle_843" d="M0 0H4.45V1.27H0z" class="prefix__cls-18" data-name="Rectangle 843" transform="rotate(41.74 -110.28 235.935)"/>
        <path id="prefix__Line_183" d="M0 0L38 0" class="prefix__cls-14" data-name="Line 183" transform="translate(79.45 136.99)"/>
        <path id="prefix__Line_184" d="M0 0L66.5 0" class="prefix__cls-14" data-name="Line 184" transform="translate(80.21 144.55)"/>
        <path id="prefix__Line_185" d="M0 0L66.92 0" class="prefix__cls-14" data-name="Line 185" transform="translate(80.21 148.54)"/>
        <path id="prefix__Line_186" d="M0 0L37.5 0" class="prefix__cls-14" data-name="Line 186" transform="translate(80.21 152.54)"/>
        <path id="prefix__Rectangle_844" d="M0 0H8.26V1.27H0z" class="prefix__cls-18" data-name="Rectangle 844" transform="rotate(-48.26 239.902 -68.232)"/>
        <path id="prefix__Rectangle_845" d="M0 0H4.45V1.27H0z" class="prefix__cls-18" data-name="Rectangle 845" transform="rotate(41.74 -135.813 245.948)"/>
        <path id="prefix__Line_187" d="M0 0L38 0" class="prefix__cls-14" data-name="Line 187" transform="translate(79.63 156.54)"/>
        <path id="prefix__Path_1985" d="M181.76 51a16.06 16.06 0 0 0-.23 3.25l1.8 2c0 .23-.11.34-.34.56s-1.79.68-2.13.9-.78 1-.45 1.35a1.61 1.61 0 0 0 1.35.67 7.49 7.49 0 0 0 1 2.14 3.64 3.64 0 0 0 1.91 1.45 1.79 1.79 0 0 0 1.12 0s.79.57-.11 2.92l2.92 2.25.33.11 2.36-.67 3.82-1.69s-1.58-7-1.35-8.19a8 8 0 0 0 2.13-1.24 4.25 4.25 0 0 0 .9-2.24 2.73 2.73 0 0 0-1.57-2.36 17.55 17.55 0 0 1-3.93-3z" data-name="Path 1985" style="fill:#fcfcfc"/>
        <path id="prefix__Path_1986" d="M181.57 51.54a6.4 6.4 0 0 0-.11 2.92c0 .11.22.11.11 0a8.43 8.43 0 0 1 .11-2.92c.11-.11-.11-.11-.11 0z" data-name="Path 1986"/>
        <path id="prefix__Path_1987" d="M180.75 53.33a2.06 2.06 0 0 1 1.79-.22c.12 0 .12.11.23.11s.11.11 0 .23a.45.45 0 0 1-.34.11h-1c-.33 0-.67 0-.67-.23z" data-name="Path 1987"/>
        <path id="prefix__Path_1988" d="M185.35 53.45a1.32 1.32 0 0 1 .56-.56 1.89 1.89 0 0 1 1.57.22c.12.11.23.22.23.34s-.23.22-.34.22a6.49 6.49 0 0 0-1.46-.11c-.11 0-.22 0-.22.11-.23 0-.34 0-.34-.22z" data-name="Path 1988"/>
        <path id="prefix__Path_1989" d="M183.11 56.48c-.57.9-1.69.67-2.47 1.34a1.28 1.28 0 0 0-.45 1.13c.45 1.34 2.8.78 3.7.33.11-.11 0-.22-.11-.22a3.2 3.2 0 0 1-2 .45 1.31 1.31 0 0 1-1.12-.45.92.92 0 0 1 .05-1.3h.06c.11-.11.22-.11.34-.22.78-.45 1.68-.34 2.24-1.12 0 .11-.11 0-.22.11z" data-name="Path 1989"/>
        <path id="prefix__Path_1990" d="M181.76 60c.56 1.68 1.35 3.25 3.25 3.59s3.37-.9 4.61-2c.11-.11 0-.23-.12-.11a5.74 5.74 0 0 1-4.26 2c-1.91-.12-2.81-1.8-3.37-3.48 0-.15-.22-.15-.11 0z" data-name="Path 1990"/>
        <path id="prefix__Path_1991" d="M195 52.32a2.54 2.54 0 0 1 1.57 3.24 3.8 3.8 0 0 1-3 2.47c-.11 0-.11.22 0 .22a4 4 0 0 0 3.37-3 2.46 2.46 0 0 0-1.9-2.91z" data-name="Path 1991"/>
        <path id="prefix__Path_1992" d="M193.77 58.05a32.47 32.47 0 0 0 1.35 8.19c0 .12.22.12.11 0a34.45 34.45 0 0 1-1.35-8.19c.12-.11-.11-.11-.11 0z" data-name="Path 1992"/>
        <path id="prefix__Path_1993" d="M193.77 55.8c.45-.33 1-.67 1.46-1 .11-.11 0-.22-.11-.22-.57.34-1 .67-1.58 1 0 .11.12.34.23.22z" data-name="Path 1993"/>
        <path id="prefix__Path_1994" d="M194.44 53.86a1.34 1.34 0 0 1 .68 1.78c0 .11 0 .11-.12.11s.12.23.12.11a1.63 1.63 0 0 0-.57-2.24h-.11c0 .16-.11.24 0 .24z" data-name="Path 1994"/>
        <path id="prefix__Path_1995" d="M187.48 60a2.06 2.06 0 0 1-1.34 2 2 2 0 0 1-2.25-.9V61c1.12-.34 2.36-.68 3.59-1" class="prefix__cls-9" data-name="Path 1995"/>
        <path id="prefix__Path_1996" d="M187.37 60a1.72 1.72 0 0 1-1.51 1.9h-.17a1.52 1.52 0 0 1-1.35-.57c-.45-.44-.22-.33.22-.56l1-.22 1.79-.56c.23.11.23-.11 0 0-1 .22-2.24.56-3.48.9a.11.11 0 0 0-.11.11c.11.78 1.23 1.23 1.91 1.12a2.08 2.08 0 0 0 1.81-2.12c.12-.15-.11-.15-.11 0z" data-name="Path 1996"/>
        <path id="prefix__Path_1997" d="M189.62 61.3s.78.23.67.57a1.78 1.78 0 0 1-1 1.45 9.849 9.849 0 0 1-1.8.23c-.45.11-.89.11-1 .56s-.67 2-.67 2 .56-1.91.11-2.58a12.58 12.58 0 0 0 3.69-2.23z" data-name="Path 1997"/>
        <path id="prefix__Path_1998" d="M184.56 54.91c0 1 1.24 1.34 2 1.34s2.13-.11 2.13-1.12c.22-1.68-3.82-1.91-4.16-.22 0 .11.12.11.12 0 .22-1.46 4-1.35 3.93.22s-3.82 1.35-3.93-.22c.14-.12.03-.12-.09 0z" data-name="Path 1998"/>
        <ellipse id="prefix__Ellipse_213" cx="2.02" cy="1.12" class="prefix__cls-9" data-name="Ellipse 213" rx="2.02" ry="1.12" transform="translate(179.699 55.059)"/>
        <path id="prefix__Path_1999" d="M179.74 55.47c.11.9 1.35 1.12 2 1.12s2-.22 2-1.12c.11-1.69-3.82-1.69-4 0h.11c.11-1.46 3.82-1.46 3.82 0s-3.71 1.46-3.82 0c.15-.11-.11-.11-.11 0z" data-name="Path 1999"/>
        <path id="prefix__Path_2000" d="M180 55.13c2.14-1.12 2.47 1.35 2.47 1.35-3.07.22-2.47-1.35-2.47-1.35z" class="prefix__cls-20" data-name="Path 2000"/>
        <path id="prefix__Path_2001" d="M184.68 54.68c2.13-1.12 2.47 1.46 2.47 1.46-3.15-.03-2.47-1.46-2.47-1.46z" class="prefix__cls-20" data-name="Path 2001"/>
        <path id="prefix__Path_2002" d="M191.52 50.3a5.69 5.69 0 0 0 2.14 5.7s-.45-4.49 1.12-3.59l1.57.89.23-3.14s.11-4.49-.57-4.6a17.531 17.531 0 0 1-2.35-.79s-5.73-2.8-10-.33-3.26 3.7-5.17 3.59a3.15 3.15 0 0 0-2.69 1.12s3.59 2.81 5.16 3a19.39 19.39 0 0 0 5.73-.56c1.02-.39 3.94-.59 4.83-1.29z" data-name="Path 2002"/>
        <path id="prefix__Path_2003" d="M186 66h-10l1 33 25 1 2-33-9-1c-.72 0-3.42 3.1-6 3z" data-name="Path 2003"/>
        <path id="prefix__Path_2004" d="M176 66s-11 15-14 18-16 11-16 11-2-3-3-3a10.07 10.07 0 0 1-3-1l1 2-3.91-.49S138 97 139 97c0 0 6 2 7 1l17-8s8-6 13-13z" class="prefix__cls-16" data-name="Path 2004"/>
        <path id="prefix__Rectangle_846" d="M0 0H8.26V1.27H0z" class="prefix__cls-18" data-name="Rectangle 846" transform="rotate(-48.26 179.67 -104.569)"/>
        <path id="prefix__Rectangle_847" d="M0 0H4.45V1.27H0z" class="prefix__cls-18" data-name="Rectangle 847" transform="rotate(41.74 -57.462 226.543)"/>
        <path id="prefix__Path_2005" d="M177.45 66H175l-7 9 3 9 6-7z" data-name="Path 2005"/>
        <path id="prefix__Path_2006" d="M177 99l-1 62s6 1 8 0 5-46 5-46l3 46h7c2 0 3-61 3-61z" class="prefix__cls-18" data-name="Path 2006"/>
        <path id="prefix__Path_2007" d="M184 161.59v6.49l-15.47-.37s-1.55-4.29 8.64-4.08l.18-1.62z" data-name="Path 2007"/>
        <path id="prefix__Path_2008" d="M193 161.16v6.49l15.47-.37s1.53-4.28-8.67-4.08l-.18-1.62z" data-name="Path 2008"/>
        <path id="prefix__Path_2009" d="M204 67l2 1 4 9-6.8 3.25z" data-name="Path 2009"/>
        <path id="prefix__Path_2010" d="M208.48 77.73S208 95 207 98c0 0-1 15-2 19 .8.64.36 8.09-3 8v-10l.44-16 .56-19z" class="prefix__cls-16" data-name="Path 2010"/>
        <path id="prefix__Line_188" d="M0 0L1 32" class="prefix__cls-21" data-name="Line 188" transform="translate(179.5 66.5)"/>
        <path id="prefix__Line_189" d="M0 0L1.07 32.37" class="prefix__cls-21" data-name="Line 189" transform="translate(182.43 66.13)"/>
        <path id="prefix__Line_190" d="M1.5 0L0 33" class="prefix__cls-21" data-name="Line 190" transform="translate(195.5 66.5)"/>
        <path id="prefix__Line_191" d="M2 0L0 33" class="prefix__cls-21" data-name="Line 191" transform="translate(197.5 66.5)"/>
        <path id="prefix__Line_192" d="M0 0L0.88 32.37" class="prefix__cls-21" data-name="Line 192" transform="translate(185.62 66.13)"/>
        <path id="prefix__Line_193" d="M2 0L0 34" class="prefix__cls-21" data-name="Line 193" transform="translate(192.5 65.5)"/>
        <path id="prefix__Line_194" d="M0 0L0.45 31.44" class="prefix__cls-21" data-name="Line 194" transform="translate(188.05 68.06)"/>
        <path id="prefix__Line_195" d="M0.38 0L0 30.9" class="prefix__cls-21" data-name="Line 195" transform="translate(190.5 68.6)"/>
        <path id="prefix__Line_196" d="M3.05 0L0 32.89" class="prefix__cls-21" data-name="Line 196" transform="translate(200.15 66.91)"/>
        <path id="prefix__Line_197" d="M0 0L2.36 32.96" class="prefix__cls-21" data-name="Line 197" transform="translate(176 66)"/>
        <path id="prefix__Line_198" d="M0 7.66L7.11 0" class="prefix__cls-21" data-name="Line 198" transform="translate(168.39 68.5)"/>
        <path id="prefix__Line_199" d="M0 6.18L6.83 0" class="prefix__cls-21" data-name="Line 199" transform="translate(169.17 72.33)"/>
        <path id="prefix__Line_200" d="M0 5.9L6.3 0" class="prefix__cls-21" data-name="Line 200" transform="translate(169.97 75)"/>
        <path id="prefix__Line_201" d="M0 0L1.05 4.86" class="prefix__cls-21" data-name="Line 201" transform="translate(203.5 74.5)"/>
        <path id="prefix__Line_202" d="M0 0L3.1 7.01" class="prefix__cls-21" data-name="Line 202" transform="translate(203.5 71.5)"/>
        <path id="prefix__Line_203" d="M0 0L5 9" class="prefix__cls-21" data-name="Line 203" transform="translate(203.5 68.5)"/>
    </g>
</svg>
