<svg xmlns="http://www.w3.org/2000/svg" width="252" height="240" viewBox="0 0 252 240">
    <defs>
        <clipPath id="prefix__clip-path">
            <path id="prefix__Rectangle_879" d="M0 0H252V240H0z" data-name="Rectangle 879" transform="translate(1021 306.917)" style="stroke:#707070;fill:#fff"/>
        </clipPath>
        <style>
            .prefix__cls-6{fill:#fff}.prefix__cls-3{fill:#e0e0e0}.prefix__cls-5{fill:#df3744}.prefix__cls-15,.prefix__cls-8{fill:none}.prefix__cls-8{stroke:#fff}.prefix__cls-15,.prefix__cls-8{stroke-miterlimit:10}.prefix__cls-8{stroke-width:.552px}.prefix__cls-15{stroke:#000;stroke-width:.61px}
        </style>
    </defs>
    <g id="prefix__Mask_Group_12" data-name="Mask Group 12" transform="translate(-1021 -306.917)">
        <g id="prefix__XMLID_4138_" transform="translate(1027.014 307)">
            <circle id="prefix__XMLID_2584_" cx="20.011" cy="20.011" r="20.011" class="prefix__cls-3" transform="translate(58.339 11.565)"/>
            <text id="prefix__XMLID_141_" transform="translate(70.51 42.032)" style="font-size:31px;font-family:NotoSans-BoldItalic,Noto Sans;font-weight:700;font-style:italic">
                <tspan x="0" y="0">?</tspan>
            </text>
            <path id="prefix__XMLID_15_" d="M100.865 220.344s-.72-19.051.624-24.953c1.392-5.95 18.283 2.4 18.283 2.4l4.463 14.2 1.824.288 3.407-14.636 23.9 6.67s-7.15 15.836-11.229 19.243-21.45 1.824-21.45 1.824l-16.316-3.263z" transform="translate(-13.158 -25.466)"/>
            <path id="prefix__XMLID_1104_" d="M237.293 100.651c-7.918-22.458-22.7-20.107-40.214-25.481-17.515-5.423-23.946-16.028-32.248-32.3s-10.317-24.666-21.978-33.4C137.671 5.588 126.634.262 111.518.262c0 0-.576-.048-1.68-.1a42.615 42.615 0 1 1-73.9 28.938 45.4 45.4 0 0 1 .288-5.135C18.71 40.475-.965 68.6-.005 97.1c1.1 33.351 18.715 62.192 39.83 71.6s20.683-1.44 56.241 3.647 30.28 5.423 70.014 21.066 73.853-34.887 73.853-64.927c-.001-8.786-.001-17.229-2.64-27.835z" class="prefix__cls-5" transform="translate(.039 -.166)"/>
            <circle id="prefix__XMLID_1401_" cx="19.051" cy="19.051" r="19.051" class="prefix__cls-6" transform="translate(163.719 145.354)"/>
            <circle id="prefix__XMLID_109_" cx="27.065" cy="27.065" r="27.065" class="prefix__cls-6" transform="translate(1.233 99.238)"/>
            <path id="prefix__XMLID_1840_" d="M155.766 183.679h-71.5a2.99 2.99 0 0 1-2.975-2.975v-41.989a2.99 2.99 0 0 1 2.975-2.975h71.5a2.99 2.99 0 0 1 2.975 2.975V180.7a2.99 2.99 0 0 1-2.975 2.979z" class="prefix__cls-3" transform="translate(-10.618 -17.931)"/>
            <path id="prefix__XMLID_1863_" d="M156.5 93.439H83.173a3.988 3.988 0 0 0-3.983 4.175l1.584 27.545a3.992 3.992 0 0 0 3.983 3.743h70.493a4 4 0 0 0 3.983-3.791l1.248-27.545a4.006 4.006 0 0 0-3.981-4.127z" transform="translate(-10.342 -12.388)"/>
            <path id="prefix__XMLID_1896_" d="M156.75 126.885H83.713l-1.872-30.52h76.444z" class="prefix__cls-6" transform="translate(-10.69 -12.771)"/>
            <ellipse id="prefix__XMLID_1906_" cx="1.2" cy=".576" rx="1.2" ry=".576" transform="translate(107.526 81.771)" style="fill:#efefef"/>
            <g id="prefix__XMLID_12_" transform="translate(90.778 93.864)">
                <path id="prefix__XMLID_1934_" d="M139.987 122.675h-34.695l-.864-14.492h36.279z" class="prefix__cls-5" transform="translate(-104.428 -108.183)"/>
                <path id="prefix__XMLID_2306_" d="M104.428 108.183l18.139 7.246 18.091-6.958" class="prefix__cls-8" transform="translate(-104.428 -108.183)"/>
                <path id="prefix__XMLID_2308_" d="M11.565 0L0 9.502" class="prefix__cls-8" transform="translate(.864 4.991)"/>
                <path id="prefix__XMLID_2309_" d="M0 0L10.125 10.029" class="prefix__cls-8" transform="translate(25.433 4.463)"/>
            </g>
            <g id="prefix__XMLID_32_" transform="translate(73.935 120.641)">
                <g id="prefix__XMLID_2315_">
                    <path id="prefix__XMLID_2314_" d="M0 0H3.983V1.68H0z"/>
                    <path id="prefix__XMLID_2316_" d="M0 0H3.983V1.68H0z" transform="translate(5.327)"/>
                    <path id="prefix__XMLID_2317_" d="M0 0H3.983V1.68H0z" transform="translate(10.701)"/>
                    <path id="prefix__XMLID_2318_" d="M0 0H3.983V1.68H0z" transform="translate(16.076)"/>
                    <path id="prefix__XMLID_2319_" d="M0 0H3.983V1.68H0z" transform="translate(21.45)"/>
                    <path id="prefix__XMLID_2320_" d="M0 0H3.983V1.68H0z" transform="translate(26.825)"/>
                    <path id="prefix__XMLID_2321_" d="M0 0H3.983V1.68H0z" transform="translate(32.152)"/>
                    <path id="prefix__XMLID_2322_" d="M0 0H3.983V1.68H0z" transform="translate(37.526)"/>
                    <path id="prefix__XMLID_2323_" d="M0 0H3.983V1.68H0z" transform="translate(42.901)"/>
                    <path id="prefix__XMLID_2324_" d="M0 0H3.983V1.68H0z" transform="translate(48.275)"/>
                    <path id="prefix__XMLID_2325_" d="M0 0H3.983V1.68H0z" transform="translate(53.602)"/>
                    <path id="prefix__XMLID_2326_" d="M0 0H3.983V1.68H0z" transform="translate(58.977)"/>
                    <path id="prefix__XMLID_2327_" d="M0 0H5.615V1.68H0z" transform="translate(64.351)"/>
                </g>
                <g id="prefix__XMLID_2329_" transform="translate(0 2.591)">
                    <path id="prefix__XMLID_2342_" d="M0 0H3.983V3.599H0z"/>
                    <path id="prefix__XMLID_2341_" d="M0 0H3.983V3.599H0z" transform="translate(5.327)"/>
                    <path id="prefix__XMLID_2340_" d="M0 0H3.983V3.599H0z" transform="translate(10.701)"/>
                    <path id="prefix__XMLID_2339_" d="M0 0H3.983V3.599H0z" transform="translate(16.076)"/>
                    <path id="prefix__XMLID_2338_" d="M0 0H3.983V3.599H0z" transform="translate(21.45)"/>
                    <path id="prefix__XMLID_2337_" d="M0 0H3.983V3.599H0z" transform="translate(26.825)"/>
                    <path id="prefix__XMLID_2336_" d="M0 0H3.983V3.599H0z" transform="translate(32.152)"/>
                    <path id="prefix__XMLID_2335_" d="M0 0H3.983V3.599H0z" transform="translate(37.526)"/>
                    <path id="prefix__XMLID_2334_" d="M0 0H3.983V3.599H0z" transform="translate(42.901)"/>
                    <path id="prefix__XMLID_2333_" d="M0 0H3.983V3.599H0z" transform="translate(48.275)"/>
                    <path id="prefix__XMLID_2332_" d="M0 0H3.983V3.599H0z" transform="translate(53.602)"/>
                    <path id="prefix__XMLID_2331_" d="M0 0H3.983V3.599H0z" transform="translate(58.977)"/>
                    <path id="prefix__XMLID_2330_" d="M0 0H5.615V3.599H0z" transform="translate(64.351)"/>
                </g>
                <g id="prefix__XMLID_2343_" transform="translate(0 7.15)">
                    <path id="prefix__XMLID_2356_" d="M0 0H3.983V3.599H0z" transform="translate(65.935)"/>
                    <path id="prefix__XMLID_2355_" d="M0 0H3.983V3.599H0z" transform="translate(60.608)"/>
                    <path id="prefix__XMLID_2354_" d="M0 0H3.983V3.599H0z" transform="translate(55.234)"/>
                    <path id="prefix__XMLID_2353_" d="M0 0H3.983V3.599H0z" transform="translate(49.859)"/>
                    <path id="prefix__XMLID_2352_" d="M0 0H3.983V3.599H0z" transform="translate(44.484)"/>
                    <path id="prefix__XMLID_2351_" d="M0 0H3.983V3.599H0z" transform="translate(39.158)"/>
                    <path id="prefix__XMLID_2350_" d="M0 0H3.983V3.599H0z" transform="translate(33.783)"/>
                    <path id="prefix__XMLID_2349_" d="M0 0H3.983V3.599H0z" transform="translate(28.409)"/>
                    <path id="prefix__XMLID_2348_" d="M0 0H3.983V3.599H0z" transform="translate(23.034)"/>
                    <path id="prefix__XMLID_2347_" d="M0 0H3.983V3.599H0z" transform="translate(17.659)"/>
                    <path id="prefix__XMLID_2346_" d="M0 0H3.983V3.599H0z" transform="translate(12.333)"/>
                    <path id="prefix__XMLID_2345_" d="M0 0H3.983V3.599H0z" transform="translate(6.958)"/>
                    <path id="prefix__XMLID_2344_" d="M0 0H5.615V3.599H0z"/>
                </g>
                <g id="prefix__XMLID_2357_" transform="translate(0 11.469)">
                    <path id="prefix__XMLID_2370_" d="M0 0H3.983V3.599H0z" transform="translate(65.935)"/>
                    <path id="prefix__XMLID_2369_" d="M0 0H3.983V3.599H0z" transform="translate(60.608)"/>
                    <path id="prefix__XMLID_2368_" d="M0 0H3.983V3.599H0z" transform="translate(55.234)"/>
                    <path id="prefix__XMLID_2367_" d="M0 0H3.983V3.599H0z" transform="translate(49.859)"/>
                    <path id="prefix__XMLID_2366_" d="M0 0H3.983V3.599H0z" transform="translate(44.484)"/>
                    <path id="prefix__XMLID_2365_" d="M0 0H3.983V3.599H0z" transform="translate(39.158)"/>
                    <path id="prefix__XMLID_2364_" d="M0 0H3.983V3.599H0z" transform="translate(33.783)"/>
                    <path id="prefix__XMLID_2363_" d="M0 0H3.983V3.599H0z" transform="translate(28.409)"/>
                    <path id="prefix__XMLID_2362_" d="M0 0H3.983V3.599H0z" transform="translate(23.034)"/>
                    <path id="prefix__XMLID_2361_" d="M0 0H3.983V3.599H0z" transform="translate(17.659)"/>
                    <path id="prefix__XMLID_2360_" d="M0 0H3.983V3.599H0z" transform="translate(12.333)"/>
                    <path id="prefix__XMLID_2359_" d="M0 0H3.983V3.599H0z" transform="translate(6.958)"/>
                    <path id="prefix__XMLID_2358_" d="M0 0H5.615V3.599H0z"/>
                </g>
                <g id="prefix__XMLID_2371_" transform="translate(0 16.22)">
                    <path id="prefix__XMLID_2384_" d="M0 0H3.983V3.599H0z" transform="translate(65.935)"/>
                    <path id="prefix__XMLID_2383_" d="M0 0H3.983V3.599H0z" transform="translate(60.608)"/>
                    <path id="prefix__XMLID_2382_" d="M0 0H3.983V3.599H0z" transform="translate(55.234)"/>
                    <path id="prefix__XMLID_2381_" d="M0 0H3.983V3.599H0z" transform="translate(49.859)"/>
                    <path id="prefix__XMLID_2380_" d="M0 0H3.983V3.599H0z" transform="translate(44.484)"/>
                    <path id="prefix__XMLID_2379_" d="M0 0H3.983V3.599H0z" transform="translate(39.158)"/>
                    <path id="prefix__XMLID_2378_" d="M0 0H3.983V3.599H0z" transform="translate(33.783)"/>
                    <path id="prefix__XMLID_2377_" d="M0 0H3.983V3.599H0z" transform="translate(28.409)"/>
                    <path id="prefix__XMLID_2376_" d="M0 0H3.983V3.599H0z" transform="translate(23.034)"/>
                    <path id="prefix__XMLID_2375_" d="M0 0H3.983V3.599H0z" transform="translate(17.659)"/>
                    <path id="prefix__XMLID_2374_" d="M0 0H3.983V3.599H0z" transform="translate(12.333)"/>
                    <path id="prefix__XMLID_2373_" d="M0 0H3.983V3.599H0z" transform="translate(6.958)"/>
                    <path id="prefix__XMLID_2372_" d="M0 0H5.615V3.599H0z"/>
                </g>
                <g id="prefix__XMLID_2385_" transform="translate(0 20.443)">
                    <path id="prefix__XMLID_2398_" d="M0 0H3.983V3.599H0z" transform="translate(65.935)"/>
                    <path id="prefix__XMLID_2397_" d="M0 0H3.983V3.599H0z" transform="translate(60.608)"/>
                    <path id="prefix__XMLID_2396_" d="M0 0H3.983V3.599H0z" transform="translate(55.234)"/>
                    <path id="prefix__XMLID_2395_" d="M0 0H3.983V3.599H0z" transform="translate(49.859)"/>
                    <path id="prefix__XMLID_2394_" d="M0 0H3.983V3.599H0z" transform="translate(44.484)"/>
                    <path id="prefix__XMLID_2386_" d="M0 0H5.615V3.599H0z"/>
                    <path id="prefix__XMLID_2387_" d="M0 0H5.615V3.599H0z" transform="translate(13.293)"/>
                    <path id="prefix__XMLID_2388_" d="M0 0H22.89V3.599H0z" transform="translate(20.251)"/>
                </g>
            </g>
            <g id="prefix__XMLID_2452_" transform="translate(58.238 137.129)">
                <path id="prefix__XMLID_2456_" d="M67.428 174.967l1.44.48 4.319-15.4-1.2-.336z" transform="translate(-67.04 -158.201)" style="stroke-width:.409px;stroke:#000;stroke-miterlimit:10;fill:#fff"/>
                <g id="prefix__XMLID_2455_" transform="translate(0 16.864)">
                    <g id="prefix__XMLID_500_">
                        <path id="prefix__XMLID_472_" d="M66.986 177.571a6.81 6.81 0 0 0 .48 1.392c.048.1.192.1.288.048a10.545 10.545 0 0 0 1.1-.96c.192-.144-.1-.384-.24-.24-.336.336-.72.624-1.1.96a.608.608 0 0 1 .288.048 7.085 7.085 0 0 1-.48-1.3c-.048-.24-.384-.144-.336.048z" transform="translate(-66.981 -177.38)"/>
                    </g>
                </g>
                <g id="prefix__XMLID_2454_" transform="translate(2.735 1.054)">
                    <g id="prefix__XMLID_494_">
                        <path id="prefix__XMLID_465_" d="M72.149 159.4c-.384-.48-.768-.048-.96.336a13.82 13.82 0 0 0-1.056 3.647c-.048.24.288.336.336.1a13.8 13.8 0 0 1 .432-1.919c.048-.192.816-2.159.96-2.015.1.24.384.048.288-.144z" transform="translate(-70.129 -159.187)"/>
                    </g>
                </g>
                <g id="prefix__XMLID_2453_" transform="translate(4.947)">
                    <g id="prefix__XMLID_489_">
                        <path id="prefix__XMLID_460_" d="M73.01 159.144a3.45 3.45 0 0 1 .192-.912c-.1.048-.192.048-.24.1a3.464 3.464 0 0 0 .96.432c-.048-.1-.1-.144-.144-.24-.048.24-.144.48-.192.768-.048.24.288.336.336.1s.144-.48.192-.768c.048-.1-.048-.192-.144-.24a4.711 4.711 0 0 1-.864-.384c-.1-.048-.24 0-.24.1a8.475 8.475 0 0 0-.192.96c0 .336.336.336.336.1z" transform="translate(-72.674 -157.973)"/>
                    </g>
                </g>
            </g>
            <g id="prefix__XMLID_2307_" transform="translate(168.774 88.596)">
                <path id="prefix__XMLID_1709_" d="M0 0H40.116V26.872H0z" transform="rotate(-36.829 36.112 12.023)" style="stroke-width:.358px;stroke:#000;stroke-miterlimit:10;fill:#fff"/>
                <g id="prefix__XMLID_863_" transform="translate(17.662 10.629)">
                    <g id="prefix__XMLID_883_">
                        <path id="prefix__XMLID_1702_" d="M0 0H40.116V26.872H0z" transform="rotate(-78.164 24.172 19.632)" style="stroke-width:.358px;stroke:#000;stroke-miterlimit:10;fill:#fff"/>
                        <path id="prefix__XMLID_1639_" d="M0 0H6.718V6.862H0z" class="prefix__cls-5" transform="rotate(12.011 -9.484 50.359)"/>
                        <path id="prefix__XMLID_1618_" d="M0 0H11.229V3.983H0z" class="prefix__cls-5" transform="rotate(12.011 -53.7 45.726)"/>
                        <path id="prefix__XMLID_1606_" d="M0 0H22.17V3.983H0z" class="prefix__cls-5" transform="rotate(12.011 -108.797 39.898)"/>
                        <path id="prefix__XMLID_1603_" d="M0 0H6.718V10.221H0z" class="prefix__cls-5" transform="rotate(12.011 -17.17 123.642)"/>
                        <g id="prefix__XMLID_1544_" transform="translate(18.318 5.768)">
                            <path id="prefix__XMLID_487_" d="M0 0L5.135 1.104" transform="translate(.187 .196)"/>
                            <g id="prefix__XMLID_482_">
                                <path id="prefix__XMLID_458_" d="M235.729 121.378c1.728.384 3.407.72 5.135 1.1a.2.2 0 0 0 .1-.384c-1.728-.384-3.407-.72-5.135-1.1-.24-.048-.336.336-.1.384z" transform="translate(-235.59 -120.99)"/>
                            </g>
                        </g>
                        <g id="prefix__XMLID_1535_" transform="translate(18.03 7.211)">
                            <path id="prefix__XMLID_480_" d="M0 0L5.087 1.056" transform="translate(.187 .24)"/>
                            <g id="prefix__XMLID_475_">
                                <path id="prefix__XMLID_453_" d="M235.4 123.036c1.728.384 3.407.72 5.135 1.1a.2.2 0 0 0 .1-.384c-1.728-.384-3.407-.72-5.135-1.1-.24 0-.336.336-.1.384z" transform="translate(-235.259 -122.652)"/>
                            </g>
                        </g>
                        <g id="prefix__XMLID_1525_" transform="translate(17.694 8.695)">
                            <path id="prefix__XMLID_473_" d="M0 0L5.135 1.104" transform="translate(.187 .196)"/>
                            <g id="prefix__XMLID_468_">
                                <path id="prefix__XMLID_451_" d="M235.011 124.747c1.728.384 3.407.72 5.135 1.1a.2.2 0 0 0 .1-.384c-1.728-.384-3.407-.72-5.135-1.1-.24-.048-.336.336-.1.384z" transform="translate(-234.872 -124.359)"/>
                            </g>
                        </g>
                        <g id="prefix__XMLID_1439_" transform="translate(17.406 10.139)">
                            <path id="prefix__XMLID_466_" d="M0 0L5.087 1.056" transform="translate(.187 .24)"/>
                            <g id="prefix__XMLID_461_">
                                <path id="prefix__XMLID_446_" d="M234.68 126.4c1.728.384 3.407.72 5.135 1.1a.2.2 0 0 0 .1-.384c-1.728-.384-3.407-.72-5.135-1.1-.24 0-.336.336-.1.384z" transform="translate(-234.541 -126.021)"/>
                            </g>
                        </g>
                        <g id="prefix__XMLID_983_" transform="translate(19.805 16.805)">
                            <path id="prefix__XMLID_459_" d="M0 0L8.782 1.872" transform="translate(.187 .196)"/>
                            <g id="prefix__XMLID_454_">
                                <path id="prefix__XMLID_444_" d="M237.441 134.08c2.927.624 5.854 1.248 8.83 1.872a.2.2 0 0 0 .1-.384c-2.927-.624-5.854-1.248-8.83-1.872-.24-.048-.336.336-.1.384z" transform="translate(-237.302 -133.692)"/>
                            </g>
                        </g>
                        <g id="prefix__XMLID_955_" transform="translate(19.504 18.249)">
                            <path id="prefix__XMLID_452_" d="M0 0L8.83 1.872" transform="translate(.153 .24)"/>
                            <g id="prefix__XMLID_447_">
                                <path id="prefix__XMLID_439_" d="M237.06 135.737c2.927.624 5.854 1.248 8.83 1.872a.2.2 0 0 0 .1-.384c-2.927-.624-5.854-1.248-8.83-1.872-.192 0-.288.336-.1.384z" transform="translate(-236.955 -135.353)"/>
                            </g>
                        </g>
                        <g id="prefix__XMLID_947_" transform="translate(5.95 22.275)">
                            <path id="prefix__XMLID_445_" d="M0 0L20.971 4.463" transform="translate(.174 .196)"/>
                            <g id="prefix__XMLID_440_">
                                <path id="prefix__XMLID_437_" d="M221.483 140.375c6.094 1.3 12.237 2.591 18.331 3.887l2.591.576a.2.2 0 0 0 .1-.384c-6.094-1.3-12.237-2.591-18.331-3.887l-2.591-.576c-.192-.048-.336.336-.1.384z" transform="translate(-221.358 -139.987)"/>
                            </g>
                        </g>
                        <g id="prefix__XMLID_930_" transform="translate(6.273 20.792)">
                            <path id="prefix__XMLID_438_" d="M0 0L20.923 4.415" transform="translate(.187 .24)"/>
                            <g id="prefix__XMLID_433_">
                                <path id="prefix__XMLID_430_" d="M221.868 138.664c6.094 1.3 12.237 2.591 18.331 3.887l2.591.576a.2.2 0 0 0 .1-.384c-6.094-1.3-12.237-2.591-18.331-3.887l-2.591-.576c-.24 0-.336.336-.1.384z" transform="translate(-221.729 -138.28)"/>
                            </g>
                        </g>
                        <g id="prefix__XMLID_923_" transform="translate(6.574 19.348)">
                            <path id="prefix__XMLID_424_" d="M0 0L20.971 4.463" transform="translate(.174 .196)"/>
                            <g id="prefix__XMLID_418_">
                                <path id="prefix__XMLID_423_" d="M222.2 137.007c6.094 1.3 12.237 2.591 18.331 3.887l2.591.576a.2.2 0 0 0 .1-.384c-6.094-1.3-12.237-2.591-18.331-3.887l-2.591-.576c-.192-.048-.336.336-.1.384z" transform="translate(-222.076 -136.619)"/>
                            </g>
                        </g>
                        <g id="prefix__XMLID_916_" transform="translate(6.897 17.865)">
                            <path id="prefix__XMLID_417_" d="M0 0L20.923 4.463" transform="translate(.187 .192)"/>
                            <g id="prefix__XMLID_410_">
                                <path id="prefix__XMLID_416_" d="M222.586 135.3c6.094 1.3 12.237 2.591 18.331 3.887l2.591.576a.2.2 0 0 0 .1-.384c-6.094-1.3-12.237-2.591-18.331-3.887l-2.591-.576c-.24 0-.336.336-.1.384z" transform="translate(-222.447 -134.912)"/>
                            </g>
                        </g>
                        <circle id="prefix__XMLID_902_" cx="3.359" cy="3.359" r="3.359" class="prefix__cls-5" transform="translate(11.931 33.269)"/>
                    </g>
                    <g id="prefix__XMLID_874_" transform="translate(18.39 36.34)">
                        <g id="prefix__XMLID_404_">
                            <path id="prefix__XMLID_409_" d="M236.028 159c.24-.336.432-.72.672-1.056-.048.1.912-1.3 1.008-1.248a9.462 9.462 0 0 1-.72 2.4.188.188 0 0 0 .288.192c.336-.24.768-.624 1.056-.48 0 0 .336.432.192.336.192.192.384.1.624.144a.952.952 0 0 1 .864.144.366.366 0 0 0 .1.24c.1.048.24.144.336.192a7.726 7.726 0 0 0 2.351 0 .192.192 0 0 0 0-.384c-.576 0-1.2.1-1.776.048-.48-.1-.576-.384-.864-.576-.48-.288-1.344.144-1.44-.528 0-.048-.1-.1-.144-.144-.528-.144-1.056.384-1.488.672.1.048.192.144.288.192.288-.672 1.152-2.159.72-2.879-.048-.048-.1-.1-.144-.1-.912.1-1.824 1.92-2.255 2.591-.1.24.192.432.336.24z" transform="translate(-235.673 -156.173)"/>
                        </g>
                    </g>
                </g>
                <path id="prefix__XMLID_854_" d="M235.824 116.63l-13.389-2.783-6.046 28.888s-4.895-.048-4.175-3.455c.768-3.407 2.975-3.983 3.935-7.774.96-3.839 2.831-13.58 3.119-16.6s-.864-4.319 1.68-4.511c2.591-.147 14.876 6.235 14.876 6.235z" class="prefix__cls-5" transform="translate(-196.538 -103.205)"/>
            </g>
            <g id="prefix__XMLID_2774_" transform="translate(24.007 109.583)">
                <path id="prefix__XMLID_2795_" d="M46.708 147.984l-7.822 3.647a2.3 2.3 0 0 1-3.071-1.152L27.8 133.2a2.3 2.3 0 0 1 1.152-3.071l7.822-3.647a2.3 2.3 0 0 1 3.071 1.152l8.014 17.276a2.312 2.312 0 0 1-1.151 3.074z" transform="translate(-27.588 -126.273)"/>
            </g>
            <g id="prefix__XMLID_401_" transform="translate(21.031 108.047)">
                <path id="prefix__XMLID_2446_" d="M43.284 146.217l-7.822 3.647a2.3 2.3 0 0 1-3.071-1.152l-8.014-17.275a2.3 2.3 0 0 1 1.152-3.071l7.822-3.647a2.3 2.3 0 0 1 3.071 1.152l8.014 17.275a2.322 2.322 0 0 1-1.152 3.071z" transform="translate(-24.164 -124.505)" style="stroke-width:.533px;stroke:#000;stroke-miterlimit:10;fill:#fff"/>
                <path id="prefix__XMLID_2445_" d="M42.225 145.1l-6.766 3.119a1.583 1.583 0 0 1-2.111-.768l-6.862-14.732a1.583 1.583 0 0 1 .768-2.111l6.766-3.119a1.583 1.583 0 0 1 2.111.768l6.814 14.732a1.527 1.527 0 0 1-.72 2.111z" transform="translate(-24.448 -124.877)"/>
                <circle id="prefix__XMLID_800_" cx="1.008" cy="1.008" r="1.008" class="prefix__cls-6" transform="translate(12.162 18.592)"/>
            </g>
            <g id="prefix__XMLID_511_" transform="translate(169.928 152.36)">
                <circle id="prefix__XMLID_2781_" cx="9.933" cy="9.933" r="9.933" transform="translate(4.444 2.255)"/>
                <g id="prefix__XMLID_14_">
                    <path id="prefix__XMLID_2312_" d="M200.677 190.854l-3.6 1.344a.571.571 0 0 1-.72-.336l-.816-2.207a.571.571 0 0 1 .336-.72l3.6-1.344a.571.571 0 0 1 .72.336l.816 2.207a.516.516 0 0 1-.336.72z" transform="translate(-195.513 -177.081)" style="stroke-width:.44px;stroke:#000;stroke-miterlimit:10;fill:#fff"/>
                    <g id="prefix__XMLID_2503_" transform="translate(3.581)">
                        <circle id="prefix__XMLID_2311_" cx="9.214" cy="9.214" r="9.214" style="fill:#fffdfd;stroke:#000;stroke-width:.552px;stroke-miterlimit:10"/>
                        <circle id="prefix__XMLID_2313_" cx="7.246" cy="7.246" r="7.246" transform="translate(1.967 1.967)"/>
                    </g>
                </g>
            </g>
            <g id="prefix__XMLID_314_" transform="translate(68.563 135.653)">
                <g id="prefix__XMLID_651_" transform="translate(6.911 78.742)">
                    <path id="prefix__XMLID_431_" d="M150.865 247.791a39.355 39.355 0 0 1 4.751 13.149 12.073 12.073 0 0 1-.288 6.142 5.357 5.357 0 0 1-4.607 3.647l-.384.1c-17.371 1.823-34.935 1.248-52.4.72-2.5-.1-5.135-.192-7.246-1.584-3.455-2.255-4.127-7.15-3.215-11.133.912-4.031 2.975-7.726 3.743-11.757" class="prefix__cls-5" transform="translate(-86.854 -246.914)"/>
                    <g id="prefix__XMLID_426_">
                        <path id="prefix__XMLID_403_" d="M150.636 247.911a40.858 40.858 0 0 1 4.079 9.933c.864 3.311 1.776 7.678-.432 10.653a5.289 5.289 0 0 1-3.743 2.063c-1.919.288-3.887.432-5.854.576-3.935.288-7.87.48-11.8.624-7.726.24-15.452.144-23.178-.048-3.791-.1-7.582-.192-11.325-.336-3.455-.1-7.342-.288-9.5-3.455-4.367-6.478 1.248-14.252 2.591-20.731.048-.288-.384-.432-.48-.144-1.344 6.43-6.094 12.909-3.311 19.627a8.014 8.014 0 0 0 6.382 4.8c3.839.672 7.966.432 11.853.576 8.638.24 17.323.384 26.009.192 4.319-.1 8.638-.336 12.957-.672 1.872-.144 3.743-.24 5.567-.528a6.232 6.232 0 0 0 3.455-1.488c2.735-2.591 2.3-6.718 1.632-10.077a40.986 40.986 0 0 0-4.559-11.853c-.1-.24-.48 0-.336.288z" transform="translate(-86.817 -246.89)"/>
                    </g>
                </g>
                <g id="prefix__XMLID_827_" transform="translate(20.246 63.927)">
                    <g id="prefix__XMLID_395_">
                        <path id="prefix__XMLID_391_" d="M104.227 237.375c-1.824-.384-1.919-2.543-1.2-3.887.624-1.1 2.591-3.791 4.079-2.975.288.144.528-.288.24-.432a1.99 1.99 0 0 0-2.4.432 9.5 9.5 0 0 0-2.447 3.071c-.72 1.584-.336 3.887 1.632 4.271a.245.245 0 0 0 .1-.48z" transform="translate(-102.163 -229.841)"/>
                    </g>
                </g>
                <g id="prefix__XMLID_828_" transform="translate(60.7 64.295)">
                    <g id="prefix__XMLID_386_">
                        <path id="prefix__XMLID_384_" d="M149.149 231.24c1.008-1.68 2.783 2.4 2.927 2.831.144.48.288.912.384 1.392.048.384.1.72.144 1.1.1.768-.336 1.152-1.3 1.1-.192-.24-.528.1-.336.336a1.161 1.161 0 0 0 1.776-.1c.72-.912.24-2.639-.048-3.6-.288-1.008-2.447-5.807-3.935-3.359-.192.288.24.528.384.288z" transform="translate(-148.717 -230.265)"/>
                    </g>
                </g>
                <g id="prefix__XMLID_832_" transform="translate(26.533 49.423)">
                    <path id="prefix__XMLID_385_" d="M142.5 226.286a13.657 13.657 0 0 0-4.8-8.83c-2.5-1.92-5.854-3.311-8.974-2.783a2.988 2.988 0 0 0-2.447-1.344 3.142 3.142 0 0 0-2.5 1.344c-5.471 1.056-10.989 6-14.108 10.653" class="prefix__cls-6" transform="translate(-109.434 -213.173)"/>
                    <g id="prefix__XMLID_379_">
                        <path id="prefix__XMLID_378_" d="M142.7 226.262a13.5 13.5 0 0 0-11.277-11.853 9 9 0 0 0-1.967-.048c-.72 0-.768-.24-1.344-.624a3.222 3.222 0 0 0-3.215-.288c-.576.288-.96.864-1.536 1.1-.72.288-1.536.432-2.255.72a20.334 20.334 0 0 0-4.127 2.255 29.573 29.573 0 0 0-7.534 7.726c-.192.24.24.48.432.24a28.957 28.957 0 0 1 8.014-8.014 17.543 17.543 0 0 1 4.895-2.3 8.363 8.363 0 0 0 1.056-.24c.24-.144.336-.432.576-.624a2.75 2.75 0 0 1 4.079.528c.1.1.144.144.288.1 6.622-.96 12.813 4.991 13.437 11.373 0 .288.48.288.48-.048z" transform="translate(-109.398 -213.15)"/>
                    </g>
                </g>
                <g id="prefix__XMLID_886_" transform="translate(71.463 25.678)">
                    <g id="prefix__XMLID_374_">
                        <path id="prefix__XMLID_371_" d="M161.521 188.371a10.009 10.009 0 0 1 6.526-2.063.241.241 0 0 0 0-.48 10.422 10.422 0 0 0-6.862 2.207c-.24.192.1.528.336.336z" transform="translate(-161.103 -185.825)"/>
                    </g>
                </g>
                <g id="prefix__XMLID_1590_" transform="translate(11.087)">
                    <path id="prefix__XMLID_365_" d="M92.573 175.5c-.96-1.536-.624-4.031-.1-5.758s1.344-3.455 1.344-5.279c0-1.2-.336-2.351-.384-3.551a3.84 3.84 0 0 1 1.536-3.167c.48.864-.1 1.824-.048 2.735a9.523 9.523 0 0 0 1.1 3.6 10.265 10.265 0 0 1 3.743-7.534.608.608 0 0 1 .768.144c.144.864-.528 1.68-1.008 2.4-.768 1.248-.864 4.271-.528 5.711a9.259 9.259 0 0 1 3.5-7.006 2.073 2.073 0 0 1 2.591-.336c-1.536 1.44-3.263 5.615-3.407 7.726a11.453 11.453 0 0 1 2.687-4.607 3.627 3.627 0 0 1 1.2-.912 2.429 2.429 0 0 1 1.776.384 19.683 19.683 0 0 0-4.943 10.749 17.666 17.666 0 0 1 2.543-3.359c1.056-.96 2.159-2.111 3.839-1.344a33.735 33.735 0 0 0-3.023 5.471 9.306 9.306 0 0 1-4.271 4.415c-1.1.48-2.447.72-2.927 1.824" class="prefix__cls-6" transform="translate(-91.667 -156.3)"/>
                    <g id="prefix__XMLID_357_">
                        <path id="prefix__XMLID_364_" d="M92.721 175.381c-1.536-2.735.192-5.9.912-8.59a8.949 8.949 0 0 0 .24-3.743c-.288-2.015-.528-3.647 1.152-5.135-.144-.048-.288-.048-.384-.1.432 1.152-.192 2.447.1 3.7a9.394 9.394 0 0 0 1.008 2.735c.144.24.432.1.432-.144a10.419 10.419 0 0 1 1.488-4.895 6.7 6.7 0 0 1 1.632-2.015c.144-.288.336-.336.576-.1.432.1.48.288.1.72a9 9 0 0 1-.576.864 8.627 8.627 0 0 0-.72 6.19c.048.288.48.192.48-.048a8.924 8.924 0 0 1 1.3-4.415c.816-1.344 2.687-3.743 4.463-2.687 0-.144-.048-.24-.048-.384a13.439 13.439 0 0 0-3.5 7.87c-.048.288.384.288.48.048.624-1.967 2.735-6.526 5.327-5.039 0-.144-.048-.24-.048-.384a19.107 19.107 0 0 0-5.039 10.941c-.048.24.336.288.432.144 1.2-1.872 3.407-5.615 6.094-4.559-.048-.1-.1-.24-.144-.336-1.776 2.4-2.591 5.423-4.559 7.726a7.94 7.94 0 0 1-3.551 2.4 3.361 3.361 0 0 0-2.111 1.584c-.144.288.288.528.432.24.672-1.248 2.351-1.392 3.5-2.015a8.018 8.018 0 0 0 2.447-2.3c1.728-2.255 2.543-5.087 4.271-7.39a.221.221 0 0 0-.144-.336c-2.975-1.152-5.327 2.735-6.67 4.8l.432.144a18.563 18.563 0 0 1 4.895-10.605.254.254 0 0 0-.048-.384c-1.392-.816-2.4-.384-3.407.72a12.769 12.769 0 0 0-2.639 4.559c.144 0 .336.048.48.048a12.919 12.919 0 0 1 3.359-7.534.254.254 0 0 0-.048-.384c-1.776-1.008-3.407.576-4.463 1.92a9.34 9.34 0 0 0-2.015 5.615c.144 0 .336-.048.48-.048a9.168 9.168 0 0 1 .384-5.327c.288-.576 2.015-2.639.768-3.119-1.152-.432-2.447 1.776-2.927 2.543a11.405 11.405 0 0 0-1.68 5.279l.432-.144a9.492 9.492 0 0 1-1.008-2.975c-.144-1.152.432-2.159 0-3.311a.215.215 0 0 0-.384-.1 4.387 4.387 0 0 0-1.584 3.311c0 1.056.336 2.063.384 3.119a9.513 9.513 0 0 1-.432 3.071c-.816 2.687-2.3 5.854-.768 8.59.192.144.576-.1.432-.336z" transform="translate(-91.622 -156.274)"/>
                    </g>
                </g>
                <g id="prefix__XMLID_393_" transform="translate(59.208 .883)">
                    <path id="prefix__XMLID_356_" d="M163.206 177.365a8.075 8.075 0 0 0 .624-5.423 26.757 26.757 0 0 1-.72-5.519c.1-1.392.48-2.687.48-4.079a3.2 3.2 0 0 0-2.159-3.023 15.648 15.648 0 0 1-.672 6.142c-.672-2.111-1.632-4.751-2.3-6.862a2.8 2.8 0 0 0-.384-.864 1.966 1.966 0 0 0-1.392-.192h-.048a49.212 49.212 0 0 0 1.824 7.966c-.864-1.584-2.3-4.559-3.167-6.142a3.319 3.319 0 0 0-1.2-1.488 1.252 1.252 0 0 0-1.68.24 70.756 70.756 0 0 1 2.735 8.35c-.72-1.344-1.776-3.551-2.639-4.8a7.69 7.69 0 0 0-1.2-1.3 1.476 1.476 0 0 0-2.3.72 2.8 2.8 0 0 1 1.728 1.2 7.194 7.194 0 0 1 .96 1.919c.72 1.872 1.3 3.983 1.824 5.9v.048a.653.653 0 0 1-.816.144 1.551 1.551 0 0 1-.672-.576 13.163 13.163 0 0 0-1.824-2.159c-.72-.576-2.159-1.248-2.975-.432v.048a13.122 13.122 0 0 1 2.735 4.943c.624 1.68 1.392 3.455 2.927 4.367a17.412 17.412 0 0 0 2.783 1.008 4.023 4.023 0 0 1 2.3 1.728" class="prefix__cls-6" transform="translate(-147.03 -157.318)"/>
                    <g id="prefix__XMLID_350_">
                        <path id="prefix__XMLID_355_" d="M163.369 177.434c1.824-3.263.048-6.766-.048-10.173-.1-2.879 1.776-6.622-1.776-8.158-.144-.048-.384 0-.384.192a17.488 17.488 0 0 1-.624 6.094h.48c-.672-2.111-1.44-4.223-2.111-6.334a2.747 2.747 0 0 0-.768-1.584 2.45 2.45 0 0 0-1.44-.144c-.192 0-.24.144-.24.288a50.4 50.4 0 0 0 1.824 7.966c.144-.048.288-.144.432-.192-1.056-1.967-2.015-3.983-3.071-5.9-.576-1.1-2.111-3.023-3.359-1.488a.211.211 0 0 0-.048.24 65.27 65.27 0 0 1 2.735 8.35c.144-.048.288-.144.432-.192-1.008-1.872-1.824-4.127-3.359-5.663-1.056-1.008-2.591-1.2-3.215.384-.048.1.048.288.144.288 2.063.528 2.639 3.023 3.215 4.8.288.912.576 1.824.816 2.783.144.48.672 1.344-.576.912-.384-.144-.672-.864-.912-1.152a5.275 5.275 0 0 0-2.543-2.015c-.48-.144-1.824-.24-1.967.48-.048.288.288.48.432.624a9.994 9.994 0 0 1 1.44 2.351c.624 1.344 1.008 2.783 1.68 4.127a5.653 5.653 0 0 0 2.543 2.639c1.584.768 3.647.72 4.607 2.447.144.288.576.048.432-.24a4.608 4.608 0 0 0-2.831-1.967 7.718 7.718 0 0 1-3.119-1.44 7.536 7.536 0 0 1-1.392-2.015c-.72-1.44-1.1-3.071-1.872-4.511a15 15 0 0 1-1.3-1.92c.288-1.1 2.591.624 2.831.864.624.624 1.44 2.543 2.591 2.447 1.248-.048.528-1.344.336-2.063a37.964 37.964 0 0 0-1.728-5.135 4.208 4.208 0 0 0-2.591-2.591l.144.288c.624-1.632 2.207-.48 2.879.384.384.528.72 1.1 1.056 1.632.624 1.1 1.2 2.255 1.776 3.407a.237.237 0 0 0 .432-.192c-.384-1.536-.864-3.071-1.392-4.607-.24-.72-.48-1.44-.768-2.111a10.483 10.483 0 0 1-.432-1.1c-.048-1.056 1.056-.576 1.488-.144a12.766 12.766 0 0 1 2.063 3.6c.624 1.2 1.2 2.4 1.824 3.551a.237.237 0 0 0 .432-.192 45.6 45.6 0 0 1-1.824-7.966c-.1.1-.144.192-.24.288.864 0 1.248-.1 1.584.816.24.768.48 1.488.72 2.255.528 1.536 1.056 3.071 1.536 4.607a.25.25 0 0 0 .48 0 16.85 16.85 0 0 0 .672-6.19c-.144.048-.24.144-.384.192 3.455 1.488 1.344 5.758 1.632 8.59.336 3.023 1.68 6.19.048 9.118 0 .432.432.672.576.384z" transform="translate(-147 -157.291)"/>
                    </g>
                </g>
                <g id="prefix__XMLID_848_" transform="translate(9.324 23.518)">
                    <g id="prefix__XMLID_344_">
                        <path id="prefix__XMLID_349_" d="M89.768 183.822a14.044 14.044 0 0 1 7.342 3.407c.24.192.576-.144.336-.336a14.823 14.823 0 0 0-7.582-3.551c-.288-.048-.384.432-.1.48z" transform="translate(-89.594 -183.339)"/>
                    </g>
                </g>
                <g id="prefix__XMLID_833_" transform="translate(0 18.963)">
                    <path id="prefix__XMLID_372_" d="M105.665 220.794c-6.286-.048-13.341-5.423-14.732-11.565-1.1-4.655.24-9.549 1.872-14.06s3.983-9.741 4.079-14.54a14.89 14.89 0 0 0-6.046-2.255A102.132 102.132 0 0 0 81 201.023c-2.255 7.726-2.783 16.124-.192 23.706a30.4 30.4 0 0 0 14.828 17.084c7.726 3.935 16.748 4.367 25.385 4.079 6.91-.24 13.868-.96 20.395-3.167s12.669-6.046 16.7-11.661c5.231-7.294 6.43-16.892 5.039-25.769-1.344-8.878-4.463-17.228-8.206-25.385-1.967.816-3.983 1.632-5.95 2.447a78.352 78.352 0 0 1 3.6 15.164c.72 5.087.384 10.461-1.824 15.068-2.207 4.655-7.774 8.4-12.861 9.214" class="prefix__cls-6" transform="translate(-78.891 -178.133)"/>
                    <g id="prefix__XMLID_367_">
                        <path id="prefix__XMLID_343_" d="M105.637 220.517c-6.67-.144-13.58-5.567-14.732-12.237-1.44-8.4 3.983-16.076 5.663-23.994A28.647 28.647 0 0 0 97 181.36c.048-.912.1-.912-.672-1.392a16.808 16.808 0 0 0-5.471-1.872c-.1 0-.192 0-.24.1a102.051 102.051 0 0 0-8.542 18.619c-2.159 6.286-3.6 12.813-3.119 19.483a31.091 31.091 0 0 0 18.907 26.729c6 2.5 12.525 3.119 18.955 3.119a86.776 86.776 0 0 0 20.539-2.063 39.359 39.359 0 0 0 16.22-7.87 28.592 28.592 0 0 0 9.118-14.54c3.743-14.108-1.728-29.176-7.534-41.893a.175.175 0 0 0-.24-.1c-1.967.816-3.983 1.632-5.95 2.447-.1.048-.192.144-.144.24a74.563 74.563 0 0 1 3.119 12.093 35.444 35.444 0 0 1 .384 12.525 17.229 17.229 0 0 1-5.039 9.885 18.918 18.918 0 0 1-9.406 4.751c-.24.048-.144.432.1.384a19.461 19.461 0 0 0 10.605-5.854c2.975-3.263 4.223-7.63 4.511-11.949.336-5.039-.672-10.173-1.872-15.068-.288-1.248-.624-2.447-1.008-3.647-.192-.624-.384-1.3-.624-1.919-.048-.192-.288-.72-.288-.816.1-.48.624-.528 1.008-.672 1.2-.48 2.4-1.008 3.6-1.488.912-.384 1.008-.144 1.392.672.288.672.576 1.344.912 2.015 4.079 9.406 7.534 19.771 7.246 30.088a33.582 33.582 0 0 1-3.407 14.156 28.329 28.329 0 0 1-9.6 10.605c-8.782 5.854-19.531 7.246-29.848 7.582-9.981.336-20.635-.432-28.936-6.574A31.166 31.166 0 0 1 79.292 213.8c0-10.605 4.271-21.115 9.022-30.424.528-1.008 1.056-2.063 1.632-3.023.24-.384.576-1.392 1.008-1.584.432-.24 1.344.144 1.824.288a9.189 9.189 0 0 1 3.311 1.392c1.008.816.288 2.879 0 4.031-1.1 5.039-3.5 9.693-4.847 14.636-1.152 4.271-1.632 9.07.528 13.1a17.523 17.523 0 0 0 8.59 7.63 14.291 14.291 0 0 0 5.277 1.154.241.241 0 0 0 0-.48z" transform="translate(-78.864 -178.096)"/>
                    </g>
                </g>
                <g id="prefix__XMLID_826_" transform="translate(22.746 52.218)">
                    <path id="prefix__XMLID_295_" d="M134.356 217.422a8.9 8.9 0 0 0-3.983 2.111 10.51 10.51 0 0 1 8.4 1.008 4.767 4.767 0 0 0-3.311 1.344 13.933 13.933 0 0 1 8.206 8.014 23.867 23.867 0 0 1 1.392 11.613c-.48 5.039-2.111 10.269-5.854 13.628-3.5 3.119-8.4 4.271-13.1 4.559-3.743.24-7.63-.048-10.941-1.728a17.525 17.525 0 0 1-6.958-6.91 23.97 23.97 0 0 1 1.248-25.769 22.61 22.61 0 0 1 24.33-7.966z" transform="translate(-105.04 -216.366)"/>
                </g>
            </g>
            <path id="prefix__XMLID_399_" d="M64.583 15.274S50.187-5.121 21.922 11.2c-20.011 11.512-25.05 58.876 6.19 65.546 20.971 4.463 22.218-20.923 6.718-25.529C20.77 47.042 7 62.59 17.411 79.913c15.02 25.1 69.534 21.45 69.534 21.45" class="prefix__cls-15" transform="translate(-.726 -.782)"/>
            <g id="prefix__XMLID_512_" transform="translate(70.383 158.935)">
                <g id="prefix__XMLID_37_" transform="translate(8.638 1.584)">
                    <g id="prefix__XMLID_338_">
                        <path id="prefix__XMLID_337_" d="M92.05 187.288a1.2 1.2 0 0 0 0-2.4 1.2 1.2 0 0 0 0 2.4z" class="prefix__cls-5" transform="translate(-90.898 -184.889)"/>
                    </g>
                </g>
                <g id="prefix__XMLID_319_" transform="translate(8.974 9.406)">
                    <g id="prefix__XMLID_332_">
                        <path id="prefix__XMLID_331_" d="M92.436 196.29a1.2 1.2 0 0 0 0-2.4 1.2 1.2 0 0 0 0 2.4z" class="prefix__cls-5" transform="translate(-91.285 -193.89)"/>
                    </g>
                </g>
                <g id="prefix__XMLID_394_" transform="translate(3.533 13.437)">
                    <g id="prefix__XMLID_326_">
                        <path id="prefix__XMLID_325_" d="M86.193 200.929a1.2 1.2 0 0 0 0-2.4 1.2 1.2 0 0 0 0 2.4z" class="prefix__cls-5" transform="translate(-85.024 -198.529)"/>
                    </g>
                </g>
                <g id="prefix__XMLID_398_" transform="translate(5.759 21.882)">
                    <g id="prefix__XMLID_320_">
                        <path id="prefix__XMLID_318_" d="M88.737 210.648a1.2 1.2 0 0 0 0-2.4 1.2 1.2 0 0 0 0 2.4z" class="prefix__cls-5" transform="translate(-87.585 -208.249)"/>
                    </g>
                </g>
                <g id="prefix__XMLID_413_" transform="translate(0 27.977)">
                    <g id="prefix__XMLID_312_">
                        <path id="prefix__XMLID_311_" d="M82.11 217.661a1.2 1.2 0 0 0 0-2.4 1.2 1.2 0 0 0 0 2.4z" class="prefix__cls-5" transform="translate(-80.958 -215.262)"/>
                    </g>
                </g>
                <g id="prefix__XMLID_654_" transform="translate(10.413 33.111)">
                    <g id="prefix__XMLID_306_">
                        <path id="prefix__XMLID_305_" d="M94.093 223.57a1.2 1.2 0 0 0 0-2.4 1.2 1.2 0 0 0 0 2.4z" class="prefix__cls-5" transform="translate(-92.941 -221.171)"/>
                    </g>
                </g>
                <g id="prefix__XMLID_777_" transform="translate(4.175 37.91)">
                    <g id="prefix__XMLID_300_">
                        <path id="prefix__XMLID_299_" d="M86.914 229.093a1.2 1.2 0 0 0 0-2.4 1.2 1.2 0 0 0 0 2.4z" class="prefix__cls-5" transform="translate(-85.762 -226.693)"/>
                    </g>
                </g>
                <g id="prefix__XMLID_789_" transform="translate(7.198 49.571)">
                    <g id="prefix__XMLID_293_">
                        <path id="prefix__XMLID_292_" d="M90.393 242.512a1.2 1.2 0 0 0 0-2.4 1.2 1.2 0 0 0 0 2.4z" class="prefix__cls-5" transform="translate(-89.242 -240.113)"/>
                    </g>
                </g>
                <g id="prefix__XMLID_835_" transform="translate(16.01 54.85)">
                    <g id="prefix__XMLID_287_">
                        <path id="prefix__XMLID_286_" d="M100.552 248.587a1.2 1.2 0 0 0 0-2.4 1.2 1.2 0 0 0 0 2.4z" class="prefix__cls-5" transform="translate(-99.382 -246.187)"/>
                    </g>
                </g>
                <g id="prefix__XMLID_890_" transform="translate(15.692 44.436)">
                    <g id="prefix__XMLID_281_">
                        <path id="prefix__XMLID_280_" d="M100.168 236.6a1.2 1.2 0 0 0 0-2.4 1.2 1.2 0 0 0 0 2.4z" class="prefix__cls-5" transform="translate(-99.016 -234.204)"/>
                    </g>
                </g>
                <g id="prefix__XMLID_908_" transform="translate(20.491 39.158)">
                    <g id="prefix__XMLID_275_">
                        <path id="prefix__XMLID_274_" d="M105.69 230.529a1.2 1.2 0 0 0 0-2.4 1.2 1.2 0 0 0 0 2.4z" class="prefix__cls-5" transform="translate(-104.538 -228.129)"/>
                    </g>
                </g>
                <g id="prefix__XMLID_920_" transform="translate(60.32 39.638)">
                    <g id="prefix__XMLID_269_">
                        <path id="prefix__XMLID_268_" d="M151.526 231.081a1.2 1.2 0 0 0 0-2.4 1.2 1.2 0 0 0 0 2.4z" class="prefix__cls-5" transform="translate(-150.374 -228.681)"/>
                    </g>
                </g>
                <g id="prefix__XMLID_962_" transform="translate(63.2 46.692)">
                    <g id="prefix__XMLID_263_">
                        <path id="prefix__XMLID_262_" d="M154.839 239.2a1.2 1.2 0 0 0 0-2.4 1.2 1.2 0 0 0 0 2.4z" class="prefix__cls-5" transform="translate(-153.688 -236.799)"/>
                    </g>
                </g>
                <g id="prefix__XMLID_1528_" transform="translate(60.8 55.474)">
                    <g id="prefix__XMLID_257_">
                        <path id="prefix__XMLID_256_" d="M152.078 249.3a1.2 1.2 0 0 0 0-2.4 1.2 1.2 0 0 0 0 2.4z" class="prefix__cls-5" transform="translate(-150.926 -246.905)"/>
                    </g>
                </g>
                <g id="prefix__XMLID_1604_" transform="translate(71.675 47.652)">
                    <g id="prefix__XMLID_251_">
                        <path id="prefix__XMLID_250_" d="M164.611 240.3a1.2 1.2 0 0 0 0-2.4 1.2 1.2 0 0 0 0 2.4z" class="prefix__cls-5" transform="translate(-163.441 -237.904)"/>
                    </g>
                </g>
                <g id="prefix__XMLID_1632_" transform="translate(69.276 36.758)">
                    <g id="prefix__XMLID_245_">
                        <path id="prefix__XMLID_244_" d="M161.85 227.767a1.2 1.2 0 0 0 0-2.4 1.2 1.2 0 0 0 0 2.4z" class="prefix__cls-5" transform="translate(-160.68 -225.368)"/>
                    </g>
                </g>
                <g id="prefix__XMLID_1707_" transform="translate(77.74 32.296)">
                    <g id="prefix__XMLID_239_">
                        <path id="prefix__XMLID_238_" d="M171.572 222.632a1.2 1.2 0 0 0 0-2.4 1.2 1.2 0 0 0 0 2.4z" class="prefix__cls-5" transform="translate(-170.42 -220.232)"/>
                    </g>
                </g>
                <g id="prefix__XMLID_1815_" transform="translate(73.277 25.241)">
                    <g id="prefix__XMLID_233_">
                        <path id="prefix__XMLID_232_" d="M166.436 214.514a1.2 1.2 0 0 0 0-2.4 1.2 1.2 0 0 0 0 2.4z" class="prefix__cls-5" transform="translate(-165.285 -212.114)"/>
                    </g>
                </g>
                <g id="prefix__XMLID_1824_" transform="translate(77.434 18.715)">
                    <g id="prefix__XMLID_227_">
                        <path id="prefix__XMLID_226_" d="M171.238 207a1.2 1.2 0 0 0 0-2.4 1.2 1.2 0 0 0 0 2.4z" class="prefix__cls-5" transform="translate(-170.068 -204.604)"/>
                    </g>
                </g>
                <g id="prefix__XMLID_1859_" transform="translate(72.941 9.406)">
                    <g id="prefix__XMLID_41_">
                        <path id="prefix__XMLID_221_" d="M166.05 196.29a1.2 1.2 0 0 0 0-2.4 1.2 1.2 0 0 0 0 2.4z" class="prefix__cls-5" transform="translate(-164.898 -193.89)"/>
                    </g>
                </g>
                <g id="prefix__XMLID_1873_" transform="translate(71.837)">
                    <g id="prefix__XMLID_35_">
                        <path id="prefix__XMLID_40_" d="M164.78 185.466a1.2 1.2 0 0 0 0-2.4 1.2 1.2 0 0 0 0 2.4z" class="prefix__cls-5" transform="translate(-163.628 -183.067)"/>
                    </g>
                </g>
                <g id="prefix__XMLID_1895_" transform="translate(77.914 40.789)">
                    <g id="prefix__XMLID_25_">
                        <path id="prefix__XMLID_29_" d="M171.79 232.406a1.2 1.2 0 0 0 0-2.4 1.2 1.2 0 0 0 0 2.4z" class="prefix__cls-5" transform="translate(-170.62 -230.007)"/>
                    </g>
                </g>
            </g>
            <ellipse id="prefix__XMLID_1985_" cx="13.484" cy="13.149" rx="13.484" ry="13.149" transform="translate(129.552 46.212)"/>
            <g id="prefix__XMLID_1991_" transform="translate(128.016 43.093)">
                <circle id="prefix__XMLID_1978_" cx="13.149" cy="13.149" r="13.149" class="prefix__cls-3"/>
                <g id="prefix__XMLID_2606_" transform="translate(2.004 2.048)">
                    <g id="prefix__XMLID_1085_">
                        <circle id="prefix__XMLID_34_" cx="10.989" cy="10.989" r="10.989" class="prefix__cls-6" transform="translate(.156 .159)"/>
                        <g id="prefix__XMLID_23_">
                            <path id="prefix__XMLID_33_" d="M171.913 63.262a11.163 11.163 0 1 0-9.166 10.989 11.423 11.423 0 0 0 9.166-10.989.168.168 0 1 0-.336 0 10.782 10.782 0 1 1-8.541-10.562 10.946 10.946 0 0 1 8.542 10.557c-.048.243.335.243.335.005z" transform="translate(-149.588 -52.114)"/>
                        </g>
                    </g>
                    <g id="prefix__XMLID_2016_" transform="translate(9.456 7.942)">
                        <g id="prefix__XMLID_217_">
                            <path id="prefix__XMLID_215_" d="M161.966 64.747c-1.1-.384-1.536-1.632-.432-2.3a16.672 16.672 0 0 0 1.584-.864c.192-.144-.1-.432-.288-.288-.768.672-2.207.768-2.351 2.015a1.808 1.808 0 0 0 1.392 1.824c.24.1.336-.288.1-.384z" transform="translate(-160.47 -61.253)"/>
                        </g>
                    </g>
                    <g id="prefix__XMLID_2017_" transform="translate(10.777 7.775)">
                        <g id="prefix__XMLID_211_">
                            <path id="prefix__XMLID_209_" d="M162.262 65.106a2.873 2.873 0 0 0 1.152-3.935c-.1-.24-.48-.048-.336.192a2.487 2.487 0 0 1-1.008 3.407c-.192.144 0 .48.192.336z" transform="translate(-161.99 -61.061)"/>
                        </g>
                    </g>
                    <g id="prefix__XMLID_2019_" transform="translate(5.59 8.138)">
                        <g id="prefix__XMLID_205_">
                            <path id="prefix__XMLID_203_" d="M160.04 62.858c-.72-1.44-2.4-1.44-3.839-1.344-.24 0-.24.432 0 .384 1.248-.1 2.831-.144 3.5 1.152a.194.194 0 1 0 .336-.192z" transform="translate(-156.021 -61.479)"/>
                        </g>
                    </g>
                    <g id="prefix__XMLID_2020_" transform="translate(5.53 8.227)">
                        <g id="prefix__XMLID_199_">
                            <path id="prefix__XMLID_197_" d="M155.952 61.767c.24 2.543 3.551 5.615 5.95 3.263a.2.2 0 1 0-.288-.288c-2.111 2.063-5.039-.816-5.231-3.023-.048-.192-.432-.192-.432.048z" transform="translate(-155.952 -61.581)"/>
                        </g>
                    </g>
                    <g id="prefix__XMLID_2021_" transform="translate(6.154 11.278)">
                        <g id="prefix__XMLID_193_">
                            <path id="prefix__XMLID_191_" d="M158.733 65.73c-1.584.624-1.92 2.255-2.063 3.791 0 .1.048.192.144.192 1.536.384 3.407.72 4.7-.48a3.421 3.421 0 0 0 .624-4.031c-.1-.24-.432-.048-.336.192a2.94 2.94 0 0 1-2.735 4.319 3.381 3.381 0 0 1-1.392-.192c-.576-.24-.576-.192-.432-1.008a3 3 0 0 1 1.632-2.4c.192-.1.1-.48-.144-.384z" transform="translate(-156.67 -65.092)"/>
                        </g>
                    </g>
                    <g id="prefix__XMLID_2022_" transform="translate(7.656 3.991)">
                        <g id="prefix__XMLID_187_">
                            <path id="prefix__XMLID_185_" d="M159.2 60.985c-1.008-1.488.24-2.975 1.344-3.935h-.288c.96 1.1 2.255 2.831 1.056 4.271-.144.192.1.48.288.288 1.344-1.632.048-3.5-1.056-4.847-.1-.1-.192-.048-.288 0-1.248 1.056-2.543 2.735-1.44 4.415.192.24.528.048.384-.192z" transform="translate(-158.398 -56.706)"/>
                        </g>
                    </g>
                    <g id="prefix__XMLID_2023_" transform="translate(11.128 5.59)">
                        <g id="prefix__XMLID_181_">
                            <path id="prefix__XMLID_179_" d="M162.746 59.93c1.008-2.255 4.079-.048 5.758.048a.192.192 0 0 0 0-.384c-1.824-.1-4.943-2.4-6.094.144-.1.24.24.432.336.192z" transform="translate(-162.393 -58.546)"/>
                        </g>
                    </g>
                    <g id="prefix__XMLID_2024_" transform="translate(10.865 6.842)">
                        <g id="prefix__XMLID_175_">
                            <path id="prefix__XMLID_173_" d="M162.227 65.014a4.087 4.087 0 0 0 3.7-.576c1.44-1.1 1.44-3.215 3.071-4.079.24-.144 0-.48-.192-.336-1.1.624-1.44 1.68-2.016 2.735a3.611 3.611 0 0 1-4.415 1.919c-.288-.144-.384.24-.144.336z" transform="translate(-162.091 -59.988)"/>
                        </g>
                    </g>
                    <g id="prefix__XMLID_2027_" transform="translate(14.941 10.557)">
                        <g id="prefix__XMLID_169_">
                            <path id="prefix__XMLID_167_" d="M166.92 64.662c2.207.72.432 3.983.912 5.615.048.24.432.144.384-.1-.48-1.776 1.392-5.087-1.2-5.9-.24-.1-.336.288-.1.384z" transform="translate(-166.781 -64.263)"/>
                        </g>
                    </g>
                    <g id="prefix__XMLID_2028_" transform="translate(11.484 12.222)">
                        <g id="prefix__XMLID_163_">
                            <path id="prefix__XMLID_161_" d="M162.944 66.3c-.864 3.023 2.447 4.463 4.847 4.7.144 0 .288-.24.144-.336a1.272 1.272 0 0 0-.288-.24c-.192-.144-.48.1-.288.288a1.272 1.272 0 0 0 .288.24c.048-.1.1-.24.144-.336-2.159-.192-5.231-1.44-4.463-4.223.1-.192-.288-.336-.384-.1z" transform="translate(-162.804 -66.179)"/>
                        </g>
                    </g>
                    <g id="prefix__XMLID_2029_" transform="translate(12.309 6.78)">
                        <g id="prefix__XMLID_157_">
                            <path id="prefix__XMLID_155_" d="M164.124 62.653a5.614 5.614 0 0 1 4.895-2.351.192.192 0 0 0 0-.384 6.2 6.2 0 0 0-5.231 2.543c-.144.192.192.384.336.192z" transform="translate(-163.753 -59.916)"/>
                        </g>
                    </g>
                    <g id="prefix__XMLID_2030_" transform="translate(8.87 4.531)">
                        <g id="prefix__XMLID_151_">
                            <path id="prefix__XMLID_149_" d="M160.294 57.467a7.017 7.017 0 0 0-.1 4.943c.1.24.48.144.384-.1a7.027 7.027 0 0 1 .1-4.751c.1-.24-.288-.336-.384-.1z" transform="translate(-159.795 -57.328)"/>
                        </g>
                    </g>
                    <g id="prefix__XMLID_2031_" transform="translate(5.801 8.447)">
                        <g id="prefix__XMLID_145_">
                            <path id="prefix__XMLID_143_" d="M156.281 62.136a4.972 4.972 0 0 0 4.607 2.831.192.192 0 0 0 0-.384 4.741 4.741 0 0 1-4.271-2.639c-.1-.24-.432-.048-.336.192z" transform="translate(-156.263 -61.834)"/>
                        </g>
                    </g>
                    <g id="prefix__XMLID_2034_" transform="translate(6.508 11.153)">
                        <g id="prefix__XMLID_138_">
                            <path id="prefix__XMLID_136_" d="M157.347 69.263a6.394 6.394 0 0 0 5.039-4.079c.1-.24-.288-.336-.384-.1a5.882 5.882 0 0 1-4.751 3.791c-.288.048-.192.432.1.384z" transform="translate(-157.077 -64.949)"/>
                        </g>
                    </g>
                    <g id="prefix__XMLID_2035_" transform="translate(11.349 11.72)">
                        <g id="prefix__XMLID_132_">
                            <path id="prefix__XMLID_130_" d="M162.684 65.893a11.679 11.679 0 0 0 4.8 4.847c.24.144.432-.24.192-.336a12.177 12.177 0 0 1-4.655-4.7c-.144-.24-.48 0-.336.192z" transform="translate(-162.649 -65.6)"/>
                        </g>
                    </g>
                    <g id="prefix__XMLID_2036_" transform="translate(15.785 8.532)">
                        <g id="prefix__XMLID_126_">
                            <path id="prefix__XMLID_124_" d="M168.055 62.725a3.378 3.378 0 0 1 4.127.72 8.306 8.306 0 0 1 1.44 3.263c.048.24.432.144.384-.1-.384-1.392-.816-2.975-2.063-3.935a3.8 3.8 0 0 0-4.079-.288c-.24.1-.048.432.192.336z" transform="translate(-167.753 -61.933)"/>
                        </g>
                    </g>
                    <g id="prefix__XMLID_2037_" transform="translate(16.179 13.068)">
                        <g id="prefix__XMLID_120_">
                            <path id="prefix__XMLID_118_" d="M168.307 68.448c1.967 1.008 3.647-.864 5.615-.912a.192.192 0 0 0 0-.384c-1.824.1-3.647 1.872-5.423 1.008-.192-.144-.432.192-.192.288z" transform="translate(-168.206 -67.152)"/>
                        </g>
                    </g>
                    <g id="prefix__XMLID_2412_" transform="translate(15.098 10.002)">
                        <g id="prefix__XMLID_114_">
                            <path id="prefix__XMLID_112_" d="M167.232 64.194a5.175 5.175 0 0 1 5.854 2.351c.144.24.48 0 .336-.192a5.588 5.588 0 0 0-6.286-2.543c-.288.1-.192.48.1.384z" transform="translate(-166.962 -63.623)"/>
                        </g>
                    </g>
                    <g id="prefix__XMLID_2437_" transform="translate(9.63 15.693)">
                        <g id="prefix__XMLID_107_">
                            <path id="prefix__XMLID_105_" d="M161.177 70.283c-1.919 2.783 2.111 4.655 3.791 5.95.192.144.384-.192.192-.336-1.584-1.2-5.423-2.831-3.7-5.423.24-.24-.144-.432-.288-.192z" transform="translate(-160.67 -70.173)"/>
                        </g>
                    </g>
                    <g id="prefix__XMLID_2447_" transform="translate(13.893 16.7)">
                        <g id="prefix__XMLID_101_">
                            <path id="prefix__XMLID_99_" d="M166.81 71.683c1.2 1.344-.384 3.407-1.2 4.559-.144.192.192.384.336.192.96-1.344 2.543-3.5 1.152-5.039a.2.2 0 0 0-.288.288z" transform="translate(-165.576 -71.331)"/>
                        </g>
                    </g>
                    <g id="prefix__XMLID_2460_" transform="translate(11.455 14.184)">
                        <g id="prefix__XMLID_95_">
                            <path id="prefix__XMLID_93_" d="M162.8 68.616a9.232 9.232 0 0 0 2.591 7.15c.192.192.432-.1.288-.288a8.9 8.9 0 0 1-2.447-6.862c0-.24-.384-.24-.432 0z" transform="translate(-162.771 -68.436)"/>
                        </g>
                    </g>
                    <g id="prefix__XMLID_2469_" transform="translate(1.543 11.609)">
                        <g id="prefix__XMLID_89_">
                            <path id="prefix__XMLID_87_" d="M157.51 65.828c-3.023-1.3-5.711 1.152-6.142 4.079-.048.24.336.336.384.1.384-2.639 2.783-5.039 5.567-3.887.192.144.432-.192.192-.288z" transform="translate(-151.363 -65.473)"/>
                        </g>
                    </g>
                    <g id="prefix__XMLID_2491_" transform="translate(1.363 16.028)">
                        <g id="prefix__XMLID_83_">
                            <path id="prefix__XMLID_81_" d="M151.292 70.91c2.351.912 7.006 3.407 8.638 0 .1-.24-.24-.432-.336-.192-1.488 3.167-5.95.672-8.158-.144-.288-.1-.384.288-.144.336z" transform="translate(-151.156 -70.558)"/>
                        </g>
                    </g>
                    <g id="prefix__XMLID_2502_" transform="translate(1.484 14.689)">
                        <g id="prefix__XMLID_77_">
                            <path id="prefix__XMLID_75_" d="M151.647 70.708a4.6 4.6 0 0 1 4.655-1.056c.24.1.336-.288.1-.384a5 5 0 0 0-5.039 1.152.2.2 0 1 0 .288.288z" transform="translate(-151.295 -69.018)"/>
                        </g>
                    </g>
                    <g id="prefix__XMLID_2512_" transform="translate(1.307 5.978)">
                        <g id="prefix__XMLID_71_">
                            <path id="prefix__XMLID_69_" d="M151.092 59.173a5.831 5.831 0 0 0 4.991 5.758c.24.048.336-.336.1-.384a5.431 5.431 0 0 1-4.7-5.375.192.192 0 0 0-.384 0z" transform="translate(-151.092 -58.993)"/>
                        </g>
                    </g>
                    <g id="prefix__XMLID_2521_" transform="translate(1.415 5.438)">
                        <g id="prefix__XMLID_65_">
                            <path id="prefix__XMLID_63_" d="M151.4 59.379c.96-.144 1.872-.24 2.831-.384 1.008-.144 2.5-.576 3.359.192.192.144.48-.1.288-.288a2.57 2.57 0 0 0-2.207-.48c-1.44.144-2.831.384-4.271.576a.192.192 0 0 0 0 .384z" transform="translate(-151.216 -58.372)"/>
                        </g>
                    </g>
                    <g id="prefix__XMLID_2531_" transform="translate(1.316 6.382)">
                        <g id="prefix__XMLID_59_">
                            <path id="prefix__XMLID_57_" d="M151.141 59.81a6.248 6.248 0 0 0 4.271 1.872.192.192 0 0 0 0-.384 5.684 5.684 0 0 1-3.983-1.776c-.144-.192-.432.1-.288.288z" transform="translate(-151.102 -59.458)"/>
                        </g>
                    </g>
                    <g id="prefix__XMLID_2541_" transform="translate(7.346 .395)">
                        <g id="prefix__XMLID_53_">
                            <path id="prefix__XMLID_51_" d="M158.673 58.043c-1.344-3.167 2.351-4.943 4.847-5.087.24 0 .24-.432 0-.384a6.269 6.269 0 0 0-4.511 1.824 3.629 3.629 0 0 0-.672 3.887c.1.192.48 0 .336-.24z" transform="translate(-158.042 -52.569)"/>
                        </g>
                    </g>
                    <g id="prefix__XMLID_2550_" transform="translate(11.101 .481)">
                        <g id="prefix__XMLID_47_">
                            <path id="prefix__XMLID_6_" d="M163.942 52.969c1.1 1.967-.24 3.935-1.536 5.423-.144.192.1.48.288.288 1.44-1.632 2.831-3.743 1.584-5.9a.194.194 0 1 0-.336.192z" transform="translate(-162.362 -52.667)"/>
                        </g>
                    </g>
                    <g id="prefix__XMLID_2559_" transform="translate(10.302 .604)">
                        <g id="prefix__XMLID_43_">
                            <path id="prefix__XMLID_5_" d="M161.9 57.4a3.9 3.9 0 0 1 1.967-4.223c.24-.144 0-.48-.192-.336a4.418 4.418 0 0 0-2.159 4.7c.048.192.432.1.384-.144z" transform="translate(-161.444 -52.809)"/>
                        </g>
                    </g>
                    <g id="prefix__XMLID_2568_" transform="translate(12.545 3.315)">
                        <g id="prefix__XMLID_488_">
                            <path id="prefix__XMLID_4_" d="M164.352 57.332c2.111-2.111 5.039-.48 7.054.864.192.144.432-.192.192-.336-2.207-1.44-5.279-3.071-7.534-.816-.144.192.144.48.288.288z" transform="translate(-164.024 -55.929)"/>
                        </g>
                    </g>
                    <g id="prefix__XMLID_2577_" transform="translate(17.203 5.214)">
                        <g id="prefix__XMLID_517_">
                            <path id="prefix__XMLID_3_" d="M169.565 59.969a3.948 3.948 0 0 0 2.783-1.584c.144-.192-.192-.384-.336-.192a3.56 3.56 0 0 1-2.447 1.392.192.192 0 0 0 0 .384z" transform="translate(-169.385 -58.114)"/>
                        </g>
                    </g>
                    <g id="prefix__XMLID_2596_" transform="translate(11.921 4.688)">
                        <g id="prefix__XMLID_523_">
                            <path id="prefix__XMLID_2_" d="M163.634 58.69c2.111-1.919 5.183.192 7.63-.144.24-.048.144-.432-.1-.384-2.591.384-5.519-1.824-7.822.24-.144.144.144.432.288.288z" transform="translate(-163.307 -57.508)"/>
                        </g>
                    </g>
                </g>
            </g>
            <g id="prefix__XMLID_392_" transform="translate(194.911 20.827)">
                <path id="prefix__XMLID_1808_" d="M247.508 24.133l-20.539 1.344 2.879 8.446.48 1.44 5.087 8.59z" transform="translate(-224.618 -24.133)" style="stroke:#000;stroke-width:.552px;stroke-miterlimit:10;fill:#fff"/>
                <path id="prefix__XMLID_1810_" d="M224.263 39.045l5.231-3.647.48 1.44 1.776 3.023z" transform="translate(-224.263 -25.609)" style="stroke:#000;stroke-width:.552px;stroke-miterlimit:10;fill:#df3744"/>
                <path id="prefix__XMLID_1812_" d="M16.988 0L0 11.613" transform="translate(5.902)" style="stroke:#000;stroke-width:.552px;stroke-miterlimit:10;fill:none"/>
            </g>
            <path id="prefix__XMLID_296_" d="M156.173 104.367c.624.192 29.848 1.967 39.878-14.972 7.2-12.141 3.215-29.656 7.582-38.438s10.221-9.981 10.221-9.981" class="prefix__cls-15" transform="translate(-20.43 -5.513)"/>
        </g>
    </g>
</svg>
