<svg xmlns="http://www.w3.org/2000/svg" width="50.431" height="57.242" viewBox="0 0 50.431 57.242">
    <defs>
        <style>
            .prefix__cls-1{fill:#3c3c47}
        </style>
    </defs>
    <g id="prefix__money" transform="translate(-.36)">
        <path id="prefix__Path_151" d="M190.126 160.987a.894.894 0 0 0-.322-.011 2.135 2.135 0 0 1-1.888-2.117.939.939 0 1 0-1.878 0 4.017 4.017 0 0 0 2.953 3.868v.939a.939.939 0 1 0 1.878 0v-.882a4.009 4.009 0 0 0-.822-7.934 2.132 2.132 0 1 1 2.132-2.132.939.939 0 1 0 1.878 0 4.017 4.017 0 0 0-3.188-3.925v-.855a.939.939 0 1 0-1.878 0v.912a4.009 4.009 0 0 0 1.056 7.877 2.13 2.13 0 0 1 .078 4.26zm0 0" class="prefix__cls-1" data-name="Path 151" transform="translate(-163.886 -129.747)"/>
        <path id="prefix__Path_152" d="M104.2 120.108a13.615 13.615 0 1 0 13.615-13.615 13.615 13.615 0 0 0-13.615 13.615zm13.615-11.738a11.738 11.738 0 1 1-11.738 11.738 11.737 11.737 0 0 1 11.734-11.738zm0 0" class="prefix__cls-1" data-name="Path 152" transform="translate(-91.648 -93.994)"/>
        <path id="prefix__Path_153" d="M44.406 330.1l-7.355 3.475a5.991 5.991 0 0 0-5.107-3.151l-6.79-.187a7.171 7.171 0 0 1-3.086-.8l-.691-.358a12.187 12.187 0 0 0-11.288.012l.043-1.565a.939.939 0 0 0-.913-.965l-7.445-.2a.939.939 0 0 0-.964.913l-.45 16.339a.939.939 0 0 0 .913.965l7.445.2h.026a.939.939 0 0 0 .939-.913l.022-.782 1.934-1.036a3.318 3.318 0 0 1 2.476-.271l11.55 3.242.061.015a12.362 12.362 0 0 0 2.538.262 12.527 12.527 0 0 0 5.233-1.142.876.876 0 0 0 .116-.064l16.747-10.833a.939.939 0 0 0 .308-1.251 4.743 4.743 0 0 0-6.262-1.905zM2.264 342.721l.4-14.462 5.568.153-.4 14.462zm30.389-.246a10.646 10.646 0 0 1-6.51.727l-11.519-3.234a5.192 5.192 0 0 0-3.87.423l-.988.529.265-9.615a10.321 10.321 0 0 1 10.485-.559l.691.358a9.069 9.069 0 0 0 3.9 1.007l6.79.187a4.118 4.118 0 0 1 3.914 3.282l-10.118-.28a.939.939 0 1 0-.052 1.877l11.162.307h.026a.939.939 0 0 0 .938-.913 5.958 5.958 0 0 0-.091-1.218l7.544-3.565.022-.01a2.869 2.869 0 0 1 3.244.454zm0 0" class="prefix__cls-1" data-name="Path 153" transform="translate(0 -288.053)"/>
        <path id="prefix__Path_154" d="M214.081 9.859V.939a.939.939 0 0 0-1.878 0v8.92a.939.939 0 0 0 1.878 0zm0 0" class="prefix__cls-1" data-name="Path 154" transform="translate(-186.98)"/>
        <path id="prefix__Path_155" d="M274.081 45.164v-4.225a.939.939 0 0 0-1.878 0v4.225a.939.939 0 0 0 1.878 0zm0 0" class="prefix__cls-1" data-name="Path 155" transform="translate(-239.938 -35.305)"/>
        <path id="prefix__Path_156" d="M154.081 45.164v-4.225a.939.939 0 0 0-1.878 0v4.225a.939.939 0 0 0 1.878 0zm0 0" class="prefix__cls-1" data-name="Path 156" transform="translate(-134.022 -35.305)"/>
    </g>
</svg>
