<svg xmlns="http://www.w3.org/2000/svg" width="45.59" height="45.59" viewBox="0 0 45.59 45.59">
    <path id="prefix__Path_150" d="M25.795 3A22.795 22.795 0 1 0 48.59 25.795 22.794 22.794 0 0 0 25.795 3zm0 43.057a20.262 20.262 0 1 1 20.262-20.262 20.263 20.263 0 0 1-20.262 20.262zm12.664-19a1.265 1.265 0 0 1-1.264 1.266H24.529a1.265 1.265 0 0 1-1.266-1.264v-15.2a1.266 1.266 0 0 1 2.533 0v13.93h11.4a1.265 1.265 0 0 1 1.266 1.264z" data-name="Path 150" transform="translate(-3 -3)" style="fill:#3c3c47"/>
</svg>
