<svg xmlns="http://www.w3.org/2000/svg" width="54" height="58.821" viewBox="0 0 54 58.821">
    <path id="prefix__Path_149" d="M75.036 48.75h-7.052l7.823-10.431a.964.964 0 0 0-.193-1.35l-6.594-4.945a.9.9 0 0 0 .206-.161 2.411 2.411 0 0 0-3.753-3.028.945.945 0 0 0-.09.173 3.834 3.834 0 0 0-5.328.1l-2.225 2.227a.965.965 0 0 0 0 1.363l5.338 5.338a.965.965 0 0 0 1.364 0l2.225-2.225a3.817 3.817 0 0 0 1.085-2.262l5.845 4.384-8.1 10.8a.017.017 0 0 1-.008.016h-4.043v-4.82a2.893 2.893 0 0 0-2.893-2.893h-7.714a2.893 2.893 0 0 0-2.893 2.893v4.821H22.964a.964.964 0 1 0 0 1.929h25.072V55.5h-2.893a.965.965 0 0 0-.964.964v3.857a.965.965 0 0 0 .964.964h8.679v6.93l-4.974.994a.964.964 0 0 0 .193 1.91 1 1 0 0 0 .193-.019l4.588-.919v2.675a.964.964 0 1 0 1.929 0v-2.674l4.6.919a.964.964 0 0 0 .378-1.891l-4.974-.994v-6.93h8.679a.965.965 0 0 0 .964-.964v-3.858a.965.965 0 0 0-.964-.964h-2.898v-4.821h13.5a.964.964 0 0 0 0-1.929zm-7.384-18.777a.482.482 0 0 1 .072.675.954.954 0 0 0-.179.367.959.959 0 0 0-.273-.015 3.885 3.885 0 0 0-.516-.648l-.071-.071a.94.94 0 0 0 .289-.24.482.482 0 0 1 .678-.068zm-2.259 4.475l-1.543 1.544-3.975-3.975 1.543-1.543a1.975 1.975 0 0 1 2.727 0l1.248 1.247a1.929 1.929 0 0 1 0 2.727zM46.107 57.429h1.929v1.929h-1.929zm3.857-.964V43.929a.965.965 0 0 1 .964-.964h7.714a.965.965 0 0 1 .964.964v15.428h-9.642zm13.5.964v1.929h-1.928v-1.929zm-23.143-5.786H27.786a.965.965 0 0 0-.964.964v19.286a.965.965 0 0 0 .964.964h12.535a.965.965 0 0 0 .964-.964V52.607a.965.965 0 0 0-.964-.964zm-11.571 6.75h10.607v2.893H28.75zm10.607-4.821v2.893H28.75v-2.894zM28.75 70.929v-7.715h10.607v7.714zm-5.786-31.822h22.179a.965.965 0 0 0 .964-.964V15.964a.965.965 0 0 0-.964-.964H22.964a.965.965 0 0 0-.964.964v22.179a.965.965 0 0 0 .964.964zm5.051-12.421a.964.964 0 0 0 1.32-.343 1.737 1.737 0 0 1 .854-.718 1.11 1.11 0 0 0 .613.2 1.746 1.746 0 0 1 1.78 1.711v.033l-.007.117a.963.963 0 0 0 .606.964 1.39 1.39 0 0 1 1.044 1.3c0 .99-.939 1.446-1.811 1.446h-8.485v-5.447a.956.956 0 0 0 .84-.846A2.515 2.515 0 0 1 29.3 23.9a3.671 3.671 0 0 0-1.627 1.465.964.964 0 0 0 .342 1.321zm16.163-9.758v20.25H23.929v-3.857h8.486a3.489 3.489 0 0 0 3.732-3.229c0-.048.006-.1.008-.146a3.159 3.159 0 0 0-1.666-2.8 3.675 3.675 0 0 0-2.862-3.159.937.937 0 0 0-.221-.232 4.427 4.427 0 0 0-7.476-1.284v-5.542z" data-name="Path 149" transform="translate(-22 -15)" style="fill:#3c3c47"/>
</svg>
