<svg xmlns="http://www.w3.org/2000/svg" width="62.2" height="45.662" viewBox="0 0 62.2 45.662">
    <defs>
        <style>
            .prefix__cls-1{fill:#3c3c47}
        </style>
    </defs>
    <g id="prefix__team_1_" data-name="team (1)" transform="translate(0 -68.066)">
        <g id="prefix__Group_2951" data-name="Group 2951" transform="translate(47.713 87.55)">
            <g id="prefix__Group_2950" data-name="Group 2950">
                <path id="prefix__Path_164" d="M399.915 229.519c-2.117-1.058-6.085-1.07-6.253-1.07a.911.911 0 0 0 0 1.822 15.732 15.732 0 0 1 5.438.878.911.911 0 0 0 .815-1.63z" class="prefix__cls-1" data-name="Path 164" transform="translate(-392.751 -228.449)"/>
            </g>
        </g>
        <g id="prefix__Group_2953" data-name="Group 2953" transform="translate(0 68.066)">
            <g id="prefix__Group_2952" data-name="Group 2952">
                <path id="prefix__Path_165" d="M59.42 101.593l-3.763-1.075a.382.382 0 0 1-.276-.366V98.9a6.849 6.849 0 0 0 .871-.714 6.7 6.7 0 0 0 2.048-4.854V91.6l.364-.728a5.813 5.813 0 0 0 .61-2.586v-4.7a.911.911 0 0 0-.911-.911H49.6a5.789 5.789 0 0 0-5.782 5.782v.054a4.833 4.833 0 0 0 .508 2.15l.467.933v1.488a7.109 7.109 0 0 0 2.923 5.748v1.316c0 .2 0 .287-.752.5l-1.836.525-5.311-1.931a.91.91 0 0 0-.248-.7l-1.7-1.783v-2.984c.179-.148.356-.3.528-.46a10.694 10.694 0 0 0 3.369-7.774v-2.391a10.532 10.532 0 0 0 .974-4.429v-9.742a.911.911 0 0 0-.911-.911h-13.64a8.715 8.715 0 0 0-8.7 8.7v1.948a10.532 10.532 0 0 0 .974 4.429V85.2a11.133 11.133 0 0 0 3.9 8.5v3.064l-1.7 1.783a.91.91 0 0 0-.248.7l-5.615 2.038a4.778 4.778 0 0 0-1.126.59l-.88-.44a6.959 6.959 0 0 0 3.49-2.825.911.911 0 0 0 0-.815c-.657-1.314-.736-3.722-.8-5.656-.021-.644-.041-1.253-.08-1.794a7.926 7.926 0 0 0-7.728-7.666 7.925 7.925 0 0 0-7.728 7.666c-.039.542-.059 1.15-.08 1.795-.064 1.935-.144 4.342-.8 5.656a.911.911 0 0 0 0 .815 6.958 6.958 0 0 0 3.494 2.823l-2.445 1.222A3.814 3.814 0 0 0 0 106.085v6.731a.911.911 0 0 0 1.822 0v-6.731a2 2 0 0 1 1.112-1.8l3.045-1.522 1.059 1.007a3.832 3.832 0 0 0 5.282 0l1.059-1.006.993.5a4.8 4.8 0 0 0-.733 2.544v7.013a.911.911 0 0 0 1.822 0V105.8a3 3 0 0 1 1.965-2.8l5.91-2.149 2.46 3.691a1.878 1.878 0 0 0 1.383.83q.094.009.188.009a1.878 1.878 0 0 0 1.331-.552l1.5-1.5v9.491a.911.911 0 0 0 1.822 0v-9.491l1.5 1.5a1.877 1.877 0 0 0 1.331.552q.093 0 .188-.009a1.878 1.878 0 0 0 1.383-.83l2.461-3.691L44.8 103a3 3 0 0 1 1.965 2.806v7.013a.911.911 0 0 0 1.822 0V105.8a4.817 4.817 0 0 0-1.348-3.334l.225-.064a5 5 0 0 0 .848-.306l2.326 2.326v8.39a.911.911 0 0 0 1.822 0v-8.39l2.31-2.31a2.169 2.169 0 0 0 .388.154l3.763 1.075a2.02 2.02 0 0 1 1.459 1.934v7.537a.911.911 0 0 0 1.822 0v-7.537a3.851 3.851 0 0 0-2.782-3.682zm-53.575-1.61a6.55 6.55 0 0 1-2.924-1.877 10.043 10.043 0 0 0 .519-2.182 6.794 6.794 0 0 0 2.4 2.967zm5.22 2.466a2.011 2.011 0 0 1-2.771 0l-.847-.805a1.885 1.885 0 0 0 .222-.89v-.971a6.775 6.775 0 0 0 4.023 0v.97a1.885 1.885 0 0 0 .222.89zm-1.386-4.182a4.94 4.94 0 0 1-4.934-4.934.906.906 0 0 0-1.061-.9c0-.078.005-.157.008-.234.02-.626.04-1.218.076-1.726a6.764 6.764 0 0 1 1.842-4.248 5.661 5.661 0 0 1 8.137 0 6.764 6.764 0 0 1 1.842 4.248c.036.507.056 1.1.076 1.725l.005.163a8.187 8.187 0 0 0-4.5-3.288 11.435 11.435 0 0 0-3.466-.549.911.911 0 0 0-.631.278l-1.644 1.7a.911.911 0 0 0 1.312 1.265l1.368-1.419c1.178.058 4.968.5 6.442 3.744a4.922 4.922 0 0 1-4.872 4.175zm3.833 1.72V98.9a6.74 6.74 0 0 0 2.406-2.97 10.03 10.03 0 0 0 .519 2.177 6.581 6.581 0 0 1-2.924 1.879zM22.281 85.2v-2.256a.911.911 0 0 0-.091-.4 8.74 8.74 0 0 1-.884-3.829v-1.944a6.89 6.89 0 0 1 6.882-6.882h12.729v8.831a8.74 8.74 0 0 1-.884 3.829.911.911 0 0 0-.091.4v2.594a8.747 8.747 0 0 1-2.793 6.444 9.07 9.07 0 0 1-.7.592l-.016.011a8.761 8.761 0 0 1-5.912 1.764 9.025 9.025 0 0 1-8.24-9.154zm5.13 18.333a.057.057 0 0 1-.051.018.058.058 0 0 1-.046-.028l-2.834-4.245.912-.958 4.3 2.938zm3.7-3.516l-4.934-3.373v-1.7a10.259 10.259 0 0 0 4.227 1.22q.36.023.717.023a10.554 10.554 0 0 0 4.925-1.207v1.664zm3.8 3.507a.058.058 0 0 1-.046.028.056.056 0 0 1-.051-.018l-2.28-2.28 4.3-2.938.912.958zm16.637-.769l-2.068-2.068a2.5 2.5 0 0 0 .056-.541v-.384a6.389 6.389 0 0 0 1.8.319h.21a6.768 6.768 0 0 0 2.009-.3v.367a2.178 2.178 0 0 0 .066.531zm3.436-5.886a4.9 4.9 0 0 1-3.588 1.391 5.1 5.1 0 0 1-4.782-5.177v-1.7a.91.91 0 0 0-.1-.407l-.563-1.126a3 3 0 0 1-.315-1.335v-.054A3.964 3.964 0 0 1 49.6 84.5h7.857v3.784a3.981 3.981 0 0 1-.418 1.771l-.46.92a.911.911 0 0 0-.1.407v1.948a4.9 4.9 0 0 1-1.496 3.544z" class="prefix__cls-1" data-name="Path 165" transform="translate(0 -68.066)"/>
            </g>
        </g>
        <g id="prefix__Group_2955" data-name="Group 2955" transform="translate(56.481 106.06)">
            <g id="prefix__Group_2954" data-name="Group 2954">
                <path id="prefix__Path_166" d="M465.834 380.814a.911.911 0 0 0-.911.911v5.845a.911.911 0 1 0 1.822 0v-5.845a.911.911 0 0 0-.911-.911z" class="prefix__cls-1" data-name="Path 166" transform="translate(-464.923 -380.814)"/>
            </g>
        </g>
        <g id="prefix__Group_2957" data-name="Group 2957" transform="translate(3.897 107.264)">
            <g id="prefix__Group_2956" data-name="Group 2956">
                <path id="prefix__Path_167" d="M32.988 390.728a.911.911 0 0 0-.911.911v4.641a.911.911 0 0 0 1.822 0v-4.641a.911.911 0 0 0-.911-.911z" class="prefix__cls-1" data-name="Path 167" transform="translate(-32.077 -390.728)"/>
            </g>
        </g>
        <g id="prefix__Group_2959" data-name="Group 2959" transform="translate(23.381 76.344)">
            <g id="prefix__Group_2958" data-name="Group 2958">
                <path id="prefix__Path_168" d="M207.654 138.908c-3.446-3.446-10.656-2.787-13.6-2.344a1.871 1.871 0 0 0-1.6 1.863v2.1a.911.911 0 0 0 1.822 0v-2.1a.06.06 0 0 1 .048-.062 28.781 28.781 0 0 1 5.919-.289c2.841.189 4.9.9 6.117 2.12a.911.911 0 1 0 1.288-1.288z" class="prefix__cls-1" data-name="Path 168" transform="translate(-192.46 -136.203)"/>
            </g>
        </g>
        <g id="prefix__Group_2961" data-name="Group 2961" transform="translate(19.484 108.009)">
            <g id="prefix__Group_2960" data-name="Group 2960">
                <path id="prefix__Path_169" d="M161.3 396.853a.911.911 0 0 0-.911.911v3.9a.911.911 0 0 0 1.822 0v-3.9a.911.911 0 0 0-.911-.911z" class="prefix__cls-1" data-name="Path 169" transform="translate(-160.384 -396.853)"/>
            </g>
        </g>
        <g id="prefix__Group_2963" data-name="Group 2963" transform="translate(40.917 108.009)">
            <g id="prefix__Group_2962" data-name="Group 2962">
                <path id="prefix__Path_170" d="M337.717 396.853a.911.911 0 0 0-.911.911v3.9a.911.911 0 0 0 1.822 0v-3.9a.911.911 0 0 0-.911-.911z" class="prefix__cls-1" data-name="Path 170" transform="translate(-336.806 -396.853)"/>
            </g>
        </g>
    </g>
</svg>
