<svg xmlns="http://www.w3.org/2000/svg" width="21.971" height="17.852" viewBox="0 0 21.971 17.852">
    <g id="prefix__twitter-2">
        <g id="prefix__Group_2401" data-name="Group 2401">
            <path id="prefix__Path_90" d="M21.971 50.113a9.392 9.392 0 0 1-2.6.711 4.479 4.479 0 0 0 1.982-2.49 9 9 0 0 1-2.856 1.09 4.5 4.5 0 0 0-7.792 3.08 4.638 4.638 0 0 0 .1 1.027 12.75 12.75 0 0 1-9.275-4.71 4.506 4.506 0 0 0 1.384 6.02 4.448 4.448 0 0 1-2.035-.555v.049a4.525 4.525 0 0 0 3.609 4.426 4.5 4.5 0 0 1-1.181.148 3.983 3.983 0 0 1-.853-.077 4.547 4.547 0 0 0 4.209 3.138 9.051 9.051 0 0 1-5.585 1.921A8.437 8.437 0 0 1 0 63.83a12.681 12.681 0 0 0 6.91 2.021 12.732 12.732 0 0 0 12.82-12.817c0-.2-.007-.391-.016-.582a8.986 8.986 0 0 0 2.257-2.339z" data-name="Path 90" transform="translate(0 -48)" style="fill:#3c3c47"/>
        </g>
    </g>
</svg>
